<svg xmlns="http://www.w3.org/2000/svg" viewBox="0 0 17.63 16.75"><g id="Calque_2" data-name="Calque 2"><g id="Calque_2-2" data-name="Calque 2"><path d="M12.65,9.42h-.76A3.16,3.16,0,1,1,8.74,6.27a3.15,3.15,0,0,1,3.15,3.15H13.4a4.66,4.66,0,1,0-4.66,4.67A4.66,4.66,0,0,0,13.4,9.42Z"/><path d="M8.38,15.24A6.86,6.86,0,0,1,1.51,8.38v-.2h0A7,7,0,0,1,8.18,1.51h.25a8.37,8.37,0,0,1,5.28,1.78,6.61,6.61,0,0,1,2.4,5.1c0,.17,0,.33,0,.5A14.33,14.33,0,0,1,16,11a4.3,4.3,0,0,1-.17.79,1.27,1.27,0,0,1-.15.34,2.68,2.68,0,0,1-.47.44.74.74,0,0,1-.36.12.59.59,0,0,1-.4-.19,1.6,1.6,0,0,1-.34-.57,11.32,11.32,0,0,1-.52-1.68c-.06-.26-.11-.49-.14-.66a2,2,0,0,1,0-.26.76.76,0,0,0-1.49.26s.14.77.37,1.63a10.67,10.67,0,0,0,.45,1.31,3.09,3.09,0,0,0,.74,1.12,2,2,0,0,0,2.55.18,3.57,3.57,0,0,0,.81-.73,2.42,2.42,0,0,0,.44-.86,12.53,12.53,0,0,0,.38-3.38c0-.18,0-.36,0-.53a8.09,8.09,0,0,0-3-6.23A9.78,9.78,0,0,0,8.43,0H8.14A8.47,8.47,0,0,0,0,8.14H0v.25a8.38,8.38,0,0,0,8.38,8.37.76.76,0,0,0,0-1.51Z"/></g></g></svg>