<svg xmlns="http://www.w3.org/2000/svg" viewBox="0 0 16.75 16.75"><g id="Calque_2" data-name="Calque 2"><g id="Calque_2-2" data-name="Calque 2"><path d="M8.3,16.16v.59h.09a8.38,8.38,0,0,0,8.37-8.29V8.37A8.38,8.38,0,0,0,8.46,0H8.37A8.38,8.38,0,0,0,0,8.29v.09a8.38,8.38,0,0,0,8.29,8.37V15.57A7.19,7.19,0,0,1,1.18,8.38V8.31A7.2,7.2,0,0,1,8.37,1.18h.08a7.19,7.19,0,0,1,7.12,7.19v.08a7.19,7.19,0,0,1-7.19,7.12H8.3Z"/><path d="M2.49,3.21,13.42,14.37a.6.6,0,0,0,.84,0,.59.59,0,0,0,0-.83L3.33,2.39a.59.59,0,1,0-.84.82"/></g></g></svg>