<svg xmlns="http://www.w3.org/2000/svg" viewBox="0 0 18.26 16.75"><defs><style>.cls-1{fill:#1d1d1b;}</style></defs><g id="Calque_2" data-name="Calque 2"><g id="Calque_2-2" data-name="Calque 2"><path class="cls-1" d="M9.39,15.67h0c-3.24,0-5.31-.53-6.52-1.53a4.18,4.18,0,0,1-1.32-1.88,8.87,8.87,0,0,1-.43-2.88V9.3a11,11,0,0,1,.55-3.78A4.38,4.38,0,0,1,4.29,2.83a14.54,14.54,0,0,1,5.1-.66.54.54,0,1,0,0-1.08c-2.87,0-5.19.26-6.87,1.48A5.41,5.41,0,0,0,.62,5.14,11.77,11.77,0,0,0,0,9.3v.08a9.72,9.72,0,0,0,.49,3.24,5.39,5.39,0,0,0,3,3.17,14.52,14.52,0,0,0,5.9,1h0a.54.54,0,0,0,0-1.08Z"/><path class="cls-1" d="M8.87,16.75h0c3.34,0,5.66-.52,7.21-1.76a5.37,5.37,0,0,0,1.65-2.37,9.72,9.72,0,0,0,.49-3.24V9.3a11.77,11.77,0,0,0-.62-4.16,5.45,5.45,0,0,0-3.28-3.32,15.48,15.48,0,0,0-5.49-.73.54.54,0,0,0,0,1.08c2.81,0,4.92.3,6.24,1.27a4.44,4.44,0,0,1,1.52,2.08,11,11,0,0,1,.55,3.78v.08a8.87,8.87,0,0,1-.43,2.88,4.26,4.26,0,0,1-2.39,2.54,13.38,13.38,0,0,1-5.45.87h0a.54.54,0,0,0,0,1.08Z"/><path class="cls-1" d="M17.4,5.66H.86a.54.54,0,0,0,0,1.08H17.4a.54.54,0,1,0,0-1.08"/><path class="cls-1" d="M6,.54V3.37a.54.54,0,1,0,1.08,0V.54A.54.54,0,1,0,6,.54"/><path class="cls-1" d="M11.21.54V3.37a.54.54,0,1,0,1.08,0V.54a.54.54,0,1,0-1.08,0"/><path class="cls-1" d="M5.66,8.83H5.12v0l0,0V8.84h0l0,0v0l0,0h0v.05l0,0v0l0,0v.06l0,0,0,0v0l0,0,0,0V8.76l0,0v0H6.2a1.14,1.14,0,0,0-.29-.76,1,1,0,0,0-1.51,0,1.09,1.09,0,0,0-.29.76,1.07,1.07,0,0,0,.29.75,1,1,0,0,0,1.51,0,1.11,1.11,0,0,0,.29-.75Z"/><path class="cls-1" d="M9.62,8.83H9.07v0l0,0V8.84h0l0,0v0l0,0h0v.05l0,0v0l0,0v.06l0,0,0,0v0l0,0,0,0V8.76l0,0v0h1.09a1.14,1.14,0,0,0-.29-.76,1,1,0,0,0-1.52,0,1.14,1.14,0,0,0-.29.76,1.11,1.11,0,0,0,.29.75,1,1,0,0,0,.76.34,1,1,0,0,0,.76-.34,1.11,1.11,0,0,0,.29-.75Z"/><path class="cls-1" d="M13.61,8.83h-.54v0l0,0V8.84h0l0,0v0l0,0h0v.05l0,0v0l0,0v.06l0,0,0,0v0l0,0,0,0V8.76l0,0v0h1.08a1.09,1.09,0,0,0-.29-.76,1,1,0,0,0-1.51,0,1.14,1.14,0,0,0-.29.76,1.11,1.11,0,0,0,.29.75,1,1,0,0,0,1.51,0,1.07,1.07,0,0,0,.29-.75Z"/><path class="cls-1" d="M13.61,12.42h-.54v0l0,0v-.05h0l0,0v0l0,0h0v.05l0,0v0l0,0v.05h0l0,0v0l0,0h0v-.05l0,0v0h1.08a1.08,1.08,0,0,0-.29-.75,1,1,0,0,0-1.51,0,1.13,1.13,0,0,0,0,1.51,1,1,0,0,0,1.51,0,1.09,1.09,0,0,0,.29-.76Z"/><path class="cls-1" d="M9.62,12.42H9.07v0l0,0v-.05h0l0,0v0l0,0h0v.05l0,0v0l0,0v.05h0l0,0v0l0,0h0v-.05l0,0v0h1.09a1.13,1.13,0,0,0-.29-.75,1,1,0,0,0-.76-.34,1.06,1.06,0,0,0-.76.34,1.13,1.13,0,0,0,0,1.51,1,1,0,0,0,1.52,0,1.14,1.14,0,0,0,.29-.76Z"/><path class="cls-1" d="M5.66,12.42H5.12v0l0,0v-.05h0l0,0v0l0,0h0v.05l0,0v0l0,0v.05h0l0,0v0l0,0h0v-.05l0,0v0H6.2a1.13,1.13,0,0,0-.29-.75,1,1,0,0,0-1.51,0,1.13,1.13,0,0,0,0,1.51,1,1,0,0,0,1.51,0,1.14,1.14,0,0,0,.29-.76Z"/></g></g></svg>