<svg xmlns="http://www.w3.org/2000/svg" viewBox="0 0 18.72 16.75"><defs><style>.cls-1{fill:#1d1d1b;}</style></defs><g id="Calque_2" data-name="Calque 2"><g id="Calque_2-2" data-name="Calque 2"><path class="cls-1" d="M9.62,0H9.09c-2.77,0-5,.34-6.65,1.57A5.47,5.47,0,0,0,.6,4.1a11.19,11.19,0,0,0-.6,4v.08H0A8.2,8.2,0,0,0,.82,12a5.47,5.47,0,0,0,2.77,2.44.6.6,0,0,0,.48-1.1,4.24,4.24,0,0,1-2.2-1.91A7,7,0,0,1,1.2,8.15h0V8.08a10.11,10.11,0,0,1,.52-3.56,4.25,4.25,0,0,1,2.52-2.6A13.32,13.32,0,0,1,9.1,1.2v0h.52a.6.6,0,1,0,0-1.2Z"/><path class="cls-1" d="M7.8,15.34c.48,0,1,.07,1.56.07h.26a.6.6,0,0,0,0-1.2H9.36c-.52,0-1,0-1.48-.06a.6.6,0,1,0-.08,1.19Z"/><path class="cls-1" d="M9.1,15.41h0c3.41,0,5.78-.51,7.36-1.73a5.22,5.22,0,0,0,1.71-2.33,9.24,9.24,0,0,0,.51-3.19V8.07A11.2,11.2,0,0,0,18.08,4,5.5,5.5,0,0,0,14.71.72,16.7,16.7,0,0,0,9.1,0a.6.6,0,1,0,0,1.2c2.86,0,5,.29,6.34,1.23a4.2,4.2,0,0,1,1.53,2,10.17,10.17,0,0,1,.55,3.64v.08a7.71,7.71,0,0,1-.43,2.77,4.18,4.18,0,0,1-2.41,2.45,14.25,14.25,0,0,1-5.54.84h0a.6.6,0,0,0,0,1.2Z"/><path class="cls-1" d="M3.82,14.51h0v-.6l-.53.28,1,1.85a1.35,1.35,0,0,0,1.18.71,1.26,1.26,0,0,0,.7-.2L8,15.39l.09-.06.15-.14a.6.6,0,0,0-.8-.89l-.12.11L5.51,15.53l-.07,0-.11-.07-1-1.85a.59.59,0,0,0-.53-.32h0a.6.6,0,0,0,0,1.2Z"/></g></g></svg>