<svg xmlns="http://www.w3.org/2000/svg" viewBox="0 0 23.22 16.75"><g id="Calque_2" data-name="Calque 2"><g id="Calque_2-2" data-name="Calque 2"><path d="M17.29,5.83A4.79,4.79,0,0,1,20.46,14l.48.48L20.46,14a4.81,4.81,0,0,1-3.39,1.39H6.15A4.78,4.78,0,0,1,1.37,10.6,4.79,4.79,0,0,1,2.76,7.22h0A4.69,4.69,0,0,1,4.55,6.1.69.69,0,0,0,5,5.23a.7.7,0,0,0-.87-.42A6.18,6.18,0,0,0,1.8,6.25h0A6.15,6.15,0,0,0,6.15,16.75H17.07A6.17,6.17,0,0,0,21.42,15h0A6.15,6.15,0,0,0,17.34,4.47a.68.68,0,1,0-.05,1.36Z"/><path d="M5,5.4c0-.13,0-.25,0-.35A3.69,3.69,0,0,1,8.67,1.37,3.65,3.65,0,0,1,12,3.4a.68.68,0,1,0,1.22-.61A5,5,0,0,0,3.62,5.05c0,.17,0,.33,0,.47a.68.68,0,0,0,.74.62A.68.68,0,0,0,5,5.4Z"/><path d="M13,3.67a2.34,2.34,0,0,1,1.3-.39,2.41,2.41,0,0,1,2.39,2A.68.68,0,0,0,18,5a3.78,3.78,0,0,0-3.74-3.13,3.72,3.72,0,0,0-2.05.62.67.67,0,0,0-.2.94.68.68,0,0,0,.95.2Z"/></g></g></svg>