<svg xmlns="http://www.w3.org/2000/svg" viewBox="0 0 19.62 16.75"><defs><style>.cls-1{fill:#1d1d1b;}</style></defs><g id="Calque_2" data-name="Calque 2"><g id="Calque_2-2" data-name="Calque 2"><path class="cls-1" d="M10.08,0H9.53c-2.9,0-5.24.33-7,1.52A5.44,5.44,0,0,0,.63,4,10.37,10.37,0,0,0,0,7.91V8H0a6.55,6.55,0,0,0,1.75,4.93C3,14.1,4.89,14.73,7.52,15a.63.63,0,1,0,.11-1.25c-2.5-.21-4.08-.81-5-1.71A5.29,5.29,0,0,1,1.25,8h0V7.91A9.15,9.15,0,0,1,1.8,4.47,4.23,4.23,0,0,1,4.42,2a15.29,15.29,0,0,1,5.12-.71v0h.55a.63.63,0,1,0,0-1.25Z"/><path class="cls-1" d="M9.53,1.25h.55v0c2.82,0,4.94.37,6.24,1.29a4.2,4.2,0,0,1,1.5,1.93,9.17,9.17,0,0,1,.54,3.44V8h0A5.25,5.25,0,0,1,17,12c-.94.9-2.52,1.5-5,1.71A.63.63,0,0,0,12.1,15c2.63-.23,4.51-.86,5.76-2.05A6.52,6.52,0,0,0,19.62,8h0V7.91A10.57,10.57,0,0,0,19,4,5.6,5.6,0,0,0,15.64.78,16.47,16.47,0,0,0,10.09,0H9.53a.63.63,0,0,0,0,1.25Z"/><path class="cls-1" d="M11.62,14.8l.05,0,.42-.47-.42-.46L10.06,15.4l-.25.1-.25-.1L8,13.92l-.42.46.42.47,0,0a.63.63,0,0,0,0-.88.62.62,0,0,0-.88-.05l0,.05a.59.59,0,0,0-.21.46.63.63,0,0,0,.2.47l1.61,1.47a1.61,1.61,0,0,0,1.1.43,1.57,1.57,0,0,0,1.09-.43l1.62-1.47a.63.63,0,0,0,.2-.47.62.62,0,0,0-.21-.46l0-.05a.62.62,0,0,0-.88.05.61.61,0,0,0,0,.88Z"/></g></g></svg>