<svg xmlns="http://www.w3.org/2000/svg" viewBox="0 0 16.77 16.75"><defs><style>.cls-1{fill:#1d1d1b;}</style></defs><g id="Calque_2" data-name="Calque 2"><g id="Calque_2-2" data-name="Calque 2"><path class="cls-1" d="M14.69,5.9c.26.61.5.92.65,1.36a6.84,6.84,0,0,1,.29,2.39,8.32,8.32,0,0,1-.38,2.73,4,4,0,0,1-2.19,2.41,12,12,0,0,1-5,.82H8a.57.57,0,0,0-.57.57.56.56,0,0,0,.57.57H8c3.11,0,5.28-.5,6.74-1.71a5.07,5.07,0,0,0,1.54-2.28,9.34,9.34,0,0,0,.45-3.11,7.83,7.83,0,0,0-.36-2.79c-.22-.61-.48-.94-.67-1.4a.57.57,0,0,0-.75-.3.55.55,0,0,0-.3.74Z"/><path class="cls-1" d="M8.76,15.61h0c-3,0-4.89-.51-6-1.44a4,4,0,0,1-1.21-1.79,8.6,8.6,0,0,1-.39-2.74V9.57A10.51,10.51,0,0,1,1.65,6,4,4,0,0,1,4.07,3.42,13.11,13.11,0,0,1,8.76,2.8a.57.57,0,0,0,.57-.57.56.56,0,0,0-.57-.57c-2.66,0-4.82.24-6.41,1.43A5.27,5.27,0,0,0,.57,5.58a11.92,11.92,0,0,0-.57,4v.08a9.6,9.6,0,0,0,.46,3.11,5.12,5.12,0,0,0,2.77,3.06,12.94,12.94,0,0,0,5.5.93h0a.56.56,0,0,0,.57-.57.57.57,0,0,0-.57-.57Z"/><path d="M7,8.71l-.57-.05L6.3,10.19h0v.09a1.2,1.2,0,0,0,.38.84,1.16,1.16,0,0,0,.79.31,1.15,1.15,0,0,0,.37-.06l1.45-.52.25-.19,6.11-8a1,1,0,0,0,.21-.62,1.17,1.17,0,0,0-.46-.91L14.2.25A1.13,1.13,0,0,0,13.48,0a1.05,1.05,0,0,0-.83.4l-6.1,8a.56.56,0,0,0-.12.3L7,8.71l.45.35,6.11-8L13.48,1v.1l.08,0L13.48,1v.1h0l1.2.92h.13L14.74,2l0,.07h.12L14.74,2l-6,7.83-1.28.47v0h0v0h0l.13-1.53L7,8.71l.45.35Z"/></g></g></svg>