<svg xmlns="http://www.w3.org/2000/svg" viewBox="0 0 15.49 12.89"><defs><style>.cls-1{fill:#1d1d1b;}</style></defs><g id="Calque_2" data-name="Calque 2"><g id="Calque_2-2" data-name="Calque 2"><path class="cls-1" d="M4.2,11.29a4.87,4.87,0,0,0,3.42,1.6,5.14,5.14,0,0,0,3.5-1.59l-.34-.36.33.37s.59-.52.8-.72A30.49,30.49,0,0,0,14.1,8.32,8.34,8.34,0,0,0,15,6.89a5,5,0,0,0,.53-2H15.1l.39,0v0H15.1l.39,0v0A4.9,4.9,0,0,0,10.59,0,4.86,4.86,0,0,0,7.33,1.25a.5.5,0,0,0,0,.71A.5.5,0,0,0,8,2a3.88,3.88,0,0,1,5.34.15A3.92,3.92,0,0,1,14.49,4.9H15l-.5,0v0a4,4,0,0,1-.43,1.54,8,8,0,0,1-.75,1.25,29.26,29.26,0,0,1-2.1,2.16l-.44.41-.32.28h0a4.18,4.18,0,0,1-2.82,1.32A3.89,3.89,0,0,1,4.9,10.58a.5.5,0,0,0-.7,0,.5.5,0,0,0,0,.71Z"/><path class="cls-1" d="M4.87,10.55l-.07-.06a21.5,21.5,0,0,1-2.69-2.7A4.73,4.73,0,0,1,1,4.84a3.6,3.6,0,0,1,1.08-2.6A3.88,3.88,0,0,1,4.84,1.09h0A3.8,3.8,0,0,1,7.34,2,.49.49,0,0,0,8,2a.51.51,0,0,0,0-.71A4.86,4.86,0,0,0,4.86.09h0A4.91,4.91,0,0,0,1.37,1.53,4.64,4.64,0,0,0,0,4.84,5.68,5.68,0,0,0,1.34,8.42a22.18,22.18,0,0,0,2.89,2.9.5.5,0,1,0,.64-.77Z"/></g></g></svg>