<svg xmlns="http://www.w3.org/2000/svg" viewBox="0 0 21.18 16.75"><defs><style>.cls-1{fill:#1d1d1b;}</style></defs><g id="Calque_2" data-name="Calque 2"><g id="Calque_2-2" data-name="Calque 2"><path d="M2.47,5.11l-2,2a1.56,1.56,0,0,0,0,2.21l2,2a.64.64,0,0,0,.89,0,.63.63,0,0,0,0-.88l-2-2-.09-.22L1.34,8l2-2a.63.63,0,1,0-.89-.89Z"/><path d="M1.77,8.86H12.21a.63.63,0,1,0,0-1.25H1.77a.63.63,0,0,0,0,1.25"/><path class="cls-1" d="M6.52,5.9a6.77,6.77,0,0,1,.82-2.43A4,4,0,0,1,9.58,1.7a12.27,12.27,0,0,1,3.77-.45.63.63,0,0,0,0-1.25A10.37,10.37,0,0,0,8,1,5.17,5.17,0,0,0,6.26,2.83a8.22,8.22,0,0,0-1,2.86.62.62,0,0,0,1.23.21Z"/><path class="cls-1" d="M13.35,15.5h0a9.2,9.2,0,0,1-4.74-1,4.37,4.37,0,0,1-2-2.92.62.62,0,0,0-1.21.29,5.62,5.62,0,0,0,2.55,3.7,10.34,10.34,0,0,0,5.38,1.15h0a.63.63,0,0,0,0-1.25Z"/><path class="cls-1" d="M12.9,16.75h0c2.92,0,5-.57,6.39-1.93a5.77,5.77,0,0,0,1.44-2.53,11.86,11.86,0,0,0,.42-3.42v-.1a15.08,15.08,0,0,0-.53-4.39A5.48,5.48,0,0,0,17.75.8,11.31,11.31,0,0,0,12.9,0a.63.63,0,0,0,0,1.25A13.77,13.77,0,0,1,16,1.53,4.17,4.17,0,0,1,18.9,3.45a10.48,10.48,0,0,1,1,5.32v.09a11.25,11.25,0,0,1-.38,3.08,4.19,4.19,0,0,1-2,2.67,9.5,9.5,0,0,1-4.61.89h0a.63.63,0,0,0,0,1.25Z"/></g></g></svg>