<svg xmlns="http://www.w3.org/2000/svg" viewBox="0 0 19.13 16.75"><defs><style>.cls-1{fill:#1d1d1b;}</style></defs><g id="Calque_2" data-name="Calque 2"><g id="Calque_2-2" data-name="Calque 2"><path class="cls-1" d="M.08,11.22a10.9,10.9,0,0,0,19,0,.66.66,0,0,0-.25-.89.64.64,0,0,0-.88.24,9.59,9.59,0,0,1-16.71,0,.64.64,0,0,0-.88-.24.65.65,0,0,0-.24.89Z"/><path class="cls-1" d="M14.92,9.62a14.11,14.11,0,0,0,.51-3.26c0-.23,0-.45,0-.67A5.6,5.6,0,0,0,14,1.39,6.51,6.51,0,0,0,9.34,0h0a.65.65,0,0,0-.64.65.65.65,0,0,0,.64.65h0a5.34,5.34,0,0,1,3.73,1,4.35,4.35,0,0,1,1.08,3.35c0,.19,0,.39,0,.6a12.74,12.74,0,0,1-.47,3,.66.66,0,0,0,.44.81.66.66,0,0,0,.81-.44Z"/><path class="cls-1" d="M9.82,0h0A6.54,6.54,0,0,0,5.18,1.39a5.6,5.6,0,0,0-1.5,4.3c0,.22,0,.44,0,.67.14,2.65.76,4.56,1.85,5.84A5.36,5.36,0,0,0,9.8,14h0a.66.66,0,0,0,.46-.19.68.68,0,0,0,.19-.46.65.65,0,0,0-.65-.65H9.31a.64.64,0,0,0-.45.19.62.62,0,0,0-.19.46.65.65,0,0,0,.64.65h0a5.69,5.69,0,0,0,3.33-1,.65.65,0,0,0,.15-.91.64.64,0,0,0-.9-.15,4.34,4.34,0,0,1-2.58.74h0a.64.64,0,0,0-.45.19.62.62,0,0,0-.19.46.65.65,0,0,0,.64.65h.51a.66.66,0,0,0,.46-.19.68.68,0,0,0,.19-.46.65.65,0,0,0-.65-.65h0a4,4,0,0,1-3.26-1.37c-.83-1-1.42-2.57-1.54-5.06,0-.21,0-.41,0-.6A4.35,4.35,0,0,1,6.06,2.34a5.35,5.35,0,0,1,3.74-1h0a.65.65,0,1,0,0-1.3Z"/><path class="cls-1" d="M4.33,6.16H7.59a.65.65,0,0,0,0-1.3H4.33a.66.66,0,0,0-.65.65.66.66,0,0,0,.65.65"/><path class="cls-1" d="M5.33,9.25H6.8A.65.65,0,0,0,6.8,8H5.33a.65.65,0,0,0,0,1.3"/></g></g></svg>