<svg xmlns="http://www.w3.org/2000/svg" viewBox="0 0 15.75 16.75"><defs><style>.cls-1{fill:#1d1d1b;}</style></defs><g id="Calque_2" data-name="Calque 2"><g id="Calque_2-2" data-name="Calque 2"><path class="cls-1" d="M14.61,12.19a7.86,7.86,0,0,1-2,2,7.7,7.7,0,0,1-4.33,1.35,7,7,0,0,1-5.85-3A6.85,6.85,0,0,1,1.26,8.59,7.58,7.58,0,0,1,4.62,2.37,8.14,8.14,0,0,1,7.17,1.24.63.63,0,0,0,7.64.48.64.64,0,0,0,6.87,0a9.26,9.26,0,0,0-3,1.31A8.82,8.82,0,0,0,0,8.59a8.06,8.06,0,0,0,1.4,4.57,8.25,8.25,0,0,0,6.89,3.59,9,9,0,0,0,5-1.56,9.24,9.24,0,0,0,2.31-2.27.63.63,0,0,0-1-.73Z"/><path class="cls-1" d="M15,11.94a7.31,7.31,0,0,1-1.79.22,7,7,0,0,1-5.84-3A6.84,6.84,0,0,1,6.16,5.27,7.34,7.34,0,0,1,7.54,1,.64.64,0,0,0,7.39.12a.62.62,0,0,0-.88.15,8.69,8.69,0,0,0-1.62,5,8.16,8.16,0,0,0,1.4,4.57,8.26,8.26,0,0,0,6.89,3.58,8.72,8.72,0,0,0,2.09-.25.64.64,0,0,0,.47-.76.65.65,0,0,0-.77-.47Z"/></g></g></svg>