<svg xmlns="http://www.w3.org/2000/svg" viewBox="0 0 24.27 16.75"><defs><style>.cls-1{fill:#1d1d1b;}</style></defs><g id="Calque_2" data-name="Calque 2"><g id="Calque_2-2" data-name="Calque 2"><path class="cls-1" d="M6.59,5.62H6.06a1.35,1.35,0,0,1-.48,1,1.82,1.82,0,0,1-1.22.44,1.82,1.82,0,0,1-1.22-.44,1.37,1.37,0,0,1-.47-1,1.34,1.34,0,0,1,.47-1,1.88,1.88,0,0,1,2.44,0,1.31,1.31,0,0,1,.48,1H7.12a2.35,2.35,0,0,0-.83-1.8A2.87,2.87,0,0,0,4.36,3.1a2.89,2.89,0,0,0-1.93.72,2.42,2.42,0,0,0-.83,1.8,2.38,2.38,0,0,0,.83,1.8,2.89,2.89,0,0,0,1.93.72,2.87,2.87,0,0,0,1.93-.72,2.35,2.35,0,0,0,.83-1.8Z"/><path class="cls-1" d="M4.22,13.65H4.4c.48,0,.92,0,1.3-.06a.54.54,0,0,0-.1-1.07,10.93,10.93,0,0,1-1.2.06H4.22a.54.54,0,1,0,0,1.07Z"/><path class="cls-1" d="M4.59,12.58h0a7.34,7.34,0,0,1-2.87-.4,1.18,1.18,0,0,1-.5-.38.85.85,0,0,1-.14-.52v-.17h0a1.87,1.87,0,0,1,1-1.57A5.1,5.1,0,0,1,4.58,9h0A.54.54,0,0,0,5,8.12.54.54,0,0,0,4.59,8H4.22a.54.54,0,0,0-.38.15A.54.54,0,0,0,4.22,9h0a6.21,6.21,0,0,1,2,.28A.54.54,0,0,0,6.93,9a.54.54,0,0,0-.33-.68A7.05,7.05,0,0,0,4.24,8h0a.54.54,0,0,0-.38.15A.54.54,0,0,0,4.22,9h.37A.54.54,0,0,0,5,8.12.54.54,0,0,0,4.59,8h0a6.22,6.22,0,0,0-3,.64A3,3,0,0,0,0,11H0a2.64,2.64,0,0,0,0,.28A2,2,0,0,0,.32,12.4a2.63,2.63,0,0,0,1.59,1,10.4,10.4,0,0,0,2.67.27h0a.54.54,0,1,0,0-1.07Z"/><path class="cls-1" d="M17.68,5.62h-.54A2.42,2.42,0,0,0,18,7.42a3,3,0,0,0,3.87,0,2.37,2.37,0,0,0,0-3.6,3,3,0,0,0-3.87,0,2.42,2.42,0,0,0-.83,1.8h1.07a1.34,1.34,0,0,1,.47-1,1.89,1.89,0,0,1,2.45,0,1.34,1.34,0,0,1,.47,1,1.37,1.37,0,0,1-.47,1,1.93,1.93,0,0,1-2.45,0,1.37,1.37,0,0,1-.47-1Z"/><path class="cls-1" d="M20.05,12.58h-.19a10.74,10.74,0,0,1-1.19-.06.54.54,0,0,0-.1,1.07c.38,0,.82.06,1.29.06h.19a.54.54,0,0,0,0-1.07Z"/><path class="cls-1" d="M19.67,13.65h0A8.51,8.51,0,0,0,23,13.16a2.22,2.22,0,0,0,.94-.76,1.94,1.94,0,0,0,.33-1.12l0-.28a3,3,0,0,0-1.52-2.39,6.15,6.15,0,0,0-3-.64h0a.51.51,0,0,0-.37.15.53.53,0,0,0,0,.76.52.52,0,0,0,.37.16h.38a.52.52,0,0,0,.37-.16.53.53,0,0,0,0-.76A.51.51,0,0,0,20.05,8h0a7,7,0,0,0-2.36.34.53.53,0,0,0-.33.68.54.54,0,0,0,.68.33A6.17,6.17,0,0,1,20,9h0a.52.52,0,0,0,.37-.16.53.53,0,0,0,0-.76A.51.51,0,0,0,20.05,8h-.38a.51.51,0,0,0-.37.15.53.53,0,0,0,0,.76.52.52,0,0,0,.37.16h0a5.12,5.12,0,0,1,2.51.5,1.92,1.92,0,0,1,1,1.57v.17a.92.92,0,0,1-.14.52,1.62,1.62,0,0,1-1,.55,9.62,9.62,0,0,1-2.39.23h0a.54.54,0,0,0,0,1.07Z"/><path class="cls-1" d="M15.66,3.82h-.54a2.54,2.54,0,0,1-.9,1.92,3.48,3.48,0,0,1-4.51,0,2.54,2.54,0,0,1-.9-1.92,2.54,2.54,0,0,1,.9-1.92,3.48,3.48,0,0,1,4.51,0,2.54,2.54,0,0,1,.9,1.92h1.07A3.63,3.63,0,0,0,14.93,1.1,4.55,4.55,0,0,0,9,1.1,3.63,3.63,0,0,0,7.74,3.82,3.63,3.63,0,0,0,9,6.54a4.55,4.55,0,0,0,5.93,0,3.63,3.63,0,0,0,1.26-2.72Z"/><path class="cls-1" d="M17.37,11.22a4,4,0,0,1,.52,1.65c0,.11,0,.22,0,.32a1.79,1.79,0,0,1-.29,1.05,3.07,3.07,0,0,1-1.82,1,16.26,16.26,0,0,1-4,.39h0a.54.54,0,0,0,0,1.07h0A13.39,13.39,0,0,0,17.09,16a3.34,3.34,0,0,0,1.41-1.13A2.83,2.83,0,0,0,19,13.19c0-.14,0-.29,0-.43a4.92,4.92,0,0,0-.68-2.09.52.52,0,0,0-.73-.18.53.53,0,0,0-.18.73Z"/><path class="cls-1" d="M12.35,15.68h0A12.57,12.57,0,0,1,7.44,15a2.22,2.22,0,0,1-1-.76,2.14,2.14,0,0,1-.27-1.37h0A3.5,3.5,0,0,1,8,10a8.87,8.87,0,0,1,4.33-.88h0A.55.55,0,0,0,12.73,9a.56.56,0,0,0,.15-.37.58.58,0,0,0-.15-.38.55.55,0,0,0-.38-.16h-.62a.55.55,0,0,0-.38.16.54.54,0,0,0-.15.38.51.51,0,0,0,.15.37.55.55,0,0,0,.38.16h0a10.56,10.56,0,0,1,3.44.49.54.54,0,0,0,.68-.33.53.53,0,0,0-.33-.68,11.41,11.41,0,0,0-3.79-.55h0a.55.55,0,0,0-.38.16.54.54,0,0,0-.15.38.51.51,0,0,0,.15.37.55.55,0,0,0,.38.16h.62A.55.55,0,0,0,12.73,9a.56.56,0,0,0,.15-.37.58.58,0,0,0-.15-.38.55.55,0,0,0-.38-.16h0a9.84,9.84,0,0,0-4.86,1,4.59,4.59,0,0,0-2.34,3.68h0c0,.15,0,.3,0,.44a2.83,2.83,0,0,0,.48,1.65A4,4,0,0,0,8,16.32a17,17,0,0,0,4.32.43h0a.54.54,0,0,0,0-1.07Z"/></g></g></svg>