<svg xmlns="http://www.w3.org/2000/svg" viewBox="0 0 16.75 16.75"><defs><style>.cls-1{fill:#1d1d1b;}</style></defs><g id="Calque_2" data-name="Calque 2"><g id="Calque_2-2" data-name="Calque 2"><path class="cls-1" d="M10.52,5.48H10a1.29,1.29,0,0,1-.45,1,1.82,1.82,0,0,1-2.35,0,1.29,1.29,0,0,1-.45-1,1.31,1.31,0,0,1,.45-1,1.85,1.85,0,0,1,2.35,0,1.31,1.31,0,0,1,.45,1h1.05a2.36,2.36,0,0,0-.81-1.75,2.87,2.87,0,0,0-3.73,0A2.36,2.36,0,0,0,5.7,5.48a2.32,2.32,0,0,0,.81,1.74,2.87,2.87,0,0,0,3.73,0,2.32,2.32,0,0,0,.81-1.74Z"/><path class="cls-1" d="M11.3,10.39a2.08,2.08,0,0,1,.27.87v.17a.86.86,0,0,1-.13.49,1.6,1.6,0,0,1-.94.52,9,9,0,0,1-2.3.22h0a.53.53,0,1,0,0,1.05h0a8,8,0,0,0,3.19-.47,2.22,2.22,0,0,0,.91-.73,1.9,1.9,0,0,0,.32-1.08l0-.28a3.11,3.11,0,0,0-.42-1.31.53.53,0,0,0-.72-.17.52.52,0,0,0-.17.72Z"/><path class="cls-1" d="M8.55,12.66h0a7,7,0,0,1-2.76-.38,1.15,1.15,0,0,1-.48-.36.86.86,0,0,1-.13-.49v-.17h0a1.81,1.81,0,0,1,1-1.51,4.85,4.85,0,0,1,2.41-.48h0a.55.55,0,0,0,.53-.53.53.53,0,0,0-.53-.52H8.2a.53.53,0,0,0-.53.52.55.55,0,0,0,.53.53h0a5.94,5.94,0,0,1,1.93.27.53.53,0,1,0,.35-1,7.05,7.05,0,0,0-2.28-.33h0a.53.53,0,0,0-.53.52.55.55,0,0,0,.53.53h.35a.55.55,0,0,0,.53-.53.53.53,0,0,0-.53-.52h0a5.91,5.91,0,0,0-2.94.63,2.89,2.89,0,0,0-1.46,2.3h0l0,.28a1.9,1.9,0,0,0,.32,1.08A2.51,2.51,0,0,0,6,13.45a10.16,10.16,0,0,0,2.57.26h0a.53.53,0,1,0,0-1.05Z"/><path class="cls-1" d="M10.91,16.23V15.7H5.84a4.78,4.78,0,0,1-4.79-4.79V5.84A4.78,4.78,0,0,1,5.84,1.05h5.07A4.78,4.78,0,0,1,15.7,5.84v5.07a4.78,4.78,0,0,1-4.79,4.79v1.05a5.83,5.83,0,0,0,5.84-5.84V5.84A5.83,5.83,0,0,0,10.91,0H5.84A5.83,5.83,0,0,0,0,5.84v5.07a5.83,5.83,0,0,0,5.84,5.84h5.07Z"/></g></g></svg>