<svg xmlns="http://www.w3.org/2000/svg" viewBox="0 0 16.75 16.75"><defs><style>.cls-1{fill:#1d1d1b;}</style></defs><g id="Calque_2" data-name="Calque 2"><g id="Calque_2-2" data-name="Calque 2"><path class="cls-1" d="M16.23,8.38H15.7A7.27,7.27,0,0,1,13,14.07h0a7.31,7.31,0,0,1-9.19,0A7.33,7.33,0,1,1,15.7,8.38h1.05a8.38,8.38,0,1,0-8.37,8.37,8.3,8.3,0,0,0,5.25-1.86h0a8.34,8.34,0,0,0,3.12-6.51Z"/><path class="cls-1" d="M11.16,7.39h-.53A1.89,1.89,0,0,1,10,8.79a2.58,2.58,0,0,1-3.33,0,1.83,1.83,0,0,1,0-2.8A2.58,2.58,0,0,1,10,6a1.87,1.87,0,0,1,.65,1.4h1a2.89,2.89,0,0,0-1-2.18,3.5,3.5,0,0,0-2.36-.87A3.49,3.49,0,0,0,6,5.21,2.86,2.86,0,0,0,6,9.57a3.49,3.49,0,0,0,2.35.87,3.5,3.5,0,0,0,2.36-.87,2.89,2.89,0,0,0,1-2.18Z"/><path class="cls-1" d="M12.38,13.15a3,3,0,0,1,.39,1.23l.52-.06-.52,0v.16a.52.52,0,0,0,.55.49.53.53,0,0,0,.5-.55v-.19a3.92,3.92,0,0,0-.54-1.66.52.52,0,0,0-.72-.17.53.53,0,0,0-.17.72Z"/><path class="cls-1" d="M11.11,11a8.69,8.69,0,0,0-2.76-.43H8.14a.52.52,0,0,0-.53.52.53.53,0,0,0,.53.53h.2v0a7.69,7.69,0,0,1,2.43.36.52.52,0,1,0,.35-1Z"/><path class="cls-1" d="M4,14.52v-.17l-.52,0,.52,0a2.54,2.54,0,0,1,1.26-2.08,6.25,6.25,0,0,1,3.11-.7v0h.27a.53.53,0,0,0,.53-.53.52.52,0,0,0-.53-.52H8.33a7.38,7.38,0,0,0-3.63.85,3.62,3.62,0,0,0-1.76,2.88v.19a.53.53,0,0,0,.5.55A.52.52,0,0,0,4,14.52Z"/></g></g></svg>