<svg xmlns="http://www.w3.org/2000/svg" viewBox="0 0 18.76 16.75"><g id="Calque_2" data-name="Calque 2"><g id="Calque_2-2" data-name="Calque 2"><path d="M2.34,8.79a5.26,5.26,0,0,1-.15-1.24A6.58,6.58,0,0,1,7.5,1.44a7.62,7.62,0,0,1,1.76-.21,6.12,6.12,0,0,1,6.16,4.43.62.62,0,0,0,1.2-.29A7.35,7.35,0,0,0,9.26,0a9,9,0,0,0-2,.24A7.81,7.81,0,0,0,1,7.55a6.51,6.51,0,0,0,.18,1.52.62.62,0,0,0,.74.46.62.62,0,0,0,.46-.74Z"/><path d="M17.6,2.4,16.18,5.2,16,5.3l-.08,0-3-1.13a.61.61,0,1,0-.43,1.15l3,1.14a1.48,1.48,0,0,0,.51.09,1.43,1.43,0,0,0,1.29-.78L18.7,3a.63.63,0,0,0-.27-.83.62.62,0,0,0-.83.28Z"/><path d="M16.43,8a5.3,5.3,0,0,1,.14,1.24,6.58,6.58,0,0,1-5.3,6.11,7.77,7.77,0,0,1-1.77.21A6.11,6.11,0,0,1,3.34,11.1a.61.61,0,0,0-.74-.46.62.62,0,0,0-.46.74A7.35,7.35,0,0,0,9.5,16.75a9,9,0,0,0,2.05-.24A7.82,7.82,0,0,0,17.81,9.2a6.51,6.51,0,0,0-.18-1.52.63.63,0,0,0-.75-.46.61.61,0,0,0-.45.74Z"/><path d="M1.17,14.35l1.41-2.79.2-.11.07,0,3,1.13a.61.61,0,0,0,.79-.35.62.62,0,0,0-.36-.8l-3-1.14a1.52,1.52,0,0,0-.51-.09,1.47,1.47,0,0,0-1.3.78L.07,13.8a.61.61,0,0,0,.27.83.62.62,0,0,0,.83-.28Z"/></g></g></svg>