<svg xmlns="http://www.w3.org/2000/svg" viewBox="0 0 24.81 16.75"><defs><style>.cls-1{fill:#1d1d1b;}</style></defs><g id="Calque_2" data-name="Calque 2"><g id="Calque_2-2" data-name="Calque 2"><path class="cls-1" d="M10,3.53H9.36A2.22,2.22,0,1,1,7.15,1.32,2.22,2.22,0,0,1,9.36,3.53h1.32A3.53,3.53,0,1,0,7.15,7.06a3.53,3.53,0,0,0,3.53-3.53Z"/><path class="cls-1" d="M24.15,2.86H10a.66.66,0,0,0,0,1.32H24.15a.66.66,0,1,0,0-1.32"/><path class="cls-1" d="M4.27,2.86H.94a.66.66,0,0,0,0,1.32H4.27a.66.66,0,0,0,0-1.32"/><path class="cls-1" d="M14.79,13.22h-.66a3.53,3.53,0,1,0,3.53-3.53,3.53,3.53,0,0,0-3.53,3.53h1.32a2.22,2.22,0,1,1,2.21,2.21,2.22,2.22,0,0,1-2.21-2.21Z"/><path class="cls-1" d="M.66,13.87H14.8a.66.66,0,1,0,0-1.32H.66a.66.66,0,1,0,0,1.32"/><path class="cls-1" d="M20.54,13.87h3.33a.66.66,0,0,0,0-1.32H20.54a.66.66,0,0,0,0,1.32"/></g></g></svg>