<svg xmlns="http://www.w3.org/2000/svg" viewBox="0 0 16.63 16.75"><defs><style>.cls-1{fill:#1d1d1b;}</style></defs><g id="Calque_2" data-name="Calque 2"><g id="Calque_2-2" data-name="Calque 2"><path class="cls-1" d="M6.91,13.79a5,5,0,0,1-1.46-.62.55.55,0,0,0-.58.94,6.21,6.21,0,0,0,1.77.75.54.54,0,0,0,.67-.4.55.55,0,0,0-.4-.67Z"/><path class="cls-1" d="M13.7,9.71a4.42,4.42,0,0,1-.42,1.17.56.56,0,0,0,1,.51,5.75,5.75,0,0,0,.51-1.46.55.55,0,0,0-1.08-.22Z"/><path class="cls-1" d="M11.56,2.63A5.9,5.9,0,0,0,10,2a.55.55,0,0,0-.67.41.56.56,0,0,0,.41.67A4.46,4.46,0,0,1,11,3.59a.56.56,0,1,0,.56-1Z"/><path class="cls-1" d="M2.49,5.26A7.48,7.48,0,0,0,2,6.49.56.56,0,0,0,3,6.82a5.91,5.91,0,0,1,.44-1,.55.55,0,1,0-1-.53Z"/><path class="cls-1" d="M5.67,3.57a4.93,4.93,0,0,1,1.21-.48l-.15-.54V3.1h0a.54.54,0,0,0,.55-.55A.55.55,0,0,0,6.74,2h0L6.59,2a5.94,5.94,0,0,0-1.45.58.55.55,0,1,0,.53,1Z"/><path class="cls-1" d="M13.1,5.51h0l.08.29a4.65,4.65,0,0,1,.45,1.07l.53-.15h-.55a.56.56,0,1,0,1.11,0h0l0-.15a5.63,5.63,0,0,0-.57-1.34l-.47.28h.55a.56.56,0,1,0-1.11,0Z"/><path class="cls-1" d="M11.26,13.12a5.24,5.24,0,0,1-1.53.67A.55.55,0,0,0,10,14.86a6.42,6.42,0,0,0,1.86-.8.56.56,0,0,0,.16-.77.55.55,0,0,0-.76-.17Z"/><path class="cls-1" d="M3.44,11a5.32,5.32,0,0,1-.53-1.41.54.54,0,0,0-.65-.42.55.55,0,0,0-.43.65,6.74,6.74,0,0,0,.63,1.71.55.55,0,0,0,.75.22A.56.56,0,0,0,3.44,11Z"/><path class="cls-1" d="M10.44,2.4,10,1.05A1.57,1.57,0,0,0,8.48,0H8.15A1.57,1.57,0,0,0,6.61,1.05h0l-.4,1.33.53.16V2h0a.55.55,0,0,0-.55.55.55.55,0,0,0,.55.55h0a.56.56,0,0,0,.53-.39l.4-1.34h0a.48.48,0,0,1,.48-.26h.33A.49.49,0,0,1,9,1.37l.41,1.35a.55.55,0,0,0,1.06-.32Z"/><path class="cls-1" d="M6.24,14.49l.37,1.21h0a1.57,1.57,0,0,0,1.54,1.05h.33A1.57,1.57,0,0,0,10,15.7h0l.36-1.21A.54.54,0,0,0,10,13.8a.55.55,0,0,0-.69.37L9,15.38H9a.49.49,0,0,1-.49.26H8.15a.48.48,0,0,1-.48-.26h0L7.3,14.17a.53.53,0,0,0-.68-.37.55.55,0,0,0-.38.69Z"/><path class="cls-1" d="M13.61,6.72h0a.55.55,0,0,0,.4.53l1.25.38h0a.5.5,0,0,1,.26.49v.33a.49.49,0,0,1-.26.49l-1.18.35a.56.56,0,0,0-.37.69.55.55,0,0,0,.69.37L15.58,10a1.59,1.59,0,0,0,1-1.55V8.12a1.57,1.57,0,0,0-1-1.54h0L14.32,6.2l-.16.53h.56a.56.56,0,0,0-1.11,0Z"/><path class="cls-1" d="M2.53,9.21,1.38,8.86h0a.48.48,0,0,1-.26-.48V8.05a.47.47,0,0,1,.27-.48l1.27-.38A.56.56,0,0,0,3,6.5a.54.54,0,0,0-.69-.37l-1.27.38A1.57,1.57,0,0,0,0,8.05v.33A1.55,1.55,0,0,0,1.07,9.92l.15-.53-.16.53,1.15.35A.55.55,0,0,0,2.9,9.9a.54.54,0,0,0-.37-.69Z"/><path class="cls-1" d="M2.45,11.05l-.71,1.4.5.25-.49-.26a1.3,1.3,0,0,0-.15.63,1.7,1.7,0,0,0,.54,1.21h0l.24.22h0A1.73,1.73,0,0,0,3.53,15a1.37,1.37,0,0,0,.68-.17h0l1.21-.69a.55.55,0,1,0-.54-1l-1.22.68.28.49-.27-.49-.15,0a.58.58,0,0,1-.39-.18h0l-.24-.23h0a.61.61,0,0,1-.2-.41l0-.11h0l.71-1.4a.56.56,0,0,0-.24-.75.54.54,0,0,0-.74.25Z"/><path class="cls-1" d="M14.21,5.51h-.55l.49.25L15,4.14h0a1.51,1.51,0,0,0,.14-.62,1.73,1.73,0,0,0-.54-1.2h0l-.23-.22h0a1.69,1.69,0,0,0-1.15-.47,1.41,1.41,0,0,0-.69.17h0L11,2.63a.55.55,0,0,0-.2.75.55.55,0,0,0,.75.21L13,2.74l-.27-.48.26.49.16,0a.64.64,0,0,1,.39.17h0l.23.23h0a.61.61,0,0,1,.19.4l0,.14.5.24L14,3.64l-.82,1.61-.06.26h0a.56.56,0,1,0,1.11,0Z"/><path class="cls-1" d="M3.47,5.27,2.6,3.55l-.5.25.5-.24,0-.13A.59.59,0,0,1,2.76,3h0L3,2.8H3a.58.58,0,0,1,.39-.17l.16,0,.26-.48-.27.48,1.59.91a.56.56,0,0,0,.55-1L4.09,1.7h0a1.53,1.53,0,0,0-.69-.17A1.66,1.66,0,0,0,2.24,2h0L2,2.23H2a1.65,1.65,0,0,0-.53,1.2,1.25,1.25,0,0,0,.14.62h0l.87,1.72a.55.55,0,1,0,1-.5Z"/><path class="cls-1" d="M13.28,11.38,14.07,13h0l0,.12a.61.61,0,0,1-.19.41h0l-.24.23h0a.58.58,0,0,1-.39.18l-.15,0-.27.49.28-.49-1.3-.73a.55.55,0,0,0-.75.21.55.55,0,0,0,.2.75l1.3.74h0a1.37,1.37,0,0,0,.68.17,1.73,1.73,0,0,0,1.16-.47h0l.24-.22h0a1.68,1.68,0,0,0,.53-1.21,1.37,1.37,0,0,0-.14-.62h0l-.79-1.56a.55.55,0,1,0-1,.49Z"/><path class="cls-1" d="M10.84,8.47h-.55A2.15,2.15,0,1,1,8.14,6.32a2.15,2.15,0,0,1,2.15,2.15H11.4a3.26,3.26,0,1,0-3.26,3.26A3.26,3.26,0,0,0,11.4,8.47Z"/></g></g></svg>