<svg xmlns="http://www.w3.org/2000/svg" viewBox="0 0 15.01 16.75"><g id="Calque_2" data-name="Calque 2"><g id="Calque_2-2" data-name="Calque 2"><path d="M7.51,16.17l.22-.53c-4.05-1.7-6.57-5.23-6.57-9.06V2.89c0-.17.14-.39.46-.47L7.33,1.18l.18,0,.17,0,5.71,1.24a.55.55,0,0,1,.47.47V6.58c0,3.83-2.53,7.36-6.58,9.06l.23.53.22-.53-.22.53.22.54C12.15,14.87,15,10.94,15,6.58V2.89a1.67,1.67,0,0,0-1.37-1.6L7.93.05a1.79,1.79,0,0,0-.84,0L1.37,1.29A1.67,1.67,0,0,0,0,2.89V6.58c0,4.36,2.87,8.29,7.28,10.13a.58.58,0,0,0,.45,0Z"/></g></g></svg>