<svg xmlns="http://www.w3.org/2000/svg" viewBox="0 0 18.78 16.75"><defs><style>.cls-1{fill:#1d1d1b;}</style></defs><g id="Calque_2" data-name="Calque 2"><g id="Calque_2-2" data-name="Calque 2"><path class="cls-1" d="M5,4.31a6.78,6.78,0,0,0-3.58,1,3.25,3.25,0,0,0-1,1.34A4.8,4.8,0,0,0,0,8.54v.07l.67,0H0a3.86,3.86,0,0,0,.29,1.53,3.18,3.18,0,0,0,1.65,1.64,8.64,8.64,0,0,0,3,.68.67.67,0,0,0,.72-.62.66.66,0,0,0-.62-.72,5.89,5.89,0,0,1-3-.83,1.73,1.73,0,0,1-.53-.68,2.59,2.59,0,0,1-.17-1h0v0a3.3,3.3,0,0,1,.23-1.36,2,2,0,0,1,1.1-1.06,7.36,7.36,0,0,1,2.37-.47A.67.67,0,0,0,5,4.31Z"/><path class="cls-1" d="M4.39,12.06a8.35,8.35,0,0,0,7,4.69.67.67,0,0,0,.08-1.34,7,7,0,0,1-5.84-3.93.68.68,0,0,0-1.22.58Z"/><path class="cls-1" d="M5.62,5.27a7,7,0,0,1,5.83-3.92.69.69,0,0,0,.63-.72A.67.67,0,0,0,11.37,0a8.32,8.32,0,0,0-7,4.69.68.68,0,0,0,.32.9.67.67,0,0,0,.9-.32Z"/><path class="cls-1" d="M10.73.67V16.08a.68.68,0,0,0,.68.67.67.67,0,0,0,.67-.67V.67A.67.67,0,0,0,11.41,0a.68.68,0,0,0-.68.67Z"/><path d="M14.44,11A3.88,3.88,0,0,0,13.7,5.6a.68.68,0,0,0-.95.12.69.69,0,0,0,.13,1,2.51,2.51,0,0,1,1,2,2.56,2.56,0,0,1-.51,1.53.67.67,0,0,0,.12.94.68.68,0,0,0,.95-.12Z"/><path d="M16.88,12.51a5.83,5.83,0,0,0,.39-8.22.67.67,0,1,0-1,.9,4.48,4.48,0,0,1-.3,6.32.67.67,0,1,0,.9,1Z"/></g></g></svg>