<svg xmlns="http://www.w3.org/2000/svg" viewBox="0 0 17.38 16.75"><g id="Calque_2" data-name="Calque 2"><g id="Calque_2-2" data-name="Calque 2"><path d="M10.11,1.52l-.57.29L10.8,4.36a2.22,2.22,0,0,0,1.67,1.22L15.29,6a.92.92,0,0,1,.59.33,1,1,0,0,1,.22.61.89.89,0,0,1-.29.67l-2,2a2.26,2.26,0,0,0-.67,1.6,2.53,2.53,0,0,0,0,.38l.49,2.8v.17a.91.91,0,0,1-.28.66.94.94,0,0,1-.66.28,1,1,0,0,1-.44-.11L9.73,14a2.26,2.26,0,0,0-1-.26,2.29,2.29,0,0,0-1,.26L5.14,15.36a1.1,1.1,0,0,1-.44.11A.91.91,0,0,1,4,15.19a.88.88,0,0,1-.29-.66l0-.17.48-2.81a2.31,2.31,0,0,0,0-.37,2.26,2.26,0,0,0-.67-1.6l-2-2A.94.94,0,0,1,1.5,6.32.92.92,0,0,1,2.09,6l2.82-.41A2.24,2.24,0,0,0,6.59,4.36L7.85,1.81a.92.92,0,0,1,.84-.53.94.94,0,0,1,.85.53l.57-.29.58-.28a2.23,2.23,0,0,0-4,0L5.44,3.79a1,1,0,0,1-.72.52l-2.81.41a2.15,2.15,0,0,0-1.4.79A2.23,2.23,0,0,0,0,6.93,2.25,2.25,0,0,0,.67,8.52l2,2a.94.94,0,0,1,.29.68l0,.16-.48,2.8a2.56,2.56,0,0,0,0,.39A2.23,2.23,0,0,0,4.7,16.75a2.16,2.16,0,0,0,1-.26l2.52-1.32a.93.93,0,0,1,.88,0l2.52,1.32a2.17,2.17,0,0,0,1,.26,2.22,2.22,0,0,0,2.22-2.22,2.66,2.66,0,0,0,0-.39l-.48-2.8v-.16a1,1,0,0,1,.28-.68l2-2a2.21,2.21,0,0,0,.67-1.59,2.28,2.28,0,0,0-.5-1.42,2.18,2.18,0,0,0-1.4-.79l-2.82-.41A.93.93,0,0,1,12,3.79L10.69,1.24Z"/></g></g></svg>