<svg xmlns="http://www.w3.org/2000/svg" viewBox="0 0 16.81 16.75"><defs><style>.cls-1{fill:#1d1d1b;}</style></defs><g id="Calque_2" data-name="Calque 2"><g id="Calque_2-2" data-name="Calque 2"><path class="cls-1" d="M13.61,8.36h-.55a4.68,4.68,0,1,1-1.37-3.31,4.66,4.66,0,0,1,1.37,3.31h1.09a5.77,5.77,0,1,0-5.77,5.77,5.77,5.77,0,0,0,5.77-5.77Z"/><path class="cls-1" d="M7.79.54V1.91a.54.54,0,0,0,.54.54.55.55,0,0,0,.55-.54V.54a.54.54,0,1,0-1.08,0"/><path class="cls-1" d="M7.79,14.84v1.37a.54.54,0,0,0,.54.54.55.55,0,0,0,.55-.54V14.84a.54.54,0,0,0-1.08,0"/><path class="cls-1" d="M16.27,7.81H14.9a.54.54,0,1,0,0,1.08h1.37a.54.54,0,0,0,0-1.08"/><path class="cls-1" d="M14.4,13.71l-1-1a.54.54,0,0,0-.76,0,.53.53,0,0,0,0,.77l1,1a.54.54,0,0,0,.77-.77"/><path class="cls-1" d="M4,3.33l-1-1a.54.54,0,0,0-.77.77l1,1A.54.54,0,0,0,4,3.33"/><path class="cls-1" d="M13.48,2.17l-1,1a.54.54,0,1,0,.77.77l1-1a.54.54,0,1,0-.77-.77"/><path class="cls-1" d="M3.25,12.61l-1,1a.54.54,0,1,0,.77.77l1-1a.54.54,0,0,0-.77-.77"/><path class="cls-1" d="M.54,8.85H1.91a.54.54,0,0,0,.54-.54.55.55,0,0,0-.54-.55H.54A.55.55,0,0,0,0,8.31a.54.54,0,0,0,.54.54"/></g></g></svg>