<svg xmlns="http://www.w3.org/2000/svg" viewBox="0 0 16.75 16.75"><defs><style>.cls-1{fill:#1d1d1b;}.cls-2{fill:#1d1d1c;}</style></defs><g id="Calque_2" data-name="Calque 2"><g id="Calque_2-2" data-name="Calque 2"><path d="M4.11,4.2H10.9a.5.5,0,0,0,0-1H4.11a.5.5,0,0,0,0,1"/><path class="cls-1" d="M11.17,16.25v-.5H5.58A4.58,4.58,0,0,1,1,11.17V5.58A4.58,4.58,0,0,1,5.58,1h5.59a4.58,4.58,0,0,1,4.58,4.58v5.59a4.58,4.58,0,0,1-4.58,4.58v1a5.58,5.58,0,0,0,5.58-5.58V5.58A5.58,5.58,0,0,0,11.17,0H5.58A5.58,5.58,0,0,0,0,5.58v5.59a5.58,5.58,0,0,0,5.58,5.58h5.59Z"/><path d="M5.13,5.82A5.21,5.21,0,0,0,6.5,9.39a4.87,4.87,0,0,0,2.88,1.54.5.5,0,0,0,.12-1A3.81,3.81,0,0,1,7.24,8.71,4.15,4.15,0,0,1,6.13,5.82a.51.51,0,0,0-.5-.5.5.5,0,0,0-.5.5Z"/><path d="M8.7,4.22c0,.07,0,.16,0,.26a7.3,7.3,0,0,1-.16,1.58A5.46,5.46,0,0,1,7.33,8.47,9,9,0,0,1,5.1,10.13a.49.49,0,0,0-.18.68.51.51,0,0,0,.69.18A10,10,0,0,0,8.07,9.14,6.47,6.47,0,0,0,9.52,6.3a8.22,8.22,0,0,0,.19-1.82c0-.11,0-.21,0-.29a.5.5,0,1,0-1,0Z"/><path class="cls-1" d="M8,13.14A.24.24,0,0,1,7.74,13l0-.26,2-4.84a.27.27,0,0,1,.52,0l2.05,4.85,0,.25a.25.25,0,0,1-.23.13l-.15,0-.1-.13L9.92,8.35h.22L8.21,13l-.1.13Zm.46-1.29.21-.47h2.82l.2.47Z"/><path class="cls-2" d="M8,13.14v-.25H8v0l0,0H8v0l0,0H8L7.74,13,8,13l0-.2L10,8h0l0,0h0l0,0h0l2,4.79V13h.25l-.21-.13h0v.25l.07-.24-.08,0,0,0L10.15,8.25l-.23.1V8.6h.22V8.35l-.24-.1L8,12.84l0,0-.07,0,.06.24v0l.07.24.15,0,.08,0,.15-.19,0,0,2.08-5h-1l2.06,5,.13.16,0,.06.23.06h.06a.54.54,0,0,0,.44-.24l0-.06,0-.32v-.06l-2.07-4.9-.23.1.23-.1a.61.61,0,0,0-.18-.24.5.5,0,0,0-.31-.1.49.49,0,0,0-.3.1.53.53,0,0,0-.19.25l.23.09-.23-.1-2.06,4.9,0,.31v.05l0,0a.49.49,0,0,0,.45.27H8Zm.46-1.29.23.1.14-.32h2.49l.15.32.22-.1V11.6H8.42v.25l.23.1-.23-.1v.25H12l-.37-.82-.06-.15H8.47l-.28.62L8,12.1h.38Z"/></g></g></svg>