<svg xmlns="http://www.w3.org/2000/svg" xmlns:xlink="http://www.w3.org/1999/xlink" viewBox="0 0 603.93 315.21"><defs><style>.cls-1{fill:none;}.cls-2{clip-path:url(#clip-path);}.cls-3{fill:#ebebeb;}.cls-4{clip-path:url(#clip-path-2);}.cls-5{clip-path:url(#clip-path-3);}.cls-6{clip-path:url(#clip-path-4);}.cls-7{clip-path:url(#clip-path-5);}.cls-8{fill:#e0e0e0;}.cls-9{clip-path:url(#clip-path-6);}.cls-10{clip-path:url(#clip-path-7);}.cls-11{clip-path:url(#clip-path-8);}.cls-12{clip-path:url(#clip-path-9);}.cls-13{clip-path:url(#clip-path-10);}.cls-14{clip-path:url(#clip-path-11);}.cls-15{clip-path:url(#clip-path-12);}.cls-16{fill:#455a64;}.cls-17{clip-path:url(#clip-path-13);}.cls-18{clip-path:url(#clip-path-14);}.cls-19{clip-path:url(#clip-path-15);}.cls-20{fill:#263238;}.cls-21{clip-path:url(#clip-path-16);}.cls-22{clip-path:url(#clip-path-17);}.cls-23{clip-path:url(#clip-path-18);}.cls-24{clip-path:url(#clip-path-19);}.cls-25{clip-path:url(#clip-path-20);}.cls-26{fill:#ffc95e;}.cls-27{clip-path:url(#clip-path-21);}.cls-28{fill:#ff965e;}.cls-29{clip-path:url(#clip-path-22);}.cls-30{fill:#ff725e;}.cls-31{clip-path:url(#clip-path-23);}.cls-32{clip-path:url(#clip-path-24);}.cls-33{clip-path:url(#clip-path-25);}.cls-34{clip-path:url(#clip-path-26);}.cls-35{clip-path:url(#clip-path-27);}.cls-36{clip-path:url(#clip-path-28);}.cls-37{clip-path:url(#clip-path-29);}.cls-38{opacity:0.6;}.cls-38,.cls-67{isolation:isolate;}.cls-39{clip-path:url(#clip-path-30);}.cls-40{clip-path:url(#clip-path-31);}.cls-41{fill:#fff;}.cls-42{clip-path:url(#clip-path-33);}.cls-43{clip-path:url(#clip-path-34);}.cls-44{clip-path:url(#clip-path-35);}.cls-45{clip-path:url(#clip-path-36);}.cls-46{clip-path:url(#clip-path-37);}.cls-47{clip-path:url(#clip-path-38);}.cls-48{clip-path:url(#clip-path-39);}.cls-49{clip-path:url(#clip-path-40);}.cls-50{clip-path:url(#clip-path-41);}.cls-51{clip-path:url(#clip-path-42);}.cls-52{clip-path:url(#clip-path-43);}.cls-53{clip-path:url(#clip-path-44);}.cls-54{clip-path:url(#clip-path-45);}.cls-55{clip-path:url(#clip-path-46);}.cls-56{clip-path:url(#clip-path-47);}.cls-57{fill:#8d534d;}.cls-58{clip-path:url(#clip-path-48);}.cls-59{clip-path:url(#clip-path-49);}.cls-60{fill:#6f3730;}.cls-61{clip-path:url(#clip-path-50);}.cls-62{clip-path:url(#clip-path-51);}.cls-63{clip-path:url(#clip-path-52);}.cls-64{clip-path:url(#clip-path-53);}.cls-65{fill:#4200ff;}.cls-66{clip-path:url(#clip-path-54);}.cls-67{opacity:0.3;}.cls-68{clip-path:url(#clip-path-55);}.cls-69{clip-path:url(#clip-path-56);}.cls-70{clip-path:url(#clip-path-57);}.cls-71{clip-path:url(#clip-path-58);}.cls-72{clip-path:url(#clip-path-59);}.cls-73{clip-path:url(#clip-path-60);}.cls-74{clip-path:url(#clip-path-61);}.cls-75{clip-path:url(#clip-path-62);}.cls-76{clip-path:url(#clip-path-63);}.cls-77{clip-path:url(#clip-path-64);}.cls-78{clip-path:url(#clip-path-66);}.cls-79{clip-path:url(#clip-path-67);}.cls-80{clip-path:url(#clip-path-68);}.cls-81{clip-path:url(#clip-path-69);}.cls-82{clip-path:url(#clip-path-70);}.cls-83{clip-path:url(#clip-path-71);}.cls-84{clip-path:url(#clip-path-72);}.cls-85{clip-path:url(#clip-path-73);}.cls-86{clip-path:url(#clip-path-74);}.cls-87{clip-path:url(#clip-path-75);}.cls-88{clip-path:url(#clip-path-76);}.cls-89{clip-path:url(#clip-path-77);}.cls-90{clip-path:url(#clip-path-78);}.cls-91{clip-path:url(#clip-path-79);}.cls-92{clip-path:url(#clip-path-80);}.cls-93{clip-path:url(#clip-path-81);}.cls-94{clip-path:url(#clip-path-82);}.cls-95{clip-path:url(#clip-path-83);}.cls-96{clip-path:url(#clip-path-84);}.cls-97{clip-path:url(#clip-path-85);}.cls-98{clip-path:url(#clip-path-86);}.cls-99{clip-path:url(#clip-path-87);}.cls-100{clip-path:url(#clip-path-88);}.cls-101{clip-path:url(#clip-path-89);}.cls-102{clip-path:url(#clip-path-90);}.cls-103{clip-path:url(#clip-path-91);}.cls-104{clip-path:url(#clip-path-92);}.cls-105{clip-path:url(#clip-path-93);}.cls-106{clip-path:url(#clip-path-94);}.cls-107{clip-path:url(#clip-path-95);}</style><clipPath id="clip-path" transform="translate(5 5)"><path class="cls-1" d="M170.28,30.17c1.29-4-7.15-4.31-10.35-7a40,40,0,0,0-15.51-8.63c-5.79-1.51-12.18-1.14-17.37,1.76a4.27,4.27,0,0,1-2.06.79,4,4,0,0,1-1.67-.53c-3.61-1.83-5.29-4.33-8.35-7-1.08-.94-2.53-2.91-6-2.43-1.9.27-3,1.5-4.42,2.7-.88-3.93-4.65-6.46-8.3-8.15A13.78,13.78,0,0,0,90,0a15,15,0,0,0-5.43,1.59,33.06,33.06,0,0,0-9.4,5.81c-2.65,2.57-4.63,6-4.65,9.74a5.38,5.38,0,0,0-9.12,4c-1.76-3.27-6.32-4.33-9.71-2.86s-5.66,4.92-6.59,8.51A5.73,5.73,0,0,0,37.92,29c-2.5-3.28-7.46-3.95-11.27-2.34s-6.56,5-8.45,8.69c13.71,5.6,30.2,5.58,45,5.28s29.67-1.66,44.41-.11c4,.42,8.05,1.05,11.94.1,2-.47,3.8-1.33,5.71-1.94,6.78-2.17,14.08-1.18,21.15-.48C146.4,38.21,165.63,44.66,170.28,30.17Z"/></clipPath><clipPath id="clip-path-2" transform="translate(5 5)"><path class="cls-1" d="M21.18,210.15c6.42,3.65,12.09,6.34,14.18,12.78.79,2.4,1.15,5,2.47,7.13,1.92,3.11,5.67,5,6.9,8.45,1.46,4.05-1.13,8.8.59,12.75,1.36,3.12,5,4.72,6.51,7.76,2.08,4.2-.6,9.2-.14,13.85.33,3.38,2.28,6.32,3.53,9.46s2.25,7.83,0,10.34H44.56a6.13,6.13,0,0,0-.1-6c-1-1.69-2.47-3.19-3.08-5.08-1.13-3.57.94-7.45.37-11.16-.67-4.31-4.71-7.39-5.92-11.58-1.32-4.56.88-9.76-1.09-14.08-1.46-3.15-4.83-5-6.45-8.1-1.49-2.84-1.25-6.23-1.24-9.43C27.07,220.25,25.36,216.18,21.18,210.15Z"/></clipPath><clipPath id="clip-path-3" transform="translate(5 5)"><path class="cls-1" d="M61.63,292.67c4.41-2.77,7.06-9.62,5.35-14.52-1.07-3.1-3.53-6.17-2.44-9.29.76-2.21,3.12-3.58,3.86-5.79,1.42-4.26-3.77-8.08-3.79-12.56,0-4.1,4.21-7,4.94-11.1.45-2.48-.47-5-.78-7.45s.35-5.5,2.65-6.47c-2.11-1-4.74.14-6.18,2s-2,4.21-2.46,6.48-1,4.64-2.48,6.47c-2.12,2.64-6,4-6.92,7.31-1.24,4.64,4.66,9.18,3,13.7-1,2.76-4.41,4-5.66,6.65-2,4.29,2.71,9.09,1.86,13.73-.35,1.86-1.55,3.42-2.32,5.14s-1.07,4.36.25,5.72"/></clipPath><clipPath id="clip-path-4" transform="translate(5 5)"><path class="cls-1" d="M.85,256c.3,2.3,2.45,4,4.69,4.6s4.62.46,6.94.58,4.79.61,6.45,2.23c1.89,1.86,2.44,4.91,4.66,6.38,3.05,2,7.76,0,10.48,2.46s1.61,7.24,4.53,9.11c1.12.71,2.52.76,3.77,1.17,3.46,1.11,5.91,6.9,4.6,10.28l-11-.14c-2.65-.35-4.09-2.13-5.12-4.54s-2-5.14-4.23-6.46c-2.43-1.41-5.66-.77-8.09-2.19-4-2.34-3.72-8.8-7.65-11.3-2-1.23-4.52-1.09-6.65-2A7.46,7.46,0,0,1,.85,256Z"/></clipPath><clipPath id="clip-path-5" transform="translate(5 5)"><path class="cls-1" d="M49.78,292.3a3.16,3.16,0,0,1-.73-1,3.65,3.65,0,0,1,.44-3.31,13.06,13.06,0,0,1,1.52-1.9,11.79,11.79,0,0,0,1.76-2.27,5.09,5.09,0,0,0,.54-1.5,4.74,4.74,0,0,0-.06-1.68,10.87,10.87,0,0,0-1.46-3.1,17.34,17.34,0,0,1-1.59-2.9,7.08,7.08,0,0,1-.38-3,8.65,8.65,0,0,1,.64-2.64,9.67,9.67,0,0,1,1.36-2,33.22,33.22,0,0,1,2.4-2.64c.59-.59,1-.88.94-.88a5.22,5.22,0,0,0-1.06.79,23.61,23.61,0,0,0-2.54,2.56,9.45,9.45,0,0,0-1.45,2,8.48,8.48,0,0,0-.7,2.8,7.17,7.17,0,0,0,.37,3.18,17.61,17.61,0,0,0,1.62,3,10.27,10.27,0,0,1,1.41,2.95,3.91,3.91,0,0,1-.41,2.88c-.94,1.69-2.44,2.84-3.19,4.22a3.79,3.79,0,0,0-.32,3.52,2.16,2.16,0,0,0,.61.79A.72.72,0,0,0,49.78,292.3Z"/></clipPath><clipPath id="clip-path-6" transform="translate(5 5)"><path class="cls-1" d="M68.11,226.22a3.36,3.36,0,0,0-.56.51,5.39,5.39,0,0,0-1.09,1.88A11,11,0,0,0,66,232c0,1.36.22,2.87.26,4.54A8.32,8.32,0,0,1,65,241.7a8,8,0,0,1-2.3,1.88,10.51,10.51,0,0,0-2.64,2,4.88,4.88,0,0,0-1.12,3.31,9.53,9.53,0,0,0,.82,3.52,24,24,0,0,0,1.76,3.28,20.18,20.18,0,0,1,1.7,3.34,6.65,6.65,0,0,1,.42,3.61A6.93,6.93,0,0,1,62,265.76c-.77.88-1.65,1.72-2.42,2.64a7.54,7.54,0,0,0-1.76,3,6.1,6.1,0,0,0,.06,3.31,27.27,27.27,0,0,0,1,2.92,18,18,0,0,1,.89,2.69A14,14,0,0,1,60,282.9a12.66,12.66,0,0,1-2.55,7.34,17.93,17.93,0,0,1-2,2.11,4.35,4.35,0,0,0,.61-.45,11.14,11.14,0,0,0,1.51-1.56,12.5,12.5,0,0,0,2.73-7.43,13,13,0,0,0-.21-2.64,16.83,16.83,0,0,0-.88-2.77,23.7,23.7,0,0,1-1-2.87,5.83,5.83,0,0,1,0-3.1,7.28,7.28,0,0,1,1.68-2.83c.76-.88,1.64-1.67,2.44-2.64a7.55,7.55,0,0,0,1.77-3.32,7.18,7.18,0,0,0-.44-3.86c-.89-2.46-2.57-4.4-3.47-6.64a9.09,9.09,0,0,1-.8-3.36,4.45,4.45,0,0,1,1-3c1.39-1.63,3.68-2.21,4.91-3.93a6.36,6.36,0,0,0,1.09-2.71,12.25,12.25,0,0,0,.16-2.64c-.06-1.7-.32-3.19-.32-4.52a10.6,10.6,0,0,1,.4-3.36A6.15,6.15,0,0,1,68.11,226.22Z"/></clipPath><clipPath id="clip-path-7" transform="translate(5 5)"><path class="cls-1" d="M26.54,217.7a7.33,7.33,0,0,1,2.05,2.41,12.51,12.51,0,0,1,1.19,3.52c.3,1.44.39,3.11.67,5a11.41,11.41,0,0,0,2.18,5.68c1.39,1.76,3.53,2.94,5,4.78a9,9,0,0,1,1.68,3.24,20.53,20.53,0,0,1,.66,3.81c.26,2.64.28,5.49,1.47,8.15s3.41,4.51,4.74,6.76a6.8,6.8,0,0,1,1.07,3.61,13.88,13.88,0,0,1-.79,3.6,10.09,10.09,0,0,0-.62,3.57,11.24,11.24,0,0,0,.79,3.33c.37,1,.77,2,1,3a8.12,8.12,0,0,1,.24,2.82,27.62,27.62,0,0,1-1.07,4.85,16.85,16.85,0,0,0-.7,3.72,6.88,6.88,0,0,0,.32,2.38l.25.57c.06.13.09.19.1.18a.73.73,0,0,0,0-.2l-.21-.58a6.84,6.84,0,0,1-.23-2.34,17.51,17.51,0,0,1,.76-3.66,26.53,26.53,0,0,0,1.15-4.89A8.55,8.55,0,0,0,48,278a31,31,0,0,0-1-3,11.59,11.59,0,0,1-.75-3.23,9.82,9.82,0,0,1,.62-3.43,13.46,13.46,0,0,0,.82-3.72,7.23,7.23,0,0,0-1.11-3.83c-1.39-2.35-3.53-4.19-4.71-6.73s-1.18-5.35-1.44-8a21.38,21.38,0,0,0-.69-3.9A9.22,9.22,0,0,0,38,238.77c-1.64-1.91-3.72-3.09-5.07-4.76a11.2,11.2,0,0,1-2.16-5.48c-.29-1.82-.4-3.53-.73-4.95A12.3,12.3,0,0,0,28.76,220a7.31,7.31,0,0,0-1.54-1.83A3.49,3.49,0,0,0,26.54,217.7Z"/></clipPath><clipPath id="clip-path-8" transform="translate(5 5)"><path class="cls-1" d="M5.43,261.62a1.55,1.55,0,0,0,.1.52,3.12,3.12,0,0,0,.89,1.29,5.48,5.48,0,0,0,2.12,1.18,11.48,11.48,0,0,0,3.18.51,11.68,11.68,0,0,1,3.75.64,5.41,5.41,0,0,1,2.85,3.05c.64,1.4,1,3,1.67,4.6a8.23,8.23,0,0,0,1.45,2.23A4.21,4.21,0,0,0,23.88,277c1.91.26,3.62-.53,5.3-.42a4.61,4.61,0,0,1,3.69,2.55,19.84,19.84,0,0,1,1.59,4.08,10.42,10.42,0,0,0,1.77,3.52,8,8,0,0,0,4.85,2.76,6.52,6.52,0,0,0,1.53.08,1.89,1.89,0,0,0,.53-.08,12.67,12.67,0,0,1-2-.17,8,8,0,0,1-4.62-2.8,10.3,10.3,0,0,1-1.64-3.4,19.57,19.57,0,0,0-1.59-4.18,6.43,6.43,0,0,0-1.6-1.88,4.22,4.22,0,0,0-2.43-.88c-1.77-.1-3.53.68-5.22.42a3.8,3.8,0,0,1-2.18-1.18,7.44,7.44,0,0,1-1.46-2.15c-.69-1.52-1-3.16-1.7-4.6a5.79,5.79,0,0,0-3.1-3.22,11.78,11.78,0,0,0-3.86-.62,12.15,12.15,0,0,1-3.12-.41,5.54,5.54,0,0,1-2.08-1.09A3.5,3.5,0,0,1,5.43,261.62Z"/></clipPath><clipPath id="clip-path-9" transform="translate(5 5)"><path class="cls-1" d="M42.62,270.94a3.1,3.1,0,0,0-.37.88,19.87,19.87,0,0,0-.7,2.51,26.73,26.73,0,0,0,.58,13.29,11.23,11.23,0,0,0,1.65,3.52,4.84,4.84,0,0,0,2,1.7,3.26,3.26,0,0,0,.69.22h.25a9.33,9.33,0,0,1-.88-.39A5.29,5.29,0,0,1,44,290.9a11.49,11.49,0,0,1-1.51-3.46,29.21,29.21,0,0,1-.66-13.11C42.25,272.25,42.7,271,42.62,270.94Z"/></clipPath><clipPath id="clip-path-10" transform="translate(5 5)"><path class="cls-1" d="M295.79,94.23c1.06-3.3-5.9-3.52-8.53-5.81a32.93,32.93,0,0,0-12.78-7.09,19.34,19.34,0,0,0-14.31,1.47,3.58,3.58,0,0,1-1.69.65A3.2,3.2,0,0,1,257.1,83c-3-1.51-4.35-3.57-6.87-5.74-.89-.78-2.1-2.41-5-2-1.57.22-2.44,1.23-3.67,2.23-.7-3.24-3.83-5.29-6.84-6.72a11.2,11.2,0,0,0-5.16-1.38,12,12,0,0,0-4.42,1.29,27.13,27.13,0,0,0-7.74,4.78,11.58,11.58,0,0,0-3.84,8,4.41,4.41,0,0,0-7.5,3.27c-1.44-2.69-5.21-3.57-8-2.35s-4.66,4-5.42,7a4.73,4.73,0,0,0-5.95,1.88c-2.06-2.7-6.18-3.26-9.28-1.94s-5.41,4.15-7,7.16c11.29,4.61,24.88,4.6,37.08,4.35s24.44-1.38,36.57-.1c3.28.35,6.64.88,9.84.09,1.62-.4,3.14-1.1,4.72-1.6,5.57-1.76,11.59-1,17.41-.4C276.07,100.85,291.91,106.16,295.79,94.23Z"/></clipPath><clipPath id="clip-path-11" transform="translate(5 5)"><path class="cls-1" d="M593.8,49.18c1.29-4-7.15-4.31-10.36-7a39.45,39.45,0,0,0-15.5-8.62c-5.79-1.51-12.18-1.15-17.37,1.76a4.35,4.35,0,0,1-2.05.77,3.8,3.8,0,0,1-1.67-.52c-3.62-1.83-5.3-4.34-8.35-7-1.09-.94-2.53-2.91-6-2.43-1.89.27-3,1.5-4.41,2.7-.88-3.92-4.65-6.45-8.3-8.16A13.9,13.9,0,0,0,513.56,19a14.56,14.56,0,0,0-5.4,1.57,32.46,32.46,0,0,0-9.39,5.82c-2.65,2.55-4.65,6-4.67,9.68a5.38,5.38,0,0,0-9.11,4c-1.77-3.27-6.33-4.34-9.71-2.86s-5.66,4.91-6.59,8.5A5.72,5.72,0,0,0,461.47,48C459,44.69,454,44,450.2,45.62s-6.56,5-8.45,8.69c13.71,5.59,30.21,5.58,45,5.28s29.67-1.68,44.4-.12c4,.43,8.05,1.05,12,.11,2-.48,3.79-1.34,5.72-2,6.76-2.15,14.07-1.17,21.14-.47C569.93,57.21,589.15,63.66,593.8,49.18Z"/></clipPath><clipPath id="clip-path-12" transform="translate(5 5)"><path class="cls-1" d="M546.58,215.46c-6.47,3.62-12.2,6.29-14.31,12.68-.78,2.38-1.14,4.94-2.48,7.07-1.93,3.1-5.71,5-7,8.39-1.46,4,1.15,8.74-.59,12.66-1.37,3.08-5,4.67-6.57,7.7-2.1,4.16.62,9.12.14,13.74-.33,3.34-2.3,6.27-3.56,9.38s-2.28,7.78,0,10.26H523a6,6,0,0,1,.09-6c1-1.68,2.49-3.17,3.1-5.05,1.16-3.53-.94-7.39-.36-11.06.66-4.28,4.74-7.34,6-11.49,1.33-4.53-.89-9.69,1.1-14,1.46-3.12,4.87-5,6.49-8,1.51-2.81,1.27-6.18,1.26-9.36C540.64,225.48,542.35,221.44,546.58,215.46Z"/></clipPath><clipPath id="clip-path-13" transform="translate(5 5)"><path class="cls-1" d="M505.79,297.34c-4.45-2.74-7.12-9.53-5.4-14.41,1.09-3.07,3.56-6.11,2.46-9.22-.76-2.19-3.14-3.54-3.89-5.74-1.43-4.22,3.8-8,3.83-12.46,0-4.07-4.25-7-5-11-.45-2.46.48-4.92.79-7.39s-.36-5.46-2.67-6.41c2.12-1,4.78.13,6.23,1.95s2,4.18,2.47,6.43,1.05,4.62,2.51,6.42c2.14,2.63,6.08,4,7,7.26,1.27,4.6-4.69,9.11-3,13.59,1,2.74,4.45,4,5.72,6.61,2,4.25-2.75,9-1.88,13.62.35,1.84,1.56,3.39,2.34,5.11s1.07,4.31-.25,5.66"/></clipPath><clipPath id="clip-path-14" transform="translate(5 5)"><path class="cls-1" d="M567.09,261c-.3,2.29-2.47,3.95-4.73,4.57s-4.66.46-7,.58-4.83.6-6.51,2.21c-1.91,1.84-2.47,4.86-4.7,6.32-3.07,2-7.82,0-10.56,2.46-2.6,2.29-1.63,7.17-4.57,9-1.13.71-2.54.75-3.81,1.15-3.49,1.11-6,6.85-4.63,10.21l11.09-.14c2.67-.35,4.12-2.12,5.15-4.51s2-5.09,4.28-6.4c2.45-1.41,5.71-.77,8.16-2.18,4-2.31,3.74-8.74,7.7-11.21,2-1.22,4.56-1.08,6.72-2a7.44,7.44,0,0,0,3.88-4.34A7.32,7.32,0,0,0,567.09,261Z"/></clipPath><clipPath id="clip-path-15" transform="translate(5 5)"><path class="cls-1" d="M517.74,297a3.15,3.15,0,0,0,.74-1,3.59,3.59,0,0,0-.44-3.27,12.65,12.65,0,0,0-1.53-1.89,11.68,11.68,0,0,1-1.78-2.25,4.52,4.52,0,0,1-.55-1.5,4.42,4.42,0,0,1,.07-1.66,10.06,10.06,0,0,1,1.47-3.06,19,19,0,0,0,1.6-2.9,6.78,6.78,0,0,0,.37-3,7.93,7.93,0,0,0-.64-2.62,8.93,8.93,0,0,0-1.36-2,31.68,31.68,0,0,0-2.42-2.62c-.33-.29-.65-.6-.95-.92a5.54,5.54,0,0,1,1.07.78,25.48,25.48,0,0,1,2.55,2.54,8.92,8.92,0,0,1,1.47,2,8.64,8.64,0,0,1,.71,2.77,7.36,7.36,0,0,1-.37,3.16,18.67,18.67,0,0,1-1.64,3,9.94,9.94,0,0,0-1.42,2.93,4.14,4.14,0,0,0-.07,1.49,4.09,4.09,0,0,0,.48,1.36c.95,1.68,2.47,2.82,3.22,4.19a3.68,3.68,0,0,1,.32,3.49,2.24,2.24,0,0,1-.61.79A.64.64,0,0,1,517.74,297Z"/></clipPath><clipPath id="clip-path-16" transform="translate(5 5)"><path class="cls-1" d="M499.25,231.4a3.46,3.46,0,0,1,.57.51,5.28,5.28,0,0,1,1.1,1.87,10.24,10.24,0,0,1,.49,3.39c0,1.33-.21,2.84-.25,4.49a6.46,6.46,0,0,0,3.56,7,10.8,10.8,0,0,1,2.67,2,4.84,4.84,0,0,1,1.12,3.29,9.19,9.19,0,0,1-.82,3.49,22.27,22.27,0,0,1-1.78,3.25,20.48,20.48,0,0,0-1.7,3.33,6.45,6.45,0,0,0-.42,3.58,6.89,6.89,0,0,0,1.68,3.09c.78.87,1.66,1.7,2.44,2.62a7.83,7.83,0,0,1,1.78,3,6.29,6.29,0,0,1-.06,3.28,27.05,27.05,0,0,1-1,2.9,16.4,16.4,0,0,0-.89,2.67,12.36,12.36,0,0,0-.24,2.57,12.52,12.52,0,0,0,2.57,7.27,16.87,16.87,0,0,0,2.05,2.09,3.26,3.26,0,0,1-.61-.44,10.26,10.26,0,0,1-1.54-1.55,12.37,12.37,0,0,1-2.75-7.37,12.76,12.76,0,0,1,.21-2.62,18.77,18.77,0,0,1,.89-2.75,23.92,23.92,0,0,0,1-2.84,5.66,5.66,0,0,0,0-3.08,7,7,0,0,0-1.7-2.8c-.75-.88-1.63-1.67-2.44-2.63a7.23,7.23,0,0,1-1.79-3.29,7,7,0,0,1,.44-3.82c.89-2.45,2.6-4.37,3.51-6.59a9.24,9.24,0,0,0,.8-3.34,4.52,4.52,0,0,0-1-3c-1.41-1.61-3.73-2.19-4.95-3.9a6.34,6.34,0,0,1-1.12-2.68,12.81,12.81,0,0,1-.15-2.62c.06-1.68.32-3.18.32-4.5a10.09,10.09,0,0,0-.41-3.32A6,6,0,0,0,499.25,231.4Z"/></clipPath><clipPath id="clip-path-17" transform="translate(5 5)"><path class="cls-1" d="M541.19,222.94a7.45,7.45,0,0,0-2.07,2.4,12.14,12.14,0,0,0-1.2,3.49c-.3,1.43-.39,3.09-.67,4.91a11.11,11.11,0,0,1-2.2,5.62c-1.4,1.75-3.51,2.93-5.08,4.75a8.65,8.65,0,0,0-1.7,3.21,19.45,19.45,0,0,0-.67,3.78c-.27,2.62-.28,5.45-1.48,8.09s-3.44,4.48-4.79,6.71a6.6,6.6,0,0,0-1.06,3.58,12.57,12.57,0,0,0,.8,3.57,10.24,10.24,0,0,1,.61,3.55,11.46,11.46,0,0,1-.8,3.3,31,31,0,0,0-1,2.94,8.08,8.08,0,0,0-.24,2.81,27.08,27.08,0,0,0,1.07,4.8,16.14,16.14,0,0,1,.71,3.7,6.74,6.74,0,0,1-.32,2.36l-.25.57-.1.19a.54.54,0,0,1,0-.21l.22-.58a7.47,7.47,0,0,0,.22-2.31,17.59,17.59,0,0,0-.78-3.65,26.84,26.84,0,0,1-1.15-4.84,8.21,8.21,0,0,1,.23-2.92,30.65,30.65,0,0,1,1-3,11.07,11.07,0,0,0,.76-3.2,9.71,9.71,0,0,0-.62-3.41,13,13,0,0,1-.84-3.68,7.06,7.06,0,0,1,1.12-3.81c1.4-2.32,3.56-4.16,4.76-6.68s1.18-5.31,1.46-7.94a20.24,20.24,0,0,1,.68-3.87,9.63,9.63,0,0,1,1.78-3.36c1.66-1.88,3.76-3.05,5.12-4.71a10.78,10.78,0,0,0,2.16-5.45c.3-1.8.42-3.49.74-4.91a12.45,12.45,0,0,1,1.3-3.49,6.8,6.8,0,0,1,1.54-1.84A3.75,3.75,0,0,1,541.19,222.94Z"/></clipPath><clipPath id="clip-path-18" transform="translate(5 5)"><path class="cls-1" d="M562.47,266.53a1.86,1.86,0,0,1-.11.52,3,3,0,0,1-.89,1.27,5.72,5.72,0,0,1-2.14,1.19,12.55,12.55,0,0,1-3.21.49,12,12,0,0,0-3.77.64,5.43,5.43,0,0,0-2.88,3c-.65,1.39-1,3-1.69,4.57a8.08,8.08,0,0,1-1.42,2.19,4.4,4.4,0,0,1-2.46,1.31c-1.93.26-3.66-.53-5.34-.42a4.66,4.66,0,0,0-3.73,2.53,19.62,19.62,0,0,0-1.6,4.05,10.31,10.31,0,0,1-1.78,3.49,8,8,0,0,1-4.88,2.74,6.69,6.69,0,0,1-1.55.08,2,2,0,0,1-.54-.08,12.7,12.7,0,0,0,2-.17,8.05,8.05,0,0,0,4.67-2.77,10,10,0,0,0,1.65-3.38,18.61,18.61,0,0,1,1.61-4.14,6.14,6.14,0,0,1,1.61-1.87,4.32,4.32,0,0,1,2.45-.88c1.78-.09,3.56.68,5.27.42a3.87,3.87,0,0,0,2.19-1.17,7.3,7.3,0,0,0,1.38-2.09c.7-1.5,1-3.12,1.71-4.56a5.78,5.78,0,0,1,3.12-3.19,12.29,12.29,0,0,1,3.9-.62,12,12,0,0,0,3.15-.41,5.66,5.66,0,0,0,2.1-1.07A3.67,3.67,0,0,0,562.47,266.53Z"/></clipPath><clipPath id="clip-path-19" transform="translate(5 5)"><path class="cls-1" d="M525,275.78a4.46,4.46,0,0,1,.37.87,19.83,19.83,0,0,1,.69,2.51,25.79,25.79,0,0,1,.41,8.54,27,27,0,0,1-1,4.63,11.18,11.18,0,0,1-1.67,3.5,5.09,5.09,0,0,1-2,1.69,2.75,2.75,0,0,1-.69.21h-.25a7.63,7.63,0,0,0,.89-.39,5.32,5.32,0,0,0,1.84-1.75,11.57,11.57,0,0,0,1.52-3.45,27.25,27.25,0,0,0,.94-4.57,29.05,29.05,0,0,0-.27-8.43C525.34,277.08,524.89,275.8,525,275.78Z"/></clipPath><clipPath id="clip-path-20" transform="translate(5 5)"><path class="cls-1" d="M478.5,168.7c-5.17-.51-10.53-1.24-15.49.35-1.4.45-2.74,1.09-4.18,1.44-2.85.69-5.83.22-8.74-.08-10.79-1.15-21.67-.15-32.51.08s-22.93.24-33-3.87c1.39-2.7,3.41-5.21,6.19-6.38s6.41-.68,8.25,1.72a4.2,4.2,0,0,1,5.3-1.67,9.11,9.11,0,0,1,4.83-6.25c2.5-1.09,5.84-.3,7.12,2.1a3.93,3.93,0,0,1,6.67-2.9,10.35,10.35,0,0,1,3.41-7.16,24.26,24.26,0,0,1,6.88-4.27,11,11,0,0,1,4-1.15,10.2,10.2,0,0,1,4.52,1.21c2.65,1.26,5.45,3.12,6.08,6,1.08-.89,1.86-1.77,3.25-2,2.57-.36,3.63,1.09,4.42,1.77,2.24,1.93,3.47,3.77,6.11,5.12a2.77,2.77,0,0,0,1.23.38,3.24,3.24,0,0,0,1.5-.57,16.1,16.1,0,0,1,8.73-1.94,97.11,97.11,0,0,0-170.87,24,7.66,7.66,0,0,1,1.07-1.27,15.14,15.14,0,0,1,4.41-2.73,7,7,0,0,1,2.53-.73,6.45,6.45,0,0,1,2.88.77c1.72.8,3.48,2,3.89,3.83a4.17,4.17,0,0,1,2.08-1.27,3.07,3.07,0,0,1,2.82,1.14c1.44,1.24,2.22,2.42,3.91,3.27a1.67,1.67,0,0,0,.78.25,2,2,0,0,0,1-.36,10.92,10.92,0,0,1,8.12-.88,18.62,18.62,0,0,1,7.25,4c1.5,1.29,2.95,2.77,4.85,3.31,2.71.77,5.66-.59,8.39.08-5.3,4.21-12.78,4.36-19.56,3.69-3.31-.33-6.73-.79-9.89.23-.88.28-1.77.69-2.65.88a16.4,16.4,0,0,1-5.59,0c-6.65-.71-13.35-.14-20,0a98.71,98.71,0,0,0-1.64,17.91H490.94A96.83,96.83,0,0,0,483.31,169C481.73,169,480.09,168.86,478.5,168.7Z"/></clipPath><clipPath id="clip-path-21" transform="translate(5 5)"><path class="cls-1" d="M428.47,105.73l-.39-.11-1.1-.37c-1-.32-2.4-.88-4.28-1.4A112.25,112.25,0,0,0,406.62,100c-1.72-.27-3.53-.56-5.42-.74s-3.87-.35-5.92-.49a98.57,98.57,0,0,0-27.38,2.35,84.9,84.9,0,0,0-14.77,4.71c-2.49,1-4.81,2.21-7.14,3.35a64.26,64.26,0,0,0-6.65,3.82,122.77,122.77,0,0,0-11.86,8.28,106.1,106.1,0,0,0-17.33,17.28l-1.61,2c-.49.68-.93,1.36-1.37,2a39.36,39.36,0,0,0-2.4,3.74c-.64,1.23-1.36,2.31-1.9,3.36l-1.38,2.95-.58,1.25-.4,1.14-.65,1.77-.39,1.1-.16.37a1,1,0,0,1,.11-.38c.12-.25.2-.65.35-1.12s.37-1.1.61-1.81l.38-1.16.57-1.26c.4-.89.88-1.89,1.34-3s1.2-2.18,1.88-3.4,1.51-2.45,2.37-3.76c.45-.66.89-1.35,1.37-2s1-1.34,1.57-2A105.21,105.21,0,0,1,327.18,121a121.05,121.05,0,0,1,11.9-8.35c2.11-1.37,4.42-2.56,6.66-3.83a58.22,58.22,0,0,1,7.17-3.37,85.53,85.53,0,0,1,14.85-4.73,98.85,98.85,0,0,1,27.51-2.3c2.05.16,4,.28,5.93.53s3.71.5,5.44.77a107.3,107.3,0,0,1,16.08,4c1.87.58,3.28,1.14,4.25,1.49l1.1.4Z"/></clipPath><clipPath id="clip-path-22" transform="translate(5 5)"><path class="cls-1" d="M457.27,115.34a14,14,0,0,1-2.18-1c-1.33-.68-3.17-1.59-5.22-2.54s-3.94-1.77-5.31-2.33a13.92,13.92,0,0,1-2.19-1,11.68,11.68,0,0,1,2.32.69c1.4.51,3.32,1.27,5.39,2.22s3.89,1.92,5.19,2.65A11.59,11.59,0,0,1,457.27,115.34Z"/></clipPath><clipPath id="clip-path-23" transform="translate(5 5)"><path class="cls-1" d="M500.33,200.33a3.16,3.16,0,0,1-.08-.92c0-.71,0-1.55-.05-2.52,0-2.25-.1-5.13-.16-8.32s-.2-6.08-.27-8.32c0-1,0-1.83-.08-2.53a3.62,3.62,0,0,1,0-.93,4.38,4.38,0,0,1,.15.88c.07.6.15,1.45.22,2.52.16,2.12.31,5.07.4,8.32s.07,6.19,0,8.34c0,1.07-.06,1.93-.09,2.53A4.3,4.3,0,0,1,500.33,200.33Z"/></clipPath><clipPath id="clip-path-24" transform="translate(5 5)"><path class="cls-1" d="M387.44,87.11a.67.67,0,0,1-.2,0l-.59.07-2.27.22-1.63.16-1.95.25c-1.38.19-3,.36-4.72.7l-2.73.47c-1,.16-1.92.4-2.94.61-2,.4-4.19,1-6.45,1.56a118.46,118.46,0,0,0-28,11.66c-2,1.2-3.93,2.29-5.66,3.45-.89.58-1.73,1.1-2.51,1.65l-2.27,1.6c-1.47,1-2.71,2-3.83,2.84l-1.55,1.2-1.27,1L317.08,116l-.47.37c-.11.08-.16.12-.17.11l.14-.14L317,116l1.72-1.5c.37-.34.78-.69,1.24-1.09s1-.79,1.53-1.23c1.11-.89,2.34-1.89,3.79-2.91l2.27-1.63c.78-.55,1.64-1.08,2.5-1.67,1.73-1.17,3.65-2.29,5.67-3.53a116.54,116.54,0,0,1,28.12-11.62c2.28-.58,4.42-1.14,6.48-1.53,1-.2,2-.43,2.95-.59l2.75-.45c1.77-.31,3.35-.45,4.75-.62l1.94-.22,1.64-.11,2.28-.14h.6A.65.65,0,0,1,387.44,87.11Z"/></clipPath><clipPath id="clip-path-25" transform="translate(5 5)"><path class="cls-1" d="M451.87,216.06c0,.13-26.51.23-59.24.23s-59.26-.1-59.26-.23,26.51-.23,59.26-.23S451.87,215.93,451.87,216.06Z"/></clipPath><clipPath id="clip-path-26" transform="translate(5 5)"><path class="cls-1" d="M419.5,223.39c0,.14-12.85.23-28.71.23s-28.71-.09-28.71-.23,12.85-.23,28.71-.23S419.5,223.27,419.5,223.39Z"/></clipPath><clipPath id="clip-path-27" transform="translate(5 5)"><path class="cls-1" d="M409.11,231.34c0,.12-6,.23-13.44.23s-13.44-.11-13.44-.23,6-.23,13.44-.23S409.11,231.22,409.11,231.34Z"/></clipPath><clipPath id="clip-path-28" transform="translate(5 5)"><path class="cls-1" d="M567.43,205.62c0,.08-123.7.13-276.25.13s-276.27-.05-276.27-.13,123.67-.13,276.27-.13S567.43,205.55,567.43,205.62Z"/></clipPath><clipPath id="clip-path-29" transform="translate(5 5)"><path class="cls-1" d="M256.2,262.19l21.66,40.24,50-26.81c-2.85-4.63-33.84-.4-33.84-.4L281.2,248.87Z"/></clipPath><clipPath id="clip-path-30" transform="translate(5 5)"><rect class="cls-1" x="275.66" y="279.9" width="6" height="6"/></clipPath><clipPath id="clip-path-31" transform="translate(5 5)"><path class="cls-1" d="M277.41,281.33a2.33,2.33,0,0,0-.17,3.1,2.21,2.21,0,0,0,3.05.2,2.47,2.47,0,0,0,.17-3.29,2.31,2.31,0,0,0-3.2.15"/></clipPath><clipPath id="clip-path-33" transform="translate(5 5)"><rect class="cls-1" x="275.66" y="273.9" width="53" height="29"/></clipPath><clipPath id="clip-path-34" transform="translate(5 5)"><path class="cls-1" d="M277.86,302.43l-2-4.14,48.69-24.16s2.74-.22,3.34,1.49Z"/></clipPath><clipPath id="clip-path-35" transform="translate(5 5)"><rect class="cls-1" x="274.66" y="272.9" width="54" height="31"/></clipPath><clipPath id="clip-path-36" transform="translate(5 5)"><path class="cls-1" d="M294.7,274.53c.13.25-1,1-1.82,2.45s-.88,2.8-1.15,2.83-.67-1.59.31-3.3S294.63,274.32,294.7,274.53Z"/></clipPath><clipPath id="clip-path-37" transform="translate(5 5)"><path class="cls-1" d="M301.11,273.9c.17.21-.67,1.19-.94,2.66s.06,2.71-.18,2.83-1.14-1.18-.76-3S301,273.66,301.11,273.9Z"/></clipPath><clipPath id="clip-path-38" transform="translate(5 5)"><path class="cls-1" d="M307.43,278.61c-.19.17-1.18-.89-1.27-2.55s.77-2.83,1-2.66-.11,1.24,0,2.66S307.66,278.46,307.43,278.61Z"/></clipPath><clipPath id="clip-path-39" transform="translate(5 5)"><path class="cls-1" d="M291.11,268.86c0,.27-1.28.54-2.64,1.37s-2.18,1.84-2.42,1.7.34-1.57,1.91-2.53S291.13,268.6,291.11,268.86Z"/></clipPath><clipPath id="clip-path-40" transform="translate(5 5)"><path class="cls-1" d="M286.76,263.53a5.37,5.37,0,0,1-2.52,1.33,11.61,11.61,0,0,1-3,.59,11.43,11.43,0,0,1-1.85,0,3.21,3.21,0,0,1-1.07-.18,1.22,1.22,0,0,1-.8-1.25,1.48,1.48,0,0,1,.77-1.13,4.11,4.11,0,0,1,1-.38,10.4,10.4,0,0,1,1.83-.29,10,10,0,0,1,3.13.28c1.76.46,2.64,1.17,2.55,1.25s-1-.32-2.69-.58a11.34,11.34,0,0,0-2.91-.06,10.69,10.69,0,0,0-1.67.32c-.6.15-1.06.39-1.07.7,0,.11,0,.15.21.24a3,3,0,0,0,.79.14,14.06,14.06,0,0,0,1.72.05,16.89,16.89,0,0,0,2.92-.36A19.86,19.86,0,0,1,286.76,263.53Z"/></clipPath><clipPath id="clip-path-41" transform="translate(5 5)"><path class="cls-1" d="M286.62,264.05c-.06.09-1-.53-1.94-2.07a9.39,9.39,0,0,1-1.13-2.94,9,9,0,0,1-.17-1.87,2.33,2.33,0,0,1,.92-2.12,1.31,1.31,0,0,1,1.42.14,3.52,3.52,0,0,1,.75.79,6.18,6.18,0,0,1,.88,1.69,6.56,6.56,0,0,1,.31,3.17c-.29,1.82-1.15,2.66-1.21,2.59a11.93,11.93,0,0,0,.54-2.66,6.81,6.81,0,0,0-.47-2.79,6.16,6.16,0,0,0-.82-1.43c-.36-.48-.79-.81-.95-.65a1.66,1.66,0,0,0-.45,1.29,10.71,10.71,0,0,0,.11,1.7,10.22,10.22,0,0,0,.88,2.76C286,263.17,286.74,264,286.62,264.05Z"/></clipPath><clipPath id="clip-path-42" transform="translate(5 5)"><path class="cls-1" d="M234.92,157.61c-2.53-1-13.63-2-24.29,6.39-31.9,24.94-82.27,80.37-82.27,80.37V256L185,254.94l36.66-41.33,37.92,66.27c-.78-.79,35.56-18,35.56-18S249,162.94,234.92,157.61Z"/></clipPath><clipPath id="clip-path-43" transform="translate(5 5)"><path class="cls-1" d="M198.26,254.61c-2.34-.54-6.49-.83-14.11-1.24-17.94-.94-46.27-3-46.27-3l-54.32.54-2.65,21.51c0,18.85,11.55,25.25,20,26.71,21.1,3.63,67.31,2.4,83.9,2.47,24.14.11,37.92-10.06,38.86-20.79C225.51,260.42,209.91,257.31,198.26,254.61Z"/></clipPath><clipPath id="clip-path-44" transform="translate(5 5)"><path class="cls-1" d="M212.8,259.44a3.22,3.22,0,0,1-.68-.31c-.44-.2-1.07-.56-1.92-.89a41.75,41.75,0,0,0-7.39-2.5,53.36,53.36,0,0,0-11.46-1.52c-4.41-.29-9.16-.68-14.18-1.09-10.06-.89-19.17-1.5-25.77-1.7-3.3-.1-6-.13-7.83-.15h-2.12a4.57,4.57,0,0,1-.74,0,4.52,4.52,0,0,1,.74-.06l2.12-.07c1.85,0,4.53-.06,7.83,0,6.62.1,15.75.7,25.8,1.55l14.17,1.13a53.14,53.14,0,0,1,11.5,1.62,39.49,39.49,0,0,1,7.39,2.66,17.59,17.59,0,0,1,1.88,1A4.07,4.07,0,0,1,212.8,259.44Z"/></clipPath><clipPath id="clip-path-45" transform="translate(5 5)"><path class="cls-1" d="M224.31,182.56a7,7,0,0,1-.3,1.22c-.22.78-.52,1.9-.88,3.3a71.26,71.26,0,0,0-1.82,22.26c.1,1.43.22,2.59.31,3.39a5.8,5.8,0,0,1,.08,1.25,7.37,7.37,0,0,1-.26-1.22c-.15-.8-.31-1.95-.46-3.39A62.26,62.26,0,0,1,222.82,187c.37-1.39.72-2.51,1-3.27A6.34,6.34,0,0,1,224.31,182.56Z"/></clipPath><clipPath id="clip-path-46" transform="translate(5 5)"><path class="cls-1" d="M171.24,251.6a8.59,8.59,0,0,1-1.94-2,9,9,0,0,1-1.58-2.33,8.18,8.18,0,0,1,1.94,2A8.85,8.85,0,0,1,171.24,251.6Z"/></clipPath><clipPath id="clip-path-47" transform="translate(5 5)"><path class="cls-1" d="M147.55,102.6S156,98.5,170,105.31c15.05,7.34,74.67,40.81,74.67,40.81s10.25,20.18,13.64,43.6c1.62,11.29,1.34,15.06,1.34,15.06l-16.87.58S225,160.6,219,157.58l-55.88-17.72Z"/></clipPath><clipPath id="clip-path-48" transform="translate(5 5)"><path class="cls-1" d="M242.74,205.24c0,.28-4.7,11.86-5.29,13.71s-1.11,15.18-1.11,15.18-.28,3.43-2,4.81a2.5,2.5,0,0,0,2.49.65s-.18,4.91,1.15,5.37,2.44,1.39,3.64-1.21,2.4-5.46,2.4-5.46a4.38,4.38,0,0,0,3.23,1.2c1.66-.28.27.47,0,.75s-3.69,3.7-3.14,6.11,1.85,1.38,1.85,1.38l8.76-6.66s-1.2,4.08,2.2,5.18l6.83-12.31-.46-20.37-3.77-13.28Z"/></clipPath><clipPath id="clip-path-49" transform="translate(5 5)"><path class="cls-1" d="M237.56,229.89a26.73,26.73,0,0,1-.09,5.06,26.42,26.42,0,0,1-.55,5,28.41,28.41,0,0,1,.09-5.05A29.33,29.33,0,0,1,237.56,229.89Z"/></clipPath><clipPath id="clip-path-50" transform="translate(5 5)"><path class="cls-1" d="M245.75,231.38a13.44,13.44,0,0,1-.69,3.72,13.14,13.14,0,0,1-1.32,3.54,20,20,0,0,1,.89-3.67A18.91,18.91,0,0,1,245.75,231.38Z"/></clipPath><clipPath id="clip-path-51" transform="translate(5 5)"><path class="cls-1" d="M252,230.16a5.23,5.23,0,0,1,0,1.58,9.86,9.86,0,0,1-.88,3.78,10.42,10.42,0,0,1-2.36,3,5.11,5.11,0,0,1-1.24,1,5.85,5.85,0,0,1,1-1.21,13,13,0,0,0,2.18-3,12,12,0,0,0,.93-3.59A5.9,5.9,0,0,1,252,230.16Z"/></clipPath><clipPath id="clip-path-52" transform="translate(5 5)"><path class="cls-1" d="M259.41,230.34a4.67,4.67,0,0,1,.24,1.82,11,11,0,0,1-3.59,8,4.39,4.39,0,0,1-1.51,1,18,18,0,0,1,1.29-1.27,13,13,0,0,0,2.42-3.54,12.81,12.81,0,0,0,1.06-4.17C259.4,231,259.34,230.35,259.41,230.34Z"/></clipPath><clipPath id="clip-path-53" transform="translate(5 5)"><path class="cls-1" d="M163.13,209.66l3.64-65.54-16.86-42.94s-28.78,3.72-40.69,7.26c-4.32,1.27-28,15.52-31.75,31.28s-2,38.93-.37,55.31c1.6,16.61-1.27,61,5.06,65.48"/></clipPath><clipPath id="clip-path-54" transform="translate(5 5)"><path class="cls-1" d="M203.45,119.72l-4.06,33.73L163,144.78l-16-43.23a33.56,33.56,0,0,1,19,2C175.8,107.66,203.45,119.72,203.45,119.72Z"/></clipPath><clipPath id="clip-path-55" transform="translate(5 5)"><rect class="cls-1" x="93.66" y="167.9" width="70" height="39"/></clipPath><clipPath id="clip-path-56" transform="translate(5 5)"><path class="cls-1" d="M161.88,198.47a14.08,14.08,0,0,0-3.86-4.34,114,114,0,0,0-62.73-26l-1.54,1.77L111.16,188c2.87,3,6.49,6.2,10.54,5.39,1.68-.34,3.2-1.37,4.91-1.44,2.65-.1,4.79,2.11,6.76,3.94A35.89,35.89,0,0,0,163,205C162.91,202.76,162.86,200.46,161.88,198.47Z"/></clipPath><clipPath id="clip-path-57" transform="translate(5 5)"><rect class="cls-1" x="93.66" y="167.9" width="71" height="39"/></clipPath><clipPath id="clip-path-58" transform="translate(5 5)"><path class="cls-1" d="M163.2,205.4c.22,11.47,4.7,29.41,4.16,40.87-8.56-1.35-22.24.76-29.3,5.77-3.68,2.62-6.83,6-10.78,8.16-6.64,3.69-14.7,3.62-22.22,2.58s-15-3-22.57-2.66l24.75-29.79Z"/></clipPath><clipPath id="clip-path-59" transform="translate(5 5)"><path class="cls-1" d="M160,223.41a10.8,10.8,0,0,1-.16,2.6A15.82,15.82,0,0,1,159,229a20.06,20.06,0,0,1-1.87,3.59,28.49,28.49,0,0,1-7.4,7.41c-3.21,2.32-7.06,4.36-10.85,6.81a48,48,0,0,0-5.29,3.89c-1.64,1.37-3.18,2.75-4.71,4a34.87,34.87,0,0,1-4.59,3.24,18.58,18.58,0,0,1-4.51,1.89,13,13,0,0,1-7.06.08,7.75,7.75,0,0,1-2.34-1.11,21.08,21.08,0,0,0,2.39.93,13.06,13.06,0,0,0,6.88-.21,19,19,0,0,0,4.41-1.91,35.08,35.08,0,0,0,4.51-3.25c1.51-1.24,3-2.65,4.69-4a50.13,50.13,0,0,1,5.36-3.93c3.84-2.46,7.67-4.48,10.86-6.77a28.5,28.5,0,0,0,7.37-7.24,19.86,19.86,0,0,0,1.92-3.5,17.2,17.2,0,0,0,.88-2.89C160,224.34,159.92,223.41,160,223.41Z"/></clipPath><clipPath id="clip-path-60" transform="translate(5 5)"><path class="cls-1" d="M155,206.18a7.9,7.9,0,0,1-.65,1.34c-.45.89-1.14,2.07-2,3.54a120.44,120.44,0,0,1-16.2,21.4c-1.18,1.24-2.17,2.23-2.87,2.89a7.56,7.56,0,0,1-1.12,1,13.07,13.07,0,0,1,1-1.11c.66-.7,1.6-1.72,2.76-3,2.31-2.54,5.41-6.13,8.58-10.3s5.8-8.13,7.61-11c.88-1.46,1.64-2.65,2.14-3.47A8.93,8.93,0,0,1,155,206.18Z"/></clipPath><clipPath id="clip-path-61" transform="translate(5 5)"><path class="cls-1" d="M166.6,130a6.14,6.14,0,0,1,.14,1.29c.06.83.12,2,.17,3.54.09,3,.1,7.08,0,11.65s-.37,8.66-.56,11.63c-.08,1.42-.16,2.61-.23,3.55a7.8,7.8,0,0,1-.1,1.28,5.59,5.59,0,0,1-.07-1.29c0-.83,0-2,.08-3.54.11-3.06.26-7.13.42-11.63s.18-8.66.17-11.64v-3.54A8.06,8.06,0,0,1,166.6,130Z"/></clipPath><clipPath id="clip-path-62" transform="translate(5 5)"><path class="cls-1" d="M164.32,106.31a6.65,6.65,0,0,1,.72,1.77,27.38,27.38,0,0,1,1,4.55,26.67,26.67,0,0,1,.22,4.64,7.24,7.24,0,0,1-.23,1.91c-.14,0,0-2.93-.44-6.49S164.18,106.36,164.32,106.31Z"/></clipPath><clipPath id="clip-path-63" transform="translate(5 5)"><rect class="cls-1" x="120.66" y="215.9" width="29" height="31"/></clipPath><clipPath id="clip-path-64" transform="translate(5 5)"><path class="cls-1" d="M133.75,234.25c-4.41,3.87-8.14,7.92-12.65,11.79,7.4-1,14.21-5.07,19.21-10.34s8.28-11.71,8.54-18.82Z"/></clipPath><clipPath id="clip-path-66" transform="translate(5 5)"><path class="cls-1" d="M107.24,176.89s57.32,30.46,65.39,30.47c17.5,0,46.38-49.76,46.38-49.76l-11.47-11.73s-34.1,30.78-36.73,30.78c-5.19,0-44.2-24.48-44.2-24.48Z"/></clipPath><clipPath id="clip-path-67" transform="translate(5 5)"><path class="cls-1" d="M207,146.19s2.78-12,4.66-13.93c.72-.71,1.72-1.78,2.69-2.82a6.41,6.41,0,0,1,7.44-1.45l1.54.71s3.25-1.77,4.47-.68A31,31,0,0,1,231,132.1a9.6,9.6,0,0,1,4.33,1.35,13.15,13.15,0,0,1,2.16,1.7s3,.75,3.92,2.78l1,2s2.7,1.89,2.57,4.34-.95,1.63-.95,1.63l-2.57.13s-14.86,9.91-18,10.73a22.39,22.39,0,0,1-5.14.81Z"/></clipPath><clipPath id="clip-path-68" transform="translate(5 5)"><path class="cls-1" d="M244.64,146.12a3.36,3.36,0,0,0-.95-.08,13.57,13.57,0,0,0-2.76.44c-1.89,1.32-4.66,3.22-8.18,5.5-1.76,1.12-3.7,2.36-5.9,3.54a11.17,11.17,0,0,1-1.76.8c-.62.19-1.25.34-1.9.5-1.28.32-2.64.61-4,.89l.14-.09c-3.53,5.53-7.55,11.83-12.06,18.32-4,5.71-8,11-11.94,15.59-2,2.3-3.9,4.42-5.76,6.34a44,44,0,0,1-5.73,4.81,35.58,35.58,0,0,1-5.21,3.27,16,16,0,0,1-4.41,1.46,7.66,7.66,0,0,1-2.94,0,3.28,3.28,0,0,1-.73-.24c-.16-.06-.24-.09-.23-.1a7.48,7.48,0,0,0,3.87.21,16.16,16.16,0,0,0,4.33-1.52,35.09,35.09,0,0,0,5.14-3.3,43.82,43.82,0,0,0,5.64-4.81c1.84-1.94,3.78-4,5.72-6.35,3.9-4.58,7.89-9.87,11.88-15.58,4.5-6.47,8.54-12.77,12.1-18.28l0-.07h.1c1.36-.24,2.7-.51,4-.82.63-.16,1.27-.31,1.87-.5a10.61,10.61,0,0,0,1.69-.75c2.17-1.15,4.13-2.38,5.89-3.48,3.53-2.24,6.34-4.1,8.25-5.38a12.09,12.09,0,0,1,2.81-.36,2.89,2.89,0,0,1,.72.08A.7.7,0,0,1,244.64,146.12Z"/></clipPath><clipPath id="clip-path-69" transform="translate(5 5)"><path class="cls-1" d="M231,132.1a10.52,10.52,0,0,1-1.33-1.57c-.37-.52-.88-1.05-1.42-1.68A2.3,2.3,0,0,0,226,128a13.75,13.75,0,0,0-2.6.58,5.17,5.17,0,0,0-1.88,1,9.84,9.84,0,0,1-1.15,1c-.3.19-.48.27-.5.25s.58-.5,1.43-1.47a4.72,4.72,0,0,1,2-1.16,11.85,11.85,0,0,1,2.69-.64,2.67,2.67,0,0,1,2.64,1c.52.68,1.05,1.25,1.38,1.77A8.77,8.77,0,0,1,231,132.1Z"/></clipPath><clipPath id="clip-path-70" transform="translate(5 5)"><path class="cls-1" d="M232.79,132.5c0,.14-1.3-.17-2.84.07s-2.65.88-2.72.76A5.25,5.25,0,0,1,232.79,132.5Z"/></clipPath><clipPath id="clip-path-71" transform="translate(5 5)"><path class="cls-1" d="M240.75,137.15c-.07,0-.34-.4-1-.84a5.16,5.16,0,0,0-2.94-.78,12.36,12.36,0,0,0-3.08.6,4,4,0,0,1-1.31.32,4.17,4.17,0,0,1,1.2-.63,9.13,9.13,0,0,1,3.17-.75,4.86,4.86,0,0,1,3.14,1C240.61,136.6,240.79,137.14,240.75,137.15Z"/></clipPath><clipPath id="clip-path-72" transform="translate(5 5)"><path class="cls-1" d="M242.84,140.58c-.07,0-.16-.27-.49-.57a2.39,2.39,0,0,0-1.59-.53A5.67,5.67,0,0,0,239,140c-.44.18-.72.29-.76.22s.2-.25.62-.51a4.1,4.1,0,0,1,1.85-.64,2.24,2.24,0,0,1,1.83.77C242.92,140.21,242.89,140.58,242.84,140.58Z"/></clipPath><clipPath id="clip-path-73" transform="translate(5 5)"><path class="cls-1" d="M172.24,188.41c-.13,0-.23-2.66-.58-5.9s-.76-5.87-.62-5.9A36.69,36.69,0,0,1,172.24,188.41Z"/></clipPath><clipPath id="clip-path-74" transform="translate(5 5)"><path class="cls-1" d="M215.6,128.37a5.81,5.81,0,0,0-.88.72,14.86,14.86,0,0,0-2.09,2.39c-1.67,2.14-2.47,5.87-3.81,9.74-.57,1.77-1.12,3.44-1.63,5v.1c-2.11,1.92-3.92,3.54-5.21,4.68l-1.57,1.36a2.83,2.83,0,0,1-.59.44,3.62,3.62,0,0,1,.49-.54l1.44-1.41c1.24-1.2,3-2.86,5.09-4.8l-.06.09c.5-1.55,1-3.24,1.61-5,.63-2,1.25-3.83,1.8-5.55a15,15,0,0,1,2.17-4.29C214,129.07,215.57,128.27,215.6,128.37Z"/></clipPath><clipPath id="clip-path-75" transform="translate(5 5)"><path class="cls-1" d="M82.45,163.61l40.21,26,24.89-28.4s-38-38.64-45.69-36.89S74.2,129.32,82.45,163.61Z"/></clipPath><clipPath id="clip-path-76" transform="translate(5 5)"><path class="cls-1" d="M110.34,132.26a.86.86,0,0,1,.23.05,2.62,2.62,0,0,1,.64.24,18.91,18.91,0,0,1,2.27,1.29c1.92,1.24,4.63,3.19,7.94,5.74,6.67,5.1,15.82,12.51,26.27,21.37l.18.14-.15.17-12.83,14.93-11.6,13.48-.11.12-.16-.07a169.74,169.74,0,0,1-16.89-10c-2.48-1.64-4.79-3.23-6.93-4.7s-4.24-2.66-6.12-3.75-3.53-2.13-5-3.14a26.64,26.64,0,0,1-3.33-2.85c-.41-.43-.78-.82-1.07-1.18a8.56,8.56,0,0,1-.7-.89l-.42-.57c-.09-.14-.13-.21-.12-.22a1.46,1.46,0,0,1,.16.19l.44.56c.18.25.43.54.73.88s.66.73,1.09,1.15A27.25,27.25,0,0,0,88.27,168c1.39,1,3.07,2,5,3.08s4,2.25,6.18,3.7,4.46,3,6.94,4.67a175.37,175.37,0,0,0,16.89,9.94l-.27.05,11.59-13.48L147.4,161v.31C137,152.46,127.86,145,121.26,139.79c-3.3-2.58-6-4.56-7.87-5.83a22.13,22.13,0,0,0-2.23-1.36C110.65,132.33,110.33,132.29,110.34,132.26Z"/></clipPath><clipPath id="clip-path-77" transform="translate(5 5)"><path class="cls-1" d="M97.58,129.78a36.88,36.88,0,0,0-4,.95,18.4,18.4,0,0,0-12.4,14.17,37.88,37.88,0,0,0-.41,4.11,4.61,4.61,0,0,1-.12-1.11,16.42,16.42,0,0,1,.22-3.05,17.92,17.92,0,0,1,12.62-14.44,16.74,16.74,0,0,1,3-.6A5.15,5.15,0,0,1,97.58,129.78Z"/></clipPath><clipPath id="clip-path-78" transform="translate(5 5)"><path class="cls-1" d="M108.37,79a105.93,105.93,0,0,1-7.15-16.82C99.48,56.26,98.73,50,100,44.05c.19-.89,2-7.09,3-7.09.65,0-.21,5.58.2,6.11,3.94,4.92,5.75,11.28,6.18,17.58a83.24,83.24,0,0,1-1,18.32"/></clipPath><clipPath id="clip-path-79" transform="translate(5 5)"><path class="cls-1" d="M147.07,107.35c-.59-4.27-1-7.64-1-7.64S160.41,96,159.21,81.39c-.58-7.09-3-21.52-5.29-34.54a27.29,27.29,0,0,0-29.36-22.53l-1.4.14C108.08,26.8,101.65,41,104.39,56l7.94,53,12,10.7c9.61,8.54,24.6.4,22.75-12.39Z"/></clipPath><clipPath id="clip-path-80" transform="translate(5 5)"><path class="cls-1" d="M146.07,99.71a35.25,35.25,0,0,1-19.5-3.82s5.63,10.19,20,7.49Z"/></clipPath><clipPath id="clip-path-81" transform="translate(5 5)"><path class="cls-1" d="M151.44,59.17a2.1,2.1,0,0,1-1.76,2.3,2,2,0,0,1-1.52-.35,2,2,0,0,1-.8-1.33,2.09,2.09,0,0,1,1.76-2.3,2,2,0,0,1,2.32,1.68Z"/></clipPath><clipPath id="clip-path-82" transform="translate(5 5)"><path class="cls-1" d="M151.4,53.15c-.23.31-1.92-.71-4.16-.5s-3.76,1.5-4,1.25c-.13-.11.09-.62.75-1.22a5.75,5.75,0,0,1,3.2-1.33,5.46,5.46,0,0,1,3.35.74C151.24,52.55,151.52,53,151.4,53.15Z"/></clipPath><clipPath id="clip-path-83" transform="translate(5 5)"><path class="cls-1" d="M130.64,61.64a2.07,2.07,0,0,1-1.76,2.29,2,2,0,0,1-1.52-.34,2.06,2.06,0,0,1-.81-1.33,2.11,2.11,0,0,1,1.81-2.3,2,2,0,0,1,1.49.36A2,2,0,0,1,130.64,61.64Z"/></clipPath><clipPath id="clip-path-84" transform="translate(5 5)"><path class="cls-1" d="M129.57,56.17c-.24.29-1.93-.73-4.16-.51s-3.77,1.5-4,1.25.08-.63.75-1.22a5.79,5.79,0,0,1,3.21-1.34,5.55,5.55,0,0,1,3.33.74C129.4,55.55,129.68,56,129.57,56.17Z"/></clipPath><clipPath id="clip-path-85" transform="translate(5 5)"><path class="cls-1" d="M139.23,72.67a14.06,14.06,0,0,1,3.58-1c.56-.12,1.09-.29,1.15-.69a2.94,2.94,0,0,0-.55-1.66l-2.1-4.21c-2.93-6-5.12-10.95-4.88-11.06s2.82,4.65,5.76,10.63q1,2.22,2,4.24a3.35,3.35,0,0,1,.5,2.22,1.46,1.46,0,0,1-.88.89,4,4,0,0,1-1,.22A13.32,13.32,0,0,1,139.23,72.67Z"/></clipPath><clipPath id="clip-path-86" transform="translate(5 5)"><path class="cls-1" d="M128.58,47.05c-.17.64-2.43.56-5,1.13s-4.66,1.49-5,1c-.19-.25.13-.89.93-1.53A8.9,8.9,0,0,1,127.12,46C128.09,46.33,128.64,46.76,128.58,47.05Z"/></clipPath><clipPath id="clip-path-87" transform="translate(5 5)"><path class="cls-1" d="M149.76,45.81c-.34.55-1.93.17-3.79.32s-3.39.66-3.8.17c-.18-.24,0-.78.65-1.33a5.28,5.28,0,0,1,3-1.12,5.14,5.14,0,0,1,3.11.73C149.65,45,149.91,45.51,149.76,45.81Z"/></clipPath><clipPath id="clip-path-88" transform="translate(5 5)"><path class="cls-1" d="M106.57,66.73c-.27-.09-10.3-2-9,8s11,6.65,10.95,6.35S106.57,66.73,106.57,66.73Z"/></clipPath><clipPath id="clip-path-89" transform="translate(5 5)"><path class="cls-1" d="M105,77.64s-.16.15-.43.31a1.76,1.76,0,0,1-1.29.2c-1.09-.26-2.2-1.77-2.47-3.61A5.75,5.75,0,0,1,101,72a2,2,0,0,1,1.13-1.5.88.88,0,0,1,1.08.34c.17.27.13.47.19.48s.19-.2.06-.59a1.14,1.14,0,0,0-.48-.58,1.36,1.36,0,0,0-1-.13,2.45,2.45,0,0,0-1.6,1.77,6,6,0,0,0-.25,2.85c.32,2,1.58,3.76,3.07,4a1.88,1.88,0,0,0,1.54-.47C105,77.88,105,77.7,105,77.64Z"/></clipPath><clipPath id="clip-path-90" transform="translate(5 5)"><path class="cls-1" d="M145.28,31.18c1.49-1.12-4-5.67-8.22-6.93-6.34-1.89-15.66-2.32-20.94,0C109.76,27,104.71,31.1,102.21,37.6a39.67,39.67,0,0,0-1.66,20.59,12.06,12.06,0,0,0,2.22,5.89c1.69,2,4.54,3,4.83,6.09a4.27,4.27,0,0,0,1.44,2.9c2.09,1.69,4-.44,4.83-2.41,1.65-4.19,1.25-8.85.88-13.37a29.52,29.52,0,0,0-1.91-9.39c-.71-1.58-1.71-3-2.32-4.67a6,6,0,0,1,0-5.07,4.77,4.77,0,0,1,.69-.93,10.39,10.39,0,0,1,10-3.38c5.85,1.23,15.78,2.88,18,.63,3.21-3.22,3.82-5.12,3.82-5.12Z"/></clipPath><clipPath id="clip-path-91" transform="translate(5 5)"><path class="cls-1" d="M143,79.28c.08.16-.29.57-1.1.89a6,6,0,0,1-6.24-1.46c-.58-.64-.74-1.17-.6-1.28.31-.24,1.66,1.11,3.82,1.58S142.83,78.93,143,79.28Z"/></clipPath><clipPath id="clip-path-92" transform="translate(5 5)"><path class="cls-1" d="M9.61,305.19C32,288.83,98.79,291.87,119.47,294.47s41.51,6.65,62.22,4.23c19.22-2.25,37.93-10,57.22-9,17.58.91,34.66,9.18,52.15,7.14,10.19-1.18,19.67-5.79,29.51-8.79,18.62-5.69,57.17,1.94,72,11.56"/></clipPath><clipPath id="clip-path-93" transform="translate(5 5)"><path class="cls-1" d="M392.57,299.63l-.88-.5c-.59-.31-1.44-.86-2.6-1.44a81,81,0,0,0-10.54-4.33,138.49,138.49,0,0,0-17.42-4.54,136.24,136.24,0,0,0-23.64-2.56,71.29,71.29,0,0,0-13.75,1.19c-1.16.29-2.34.55-3.52.91s-2.35.76-3.53,1.17c-2.38.81-4.77,1.7-7.23,2.58A95.11,95.11,0,0,1,294,296.65a55.39,55.39,0,0,1-17.05.18c-11.62-1.43-23.35-5.6-36-6.71a69.51,69.51,0,0,0-9.57-.13c-3.22.19-6.45.54-9.71,1-6.47,1-13,2.55-19.54,4.06a198.62,198.62,0,0,1-19.62,3.76,122.2,122.2,0,0,1-19.41.74c-12.72-.46-24.86-2.36-36.43-3.93a291.62,291.62,0,0,0-33-2.81c-10.36-.36-20-.3-28.85.08A234.8,234.8,0,0,0,41.09,295a123.13,123.13,0,0,0-17.58,3.78A54.08,54.08,0,0,0,13,303.13a26.32,26.32,0,0,0-2.54,1.53c-.57.37-.88.55-.88.55l.88-.58A25.41,25.41,0,0,1,13,303a52.83,52.83,0,0,1,10.54-4.41,120.85,120.85,0,0,1,17.59-3.87,227.45,227.45,0,0,1,23.74-2.19c8.83-.37,18.52-.47,28.88-.13a287.73,287.73,0,0,1,33,2.78c11.57,1.55,23.71,3.43,36.4,3.89a122,122,0,0,0,19.3-.75A194.47,194.47,0,0,0,202,294.61c6.57-1.52,13.06-3.05,19.56-4.06q4.88-.76,9.7-1.05a72,72,0,0,1,9.63.14c12.73,1.12,24.44,5.3,36,6.73a55.55,55.55,0,0,0,16.93-.14,95.67,95.67,0,0,0,15.44-4.49c2.45-.91,4.85-1.75,7.23-2.57,1.19-.4,2.37-.79,3.53-1.15s2.38-.6,3.52-.91A70.52,70.52,0,0,1,337.41,286a134.67,134.67,0,0,1,23.76,2.68,138.49,138.49,0,0,1,17.42,4.54,78.87,78.87,0,0,1,10.53,4.41C391.42,298.87,392.57,299.63,392.57,299.63Z"/></clipPath><clipPath id="clip-path-94" transform="translate(5 5)"><path class="cls-1" d="M472.26,296.7c5.94-6.12,15.25-7.17,23.58-6.11s16.46,3.83,24.86,4,16.34-2.24,24.49-3.68,18.52-.49,24.27,5.81"/></clipPath><clipPath id="clip-path-95" transform="translate(5 5)"><path class="cls-1" d="M569.49,296.7l-.2-.17-.57-.53-.41-.39-.55-.42-.63-.49c-.22-.17-.49-.33-.75-.51a23.92,23.92,0,0,0-10.14-3.45,36.89,36.89,0,0,0-7.43-.11,71.47,71.47,0,0,0-8.44,1.42c-5.91,1.21-12.44,2.82-19.48,2.73s-13.52-1.95-19.41-3.07a65.2,65.2,0,0,0-8.47-1.22,37.57,37.57,0,0,0-7.42.2,23.8,23.8,0,0,0-10.13,3.52l-.76.49-.62.49a8.24,8.24,0,0,0-1,.8l-.59.52-.2.16a1.85,1.85,0,0,1,.18-.2l.54-.55a9.5,9.5,0,0,1,.95-.84l.62-.51.75-.53a23.77,23.77,0,0,1,10.13-3.65,36.78,36.78,0,0,1,7.49-.26,64.77,64.77,0,0,1,8.53,1.17c5.93,1.11,12.41,2.91,19.4,3s13.48-1.52,19.41-2.72a67.67,67.67,0,0,1,8.49-1.39,36.07,36.07,0,0,1,7.49.18A23.29,23.29,0,0,1,566.5,294c.26.2.53.36.75.53l.63.52.52.45.41.4.54.57C569.44,296.63,569.5,296.69,569.49,296.7Z"/></clipPath></defs><g id="Calque_2" data-name="Calque 2"><g id="Calque_1-2" data-name="Calque 1"><g class="cls-2"><rect class="cls-3" x="18.2" width="162.21" height="51.14"/></g><g class="cls-4"><rect class="cls-3" x="21.18" y="210.15" width="45.38" height="92.51"/></g><g class="cls-5"><rect class="cls-3" x="49.6" y="225.12" width="31.82" height="77.55"/></g><g class="cls-6"><rect class="cls-3" y="256.04" width="57.33" height="46.81"/></g><g class="cls-7"><rect class="cls-8" x="48.6" y="263.45" width="16.56" height="38.85"/></g><g class="cls-9"><rect class="cls-8" x="55.45" y="226.22" width="22.67" height="76.13"/></g><g class="cls-10"><rect class="cls-8" x="26.54" y="217.7" width="31.76" height="84.91"/></g><g class="cls-11"><rect class="cls-8" x="5.43" y="261.62" width="47.71" height="37.92"/></g><g class="cls-12"><rect class="cls-8" x="40.98" y="270.94" width="15.77" height="32.13"/></g><g class="cls-13"><rect class="cls-3" x="170.44" y="69.39" width="135.46" height="43.91"/></g><g class="cls-14"><rect class="cls-3" x="441.75" y="19.01" width="162.18" height="51.06"/></g><g class="cls-15"><rect class="cls-16" x="510.9" y="215.46" width="45.68" height="91.88"/></g><g class="cls-17"><rect class="cls-16" x="495.92" y="230.31" width="32.01" height="77.02"/></g><g class="cls-18"><rect class="cls-16" x="520.21" y="260.95" width="57.73" height="46.53"/></g><g class="cls-19"><rect class="cls-20" x="512.32" y="268.36" width="16.61" height="38.67"/></g><g class="cls-21"><rect class="cls-20" x="499.25" y="231.4" width="22.84" height="75.62"/></g><g class="cls-22"><rect class="cls-20" x="519.25" y="222.94" width="31.95" height="84.32"/></g><g class="cls-23"><rect class="cls-20" x="524.48" y="266.53" width="47.99" height="37.68"/></g><g class="cls-24"><rect class="cls-20" x="520.81" y="275.78" width="15.82" height="31.96"/></g><g class="cls-25"><rect class="cls-26" x="296.76" y="109.68" width="204.18" height="107.12"/></g><g class="cls-27"><rect class="cls-28" x="299.31" y="98.23" width="139.17" height="70.03"/></g><g class="cls-29"><rect class="cls-30" x="442.37" y="108.45" width="24.9" height="16.89"/></g><g class="cls-31"><rect class="cls-30" x="499.66" y="176.79" width="10.86" height="33.54"/></g><g class="cls-32"><rect class="cls-28" x="316.44" y="87.11" width="81" height="39.41"/></g><g class="cls-33"><rect class="cls-30" x="333.37" y="215.83" width="128.5" height="10.46"/></g><g class="cls-34"><rect class="cls-30" x="362.08" y="223.16" width="67.42" height="10.46"/></g><g class="cls-35"><rect class="cls-30" x="382.23" y="231.11" width="36.88" height="10.46"/></g><g class="cls-36"><rect class="cls-20" x="14.91" y="205.49" width="562.51" height="10.26"/></g><g class="cls-37"><rect class="cls-16" x="256.2" y="248.87" width="81.66" height="63.57"/></g><g class="cls-38"><g class="cls-39"><g class="cls-40"><g class="cls-39"><rect class="cls-41" x="276.73" y="280.77" width="14.28" height="14.37"/></g></g></g></g><g class="cls-38"><g class="cls-42"><g class="cls-43"><g class="cls-44"><rect class="cls-41" x="275.83" y="274.12" width="62.03" height="38.31"/></g></g></g></g><g class="cls-45"><rect class="cls-20" x="291.42" y="274.49" width="13.29" height="15.33"/></g><g class="cls-46"><rect class="cls-20" x="299.13" y="273.87" width="12" height="15.53"/></g><g class="cls-47"><rect class="cls-20" x="306.15" y="273.38" width="11.34" height="15.24"/></g><g class="cls-48"><rect class="cls-20" x="286" y="268.66" width="15.11" height="13.28"/></g><g class="cls-49"><rect class="cls-20" x="277.47" y="262.2" width="19.31" height="13.29"/></g><g class="cls-50"><rect class="cls-20" x="283.37" y="254.9" width="14.37" height="19.16"/></g><g class="cls-51"><rect class="cls-20" x="128.36" y="156.99" width="176.82" height="132.89"/></g><g class="cls-52"><rect class="cls-20" x="80.91" y="250.34" width="152.95" height="61.38"/></g><g class="cls-53"><rect class="cls-16" x="140.71" y="251.11" width="82.09" height="18.33"/></g><g class="cls-54"><rect class="cls-16" x="220.67" y="182.56" width="13.63" height="41.42"/></g><g class="cls-55"><rect class="cls-16" x="167.72" y="247.22" width="13.52" height="14.38"/></g><g class="cls-56"><rect class="cls-57" x="147.55" y="101.38" width="122.09" height="113.98"/></g><g class="cls-58"><rect class="cls-57" x="234.31" y="200.29" width="39.41" height="57.66"/></g><g class="cls-59"><rect class="cls-60" x="236.85" y="229.89" width="10.79" height="20.08"/></g><g class="cls-61"><rect class="cls-60" x="243.74" y="231.38" width="12.01" height="17.26"/></g><g class="cls-62"><rect class="cls-60" x="247.55" y="230.16" width="14.55" height="19.38"/></g><g class="cls-63"><rect class="cls-60" x="254.55" y="230.34" width="15.11" height="20.83"/></g><g class="cls-64"><rect class="cls-65" x="75.26" y="101.18" width="101.51" height="169.34"/></g><g class="cls-66"><rect class="cls-65" x="146.93" y="100.97" width="66.51" height="62.48"/></g><g class="cls-67"><g class="cls-68"><g class="cls-69"><g class="cls-70"><rect x="93.75" y="168.16" width="79.21" height="47.24"/></g></g></g></g><g class="cls-71"><rect class="cls-65" x="82.49" y="205.4" width="94.91" height="68"/></g><g class="cls-72"><rect class="cls-20" x="110.4" y="223.41" width="59.6" height="46.9"/></g><g class="cls-73"><rect class="cls-20" x="132.15" y="206.18" width="32.85" height="40.16"/></g><g class="cls-74"><rect class="cls-20" x="165.94" y="129.95" width="11.04" height="42.94"/></g><g class="cls-75"><rect class="cls-20" x="164.3" y="106.31" width="11.98" height="22.87"/></g><g class="cls-67"><g class="cls-76"><g class="cls-77"><g class="cls-76"><rect x="121.1" y="216.88" width="37.75" height="39.16"/></g></g></g></g><g class="cls-78"><rect class="cls-57" x="107.24" y="145.87" width="121.77" height="71.49"/></g><g class="cls-79"><rect class="cls-57" x="206.95" y="127.38" width="47.96" height="40.24"/></g><g class="cls-80"><rect class="cls-60" x="170.32" y="146.03" width="84.32" height="71.5"/></g><g class="cls-81"><rect class="cls-60" x="219.85" y="127.53" width="21.13" height="14.56"/></g><g class="cls-82"><rect class="cls-60" x="227.23" y="132.05" width="15.57" height="11.29"/></g><g class="cls-83"><rect class="cls-60" x="232.42" y="135.07" width="18.33" height="12.09"/></g><g class="cls-84"><rect class="cls-60" x="238.24" y="139.02" width="14.63" height="11.56"/></g><g class="cls-85"><rect class="cls-60" x="171.01" y="176.61" width="11.3" height="21.8"/></g><g class="cls-86"><rect class="cls-60" x="199.82" y="128.36" width="25.78" height="34.42"/></g><g class="cls-87"><rect class="cls-65" x="80.49" y="124.24" width="77.06" height="75.34"/></g><g class="cls-88"><rect class="cls-20" x="82.49" y="132.26" width="75.38" height="67.53"/></g><g class="cls-89"><rect class="cls-20" x="80.65" y="129.76" width="26.93" height="29.25"/></g><g class="cls-90"><rect class="cls-20" x="99.36" y="36.96" width="20.1" height="52.01"/></g><g class="cls-91"><rect class="cls-57" x="103.77" y="24.21" width="65.51" height="109.01"/></g><g class="cls-92"><rect class="cls-60" x="126.57" y="95.89" width="30.04" height="17.95"/></g><g class="cls-93"><rect class="cls-20" x="147.34" y="57.46" width="14.11" height="14.04"/></g><g class="cls-94"><rect class="cls-20" x="143.17" y="51.32" width="18.26" height="12.61"/></g><g class="cls-95"><rect class="cls-20" x="126.54" y="59.93" width="14.12" height="14.03"/></g><g class="cls-96"><rect class="cls-20" x="121.34" y="54.32" width="18.26" height="12.62"/></g><g class="cls-97"><rect class="cls-20" x="136.41" y="54.04" width="18.34" height="28.67"/></g><g class="cls-98"><rect class="cls-20" x="118.46" y="45.75" width="20.13" height="13.56"/></g><g class="cls-99"><rect class="cls-20" x="142.1" y="43.83" width="17.7" height="12.68"/></g><g class="cls-100"><rect class="cls-57" x="97.43" y="66.53" width="21.06" height="25.3"/></g><g class="cls-101"><rect class="cls-60" x="100.03" y="69.98" width="14.96" height="18.67"/></g><g class="cls-102"><rect class="cls-20" x="99.92" y="22.67" width="55.61" height="61.01"/></g><g class="cls-103"><rect class="cls-20" x="135.02" y="77.4" width="18" height="13.11"/></g><g class="cls-104"><rect class="cls-41" x="9.61" y="286.12" width="392.96" height="29.07"/></g><g class="cls-105"><rect class="cls-20" x="9.56" y="285.94" width="393.01" height="29.26"/></g><g class="cls-106"><rect class="cls-41" x="472.26" y="290.23" width="107.2" height="16.47"/></g><g class="cls-107"><rect class="cls-20" x="472.32" y="290.04" width="107.17" height="16.65"/></g></g></g></svg>