<svg xmlns="http://www.w3.org/2000/svg" xmlns:xlink="http://www.w3.org/1999/xlink" viewBox="0 0 428 926"><defs><style>.cls-1{fill:none;}.cls-2{clip-path:url(#clip-path);}.cls-3{clip-path:url(#clip-path-2);}.cls-4{clip-path:url(#clip-path-3);}.cls-5{clip-path:url(#clip-path-4);}.cls-6{clip-path:url(#clip-path-5);}.cls-7{clip-path:url(#clip-path-6);}.cls-8{clip-path:url(#clip-path-7);}.cls-9{clip-path:url(#clip-path-9);}</style><clipPath id="clip-path" transform="translate(40 461.08)"><rect class="cls-1" x="14.87" y="30.96" width="19.61" height="12.89"/></clipPath><clipPath id="clip-path-2" transform="translate(40 461.08)"><rect class="cls-1" x="43.52" y="30.96" width="19.61" height="12.89"/></clipPath><clipPath id="clip-path-3" transform="translate(40 461.08)"><rect class="cls-1" x="59.11" y="64.83" width="11.63" height="6.62"/></clipPath><clipPath id="clip-path-4" transform="translate(40 461.08)"><rect class="cls-1" x="7.26" y="64.83" width="11.63" height="6.62"/></clipPath><clipPath id="clip-path-5" transform="translate(40 461.08)"><path class="cls-1" d="M75,63.91H3.05v-5H75ZM4.57,49.67a4,4,0,0,1,4-4H69.4a4,4,0,0,1,4,4v6.25H4.57Zm3.92-7V30.3a5.07,5.07,0,0,1,5.09-5H64.42a5.07,5.07,0,0,1,5.09,5V42.67Zm68,13.25V49.67a7,7,0,0,0-3.92-6.26V30.3a8.1,8.1,0,0,0-8.14-8H13.58a8.1,8.1,0,0,0-8.14,8V43.41a7,7,0,0,0-3.92,6.26v6.25A1.51,1.51,0,0,0,0,57.42v8a1.51,1.51,0,0,0,1.52,1.5h75A1.51,1.51,0,0,0,78,65.42v-8A1.51,1.51,0,0,0,76.48,55.92Z"/></clipPath><clipPath id="clip-path-6" transform="translate(40 461.08)"><rect class="cls-1" x="-40" y="-461.08" width="428" height="926"/></clipPath><clipPath id="clip-path-7" transform="translate(40 461.08)"><path class="cls-1" d="M28.54,17.86a1.51,1.51,0,0,0,1.34.79h5.81a1.51,1.51,0,1,0,0-3h-3l4.14-6.28a1.5,1.5,0,0,0,.06-1.54A1.52,1.52,0,0,0,35.55,7H30.06a1.51,1.51,0,1,0,0,3h2.68L28.6,16.32A1.47,1.47,0,0,0,28.54,17.86Z"/></clipPath><clipPath id="clip-path-9" transform="translate(40 461.08)"><path class="cls-1" d="M38.28,13.88a1.54,1.54,0,0,0,1.35.81h8.49a1.51,1.51,0,1,0,0-3H42.53L49,2.36A1.49,1.49,0,0,0,49.13.81,1.51,1.51,0,0,0,47.78,0H39.85a1.52,1.52,0,0,0-1.53,1.51A1.52,1.52,0,0,0,39.85,3h5l-6.5,9.32A1.49,1.49,0,0,0,38.28,13.88Z"/></clipPath></defs><g id="Calque_2" data-name="Calque 2"><g id="Calque_1-2" data-name="Calque 1"><rect x="54.87" y="492.03" width="19.61" height="12.89"/><g class="cls-2"><rect x="49.87" y="487.03" width="29.61" height="22.89"/></g><rect x="83.52" y="492.03" width="19.61" height="12.89"/><g class="cls-3"><rect x="78.52" y="487.03" width="29.61" height="22.89"/></g><rect x="99.11" y="525.91" width="11.63" height="6.62"/><g class="cls-4"><rect x="94.11" y="520.91" width="21.63" height="16.62"/></g><rect x="47.26" y="525.91" width="11.63" height="6.62"/><g class="cls-5"><rect x="42.26" y="520.91" width="21.63" height="16.62"/></g><path d="M75,63.91H3.05v-5H75ZM4.57,49.67a4,4,0,0,1,4-4H69.4a4,4,0,0,1,4,4v6.25H4.57Zm3.92-7V30.3a5.07,5.07,0,0,1,5.09-5H64.42a5.07,5.07,0,0,1,5.09,5V42.67Zm68,13.25V49.67a7,7,0,0,0-3.92-6.26V30.3a8.1,8.1,0,0,0-8.14-8H13.58a8.1,8.1,0,0,0-8.14,8V43.41a7,7,0,0,0-3.92,6.26v6.25A1.51,1.51,0,0,0,0,57.42v8a1.51,1.51,0,0,0,1.52,1.5h75A1.51,1.51,0,0,0,78,65.42v-8A1.51,1.51,0,0,0,76.48,55.92Z" transform="translate(40 461.08)"/><g class="cls-6"><rect width="428" height="926"/><g class="cls-7"><rect x="35" y="478.34" width="88" height="54.66"/></g></g><path d="M28.54,17.86a1.51,1.51,0,0,0,1.34.79h5.81a1.51,1.51,0,1,0,0-3h-3l4.14-6.28a1.5,1.5,0,0,0,.06-1.54A1.52,1.52,0,0,0,35.55,7H30.06a1.51,1.51,0,1,0,0,3h2.68L28.6,16.32A1.47,1.47,0,0,0,28.54,17.86Z" transform="translate(40 461.08)"/><g class="cls-8"><rect width="428" height="926"/><g class="cls-7"><rect x="63.35" y="463.11" width="18.86" height="21.62"/></g></g><path d="M38.28,13.88a1.54,1.54,0,0,0,1.35.81h8.49a1.51,1.51,0,1,0,0-3H42.53L49,2.36A1.49,1.49,0,0,0,49.13.81,1.51,1.51,0,0,0,47.78,0H39.85a1.52,1.52,0,0,0-1.53,1.51A1.52,1.52,0,0,0,39.85,3h5l-6.5,9.32A1.49,1.49,0,0,0,38.28,13.88Z" transform="translate(40 461.08)"/><g class="cls-9"><rect width="428" height="926"/><g class="cls-7"><rect x="73.11" y="456.08" width="21.54" height="24.69"/></g></g></g></g></svg>