<svg xmlns="http://www.w3.org/2000/svg" xmlns:xlink="http://www.w3.org/1999/xlink" viewBox="0 0 149.79 148.96"><defs><style>.cls-1{fill:none;}.cls-2{clip-path:url(#clip-path);}.cls-3{clip-path:url(#clip-path-2);}.cls-4{fill:#6935cc;}.cls-5{clip-path:url(#clip-path-3);}.cls-6{clip-path:url(#clip-path-5);}.cls-7{clip-path:url(#clip-path-7);}.cls-8{clip-path:url(#clip-path-9);}.cls-9{clip-path:url(#clip-path-11);}.cls-10{fill:#23a0e7;}.cls-11{clip-path:url(#clip-path-13);}.cls-12{fill:#466bda;}.cls-13{clip-path:url(#clip-path-15);}.cls-14{clip-path:url(#clip-path-17);}.cls-15{clip-path:url(#clip-path-19);}.cls-16{clip-path:url(#clip-path-21);}.cls-17{clip-path:url(#clip-path-23);}.cls-18{clip-path:url(#clip-path-25);}.cls-19{clip-path:url(#clip-path-27);}.cls-20{clip-path:url(#clip-path-29);}.cls-21{clip-path:url(#clip-path-31);}</style><clipPath id="clip-path" transform="translate(5 7.07)"><path class="cls-1" d="M12.73,82.69c-1.24,0-2.57,0-4,.13S6,83,4.66,83.2v26.19c1.31.14,2.67.26,4.09.36s2.74.16,4,.16A14,14,0,0,0,20,108.12a12.24,12.24,0,0,0,4.66-4.86,15.7,15.7,0,0,0,0-13.92A12.13,12.13,0,0,0,20,84.47,13.91,13.91,0,0,0,12.73,82.69Zm0-4.4a19.25,19.25,0,0,1,9.91,2.38,16,16,0,0,1,6.21,6.44,20.67,20.67,0,0,1,0,18.37,16.06,16.06,0,0,1-6.21,6.45,19.25,19.25,0,0,1-9.91,2.38A55.52,55.52,0,0,1,6.16,114c-2-.24-4.06-.55-6.16-.94V79.58c2.1-.38,4.16-.69,6.16-.93A55.52,55.52,0,0,1,12.73,78.29Z"/></clipPath><clipPath id="clip-path-2" transform="translate(5 7.07)"><rect class="cls-1" x="-144" y="-360.99" width="428" height="926"/></clipPath><clipPath id="clip-path-3" transform="translate(5 7.07)"><path class="cls-1" d="M49.68,91.54a8.69,8.69,0,0,0-4.81,1.32,8.83,8.83,0,0,0-3.18,3.46A10.18,10.18,0,0,0,40.58,101a9.94,9.94,0,0,0,1.11,4.63,8.93,8.93,0,0,0,3.18,3.47,9.48,9.48,0,0,0,9.65,0,9,9,0,0,0,3.16-3.47A9.94,9.94,0,0,0,58.79,101a10.18,10.18,0,0,0-1.11-4.69,8.85,8.85,0,0,0-3.16-3.46A8.62,8.62,0,0,0,49.68,91.54Zm0-4.14a13.06,13.06,0,0,1,7,1.86,13.29,13.29,0,0,1,4.79,5A13.72,13.72,0,0,1,63.19,101a13.49,13.49,0,0,1-6.52,11.69,13.07,13.07,0,0,1-7,1.87,13.07,13.07,0,0,1-7-1.87,13.89,13.89,0,0,1-4.76-18.47,13.29,13.29,0,0,1,4.79-5A13.08,13.08,0,0,1,49.68,87.4Z"/></clipPath><clipPath id="clip-path-5" transform="translate(5 7.07)"><path class="cls-1" d="M74.42,87.91V92a14,14,0,0,1,2.12-2.09,12.58,12.58,0,0,1,2.93-1.79,8.26,8.26,0,0,1,3.39-.72,9.83,9.83,0,0,1,4.81,1.16,8.47,8.47,0,0,1,3.47,3.52A12.26,12.26,0,0,1,92.43,98v15.78H88.19V98.42a7.74,7.74,0,0,0-1.48-5.12,5.53,5.53,0,0,0-4.53-1.76A6.87,6.87,0,0,0,78,93.06a18.07,18.07,0,0,0-3.6,3.55v17.18H70.18V87.91Z"/></clipPath><clipPath id="clip-path-7" transform="translate(5 7.07)"><path class="cls-1" d="M104.6,75.49a3.32,3.32,0,0,1,2.51,1.06,3.5,3.5,0,1,1-5,0A3.31,3.31,0,0,1,104.6,75.49Zm2.63,12.42v25.88H103V91.9H98.9v-4Z"/></clipPath><clipPath id="clip-path-9" transform="translate(5 7.07)"><path class="cls-1" d="M127.83,91.54a7.93,7.93,0,0,0-4.76,1.39,9.28,9.28,0,0,0-3,3.6,10.78,10.78,0,0,0-1.07,4.74,10.23,10.23,0,0,0,1,4.58,8.31,8.31,0,0,0,2.92,3.33,7.81,7.81,0,0,0,4.38,1.25,7.49,7.49,0,0,0,4.24-1.25,8.47,8.47,0,0,0,3-3.44,10.53,10.53,0,0,0,1-4.94v-5a13.24,13.24,0,0,0-3.44-3.15A7.74,7.74,0,0,0,127.83,91.54Zm-.77-4.14a10.75,10.75,0,0,1,4.53,1.06,11.72,11.72,0,0,1,3.95,2.92V87.91h4.25v25.88h-4.25v-4.4A12.68,12.68,0,0,1,131.9,113a9.19,9.19,0,0,1-5.26,1.56,11.44,11.44,0,0,1-6-1.68,12.34,12.34,0,0,1-4.38-4.69,14.29,14.29,0,0,1-1.63-6.93,15.76,15.76,0,0,1,1.63-7.4,11.75,11.75,0,0,1,4.48-4.79A12.31,12.31,0,0,1,127.06,87.4Z"/></clipPath><clipPath id="clip-path-11" transform="translate(5 7.07)"><polygon class="cls-1" points="59.51 0.16 63.3 4.02 33.31 33.46 63.04 63.74 58.89 67.82 25.37 33.68 59.51 0.16"/></clipPath><clipPath id="clip-path-13" transform="translate(5 7.07)"><polygon class="cls-1" points="69.81 0.56 74.02 4.85 44.98 33.36 73.85 62.76 69.21 67.32 36.13 33.63 69.81 0.56"/></clipPath><clipPath id="clip-path-15" transform="translate(5 7.07)"><rect class="cls-1" x="57.43" y="9.77" width="47.2" height="47.2" transform="translate(-0.17 66.34) rotate(-44.48)"/></clipPath><clipPath id="clip-path-17" transform="translate(5 7.07)"><path class="cls-1" d="M44,126a3.75,3.75,0,0,1,1.52.26,8.24,8.24,0,0,1,1.06.56v1.46a5.15,5.15,0,0,0-1.06-.62,3.2,3.2,0,0,0-1.36-.29,3.08,3.08,0,0,0-1,.16,2,2,0,0,0-.85.53A1.24,1.24,0,0,0,42,129a1.1,1.1,0,0,0,.46,1,7.36,7.36,0,0,0,1.09.63l1.44.65a5.05,5.05,0,0,1,1.62,1.08,2.22,2.22,0,0,1,.55,1.58,2.45,2.45,0,0,1-.5,1.51,3.58,3.58,0,0,1-1.31,1,4.38,4.38,0,0,1-1.78.38,4.6,4.6,0,0,1-1.68-.32,6.41,6.41,0,0,1-1.32-.7v-1.45a8.9,8.9,0,0,0,1.39.76,4.77,4.77,0,0,0,1.79.33,2.57,2.57,0,0,0,1.38-.39,1.22,1.22,0,0,0,.59-1.08,1,1,0,0,0-.24-.67,2.08,2.08,0,0,0-.59-.48,6.11,6.11,0,0,0-.67-.35l-1.73-.78A3.29,3.29,0,0,1,41,130.52a2.93,2.93,0,0,1-.41-1.55,2.41,2.41,0,0,1,.48-1.49,3.18,3.18,0,0,1,1.27-1A3.87,3.87,0,0,1,44,126Z"/></clipPath><clipPath id="clip-path-19" transform="translate(5 7.07)"><path class="cls-1" d="M52.49,129.94a2.11,2.11,0,0,0-1.6.65,3,3,0,0,0-.78,1.57h4.71a2.53,2.53,0,0,0-.43-1.25,2.27,2.27,0,0,0-1.9-1Zm0-1.25a3.62,3.62,0,0,1,2,.5,3.08,3.08,0,0,1,1.19,1.36,4.47,4.47,0,0,1,.4,1.94v.76h-6a3,3,0,0,0,.46,1.21,2.56,2.56,0,0,0,.93.86,2.69,2.69,0,0,0,1.33.32,3.25,3.25,0,0,0,1.58-.42,6.26,6.26,0,0,0,1.23-1v1.39a3.49,3.49,0,0,1-.65.56,4.6,4.6,0,0,1-1,.48,3.48,3.48,0,0,1-1.16.19,4,4,0,0,1-3.55-2,4.12,4.12,0,0,1-.53-2,4.32,4.32,0,0,1,.49-2,4,4,0,0,1,1.33-1.5A3.43,3.43,0,0,1,52.49,128.69Z"/></clipPath><clipPath id="clip-path-21" transform="translate(5 7.07)"><path class="cls-1" d="M59.47,128.85v1.56a4,4,0,0,1,1.1-1.25,2.14,2.14,0,0,1,1.31-.47,1.86,1.86,0,0,1,.81.16v1.48a1.88,1.88,0,0,0-1-.29,1.6,1.6,0,0,0-1.29.56,7.29,7.29,0,0,0-.93,1.34v4.72H58.19v-7.81Z"/></clipPath><clipPath id="clip-path-23" transform="translate(5 7.07)"><polygon class="cls-1" points="71.22 128.85 67.55 136.66 66.75 136.66 63.24 128.85 64.77 128.85 67.13 134.6 69.69 128.85 71.22 128.85"/></clipPath><clipPath id="clip-path-25" transform="translate(5 7.07)"><path class="cls-1" d="M74,125.1a1.09,1.09,0,0,1,1.07,1.05,1,1,0,0,1-.32.74,1,1,0,0,1-.75.34,1,1,0,0,1-.76-.34,1,1,0,0,1-.32-.74A1.09,1.09,0,0,1,74,125.1Zm.83,3.75v7.81H73.55V130H72.32v-1.2Z"/></clipPath><clipPath id="clip-path-27" transform="translate(5 7.07)"><path class="cls-1" d="M81.13,128.69a3.42,3.42,0,0,1,1.48.28,3,3,0,0,1,.86.49v1.29a5,5,0,0,0-1-.57,3.25,3.25,0,0,0-1.34-.24,2.49,2.49,0,0,0-1.45.4,2.67,2.67,0,0,0-1,1,3.16,3.16,0,0,0,0,2.81,2.88,2.88,0,0,0,1,1,2.75,2.75,0,0,0,1.45.39,3.42,3.42,0,0,0,1.34-.24,4.7,4.7,0,0,0,1-.57v1.3a2.94,2.94,0,0,1-.86.5,3.91,3.91,0,0,1-1.48.26,4,4,0,0,1-3.56-2.05,4.14,4.14,0,0,1-.52-2,4.35,4.35,0,0,1,.52-2,4.09,4.09,0,0,1,1.45-1.5A3.92,3.92,0,0,1,81.13,128.69Z"/></clipPath><clipPath id="clip-path-29" transform="translate(5 7.07)"><path class="cls-1" d="M88.8,129.94a2.07,2.07,0,0,0-1.59.65,2.83,2.83,0,0,0-.78,1.57h4.7a2.53,2.53,0,0,0-.43-1.25,2.27,2.27,0,0,0-1.9-1Zm0-1.25a3.62,3.62,0,0,1,2,.5,3.22,3.22,0,0,1,1.2,1.36,4.61,4.61,0,0,1,.39,1.94v.76h-6a3.13,3.13,0,0,0,.46,1.21,2.65,2.65,0,0,0,2.26,1.18,3.11,3.11,0,0,0,1.58-.42,6.63,6.63,0,0,0,1.24-1v1.39a3.49,3.49,0,0,1-.65.56,4.6,4.6,0,0,1-1,.48,3.59,3.59,0,0,1-1.17.19,4,4,0,0,1-2.11-.56,4.07,4.07,0,0,1-2-3.53,4.47,4.47,0,0,1,.48-2,3.88,3.88,0,0,1,1.34-1.5A3.4,3.4,0,0,1,88.8,128.69Z"/></clipPath><clipPath id="clip-path-31" transform="translate(5 7.07)"><path class="cls-1" d="M96.83,128.69a3.73,3.73,0,0,1,1.28.2,2.5,2.5,0,0,1,.86.4v1.37a3.33,3.33,0,0,0-.89-.48,2.82,2.82,0,0,0-1.15-.24,1.54,1.54,0,0,0-1.11.35,1,1,0,0,0-.36.71,1.12,1.12,0,0,0,.21.61,1.56,1.56,0,0,0,.74.49l1.31.47a2.22,2.22,0,0,1,1.14.76,1.91,1.91,0,0,1,.38,1.17,2.1,2.1,0,0,1-.37,1.21,2.6,2.6,0,0,1-1,.86,3.38,3.38,0,0,1-1.5.32,4.24,4.24,0,0,1-.94-.11,6.92,6.92,0,0,1-.88-.28,3.92,3.92,0,0,1-.58-.29v-1.38a4.59,4.59,0,0,0,.61.35,6.36,6.36,0,0,0,.86.33,3.42,3.42,0,0,0,.84.13,1.91,1.91,0,0,0,1.16-.32,1,1,0,0,0,.43-.82.67.67,0,0,0-.29-.59,3.41,3.41,0,0,0-.83-.42l-1.16-.42a2.24,2.24,0,0,1-1.2-.87,2.4,2.4,0,0,1-.3-1.2,2.09,2.09,0,0,1,.75-1.65A2.89,2.89,0,0,1,96.83,128.69Z"/></clipPath></defs><g id="Calque_2" data-name="Calque 2"><g id="Calque_1-2" data-name="Calque 1"><g class="cls-2"><g class="cls-3"><rect class="cls-4" y="80.35" width="41" height="46.04"/></g></g><g class="cls-5"><g class="cls-3"><rect class="cls-4" x="36.18" y="89.46" width="37.01" height="37.18"/></g></g><g class="cls-6"><g class="cls-3"><rect class="cls-4" x="70.18" y="89.48" width="32.26" height="36.38"/></g></g><g class="cls-7"><g class="cls-3"><rect class="cls-4" x="98.9" y="77.56" width="19.22" height="48.3"/></g></g><g class="cls-8"><g class="cls-3"><rect class="cls-4" x="114.63" y="89.47" width="35.17" height="37.17"/></g></g><g class="cls-9"><g class="cls-3"><rect class="cls-10" x="25.37" y="2.23" width="47.93" height="77.66"/></g></g><g class="cls-11"><g class="cls-3"><rect class="cls-12" x="36.13" y="2.63" width="47.89" height="76.76"/></g></g><g class="cls-13"><g class="cls-3"><rect class="cls-4" x="52.43" y="4.77" width="57.2" height="57.2" transform="translate(4.83 73.41) rotate(-44.48)"/></g></g><g class="cls-14"><g class="cls-3"><rect x="40.57" y="128.07" width="16.59" height="20.83"/></g></g><g class="cls-15"><g class="cls-3"><rect x="48.72" y="130.75" width="17.36" height="18.15"/></g></g><g class="cls-16"><g class="cls-3"><rect x="58.19" y="130.76" width="14.5" height="17.97"/></g></g><g class="cls-17"><g class="cls-3"><rect x="63.24" y="130.92" width="17.98" height="17.81"/></g></g><g class="cls-18"><g class="cls-3"><rect x="72.32" y="127.17" width="12.75" height="21.56"/></g></g><g class="cls-19"><g class="cls-3"><rect x="77.05" y="130.75" width="16.42" height="18.15"/></g></g><g class="cls-20"><g class="cls-3"><rect x="85" y="130.75" width="17.39" height="18.15"/></g></g><g class="cls-21"><g class="cls-3"><rect x="93.97" y="130.75" width="15.27" height="18.2"/></g></g></g></g></svg>