<svg xmlns="http://www.w3.org/2000/svg" xmlns:xlink="http://www.w3.org/1999/xlink" viewBox="0 0 428 926"><defs><style>.cls-1{fill:none;}.cls-2{clip-path:url(#clip-path);}.cls-3{fill:#f6f5f5;}.cls-4{clip-path:url(#clip-path-2);}.cls-5{clip-path:url(#clip-path-3);}.cls-6{clip-path:url(#clip-path-4);}.cls-7{clip-path:url(#clip-path-5);}</style><clipPath id="clip-path" transform="translate(50 275)"><rect class="cls-1" x="22.35" y="51" width="2.03" height="2"/></clipPath><clipPath id="clip-path-2" transform="translate(50 275)"><path class="cls-1" d="M27.3,41.45V61H15.75V41.45ZM25.2,27.09h5.25v5.13h-2.1a3.12,3.12,0,0,1-3.15-3.08Zm0-4.1a3.12,3.12,0,0,1,3.15-3.08h2.1V25H25.2Zm9.45-3.08A3.12,3.12,0,0,1,37.8,23V25H32.55V19.91Zm-2.1,7.18H37.8v2.05a3.12,3.12,0,0,1-3.15,3.08h-2.1ZM42,47.61l2.1-3.08,2.1,3.08v3.08h4.2V47.61l2.1-3.08,2.1,3.08V61H50.4V54.79H46.2V61H42V54.79H37.8V61H33.6V47.61l2.1-3.08,2.1,3.08v3.08H42ZM56.7,61V23.72L31.5,7,6.3,23.72v11a3.67,3.67,0,0,1,3.41,2.24c2.61,6.32,3.94,10.61,3.94,12.75,0,4.28-2.65,7.59-6.3,8.12V55.71c2.4-.52,4.2-2.82,4.2-6.05,0-2.4-2.24-8.23-3.79-12a1.59,1.59,0,0,0-2.92,0c-1.55,3.75-3.79,9.58-3.79,12,0,3.23,1.8,5.53,4.2,6.05V61H0v2H63V61Z"/></clipPath><clipPath id="clip-path-3" transform="translate(50 275)"><rect class="cls-1" x="-50" y="-275" width="428" height="926"/></clipPath><clipPath id="clip-path-4" transform="translate(50 275)"><polygon points="31.5 4.82 59.63 23 61.98 19.7 31.5 0 1.02 19.7 3.37 23 31.5 4.82"/></clipPath><clipPath id="clip-path-5" transform="translate(50 275)"><rect x="-50" y="-275" width="428" height="926"/></clipPath></defs><g id="Calque_2" data-name="Calque 2"><g id="Calque_1-2" data-name="Calque 1"><g class="cls-2"><rect class="cls-3" x="67.35" y="321" width="12.03" height="12"/></g><path d="M27.3,41.45V61H15.75V41.45ZM25.2,27.09h5.25v5.13h-2.1a3.12,3.12,0,0,1-3.15-3.08Zm0-4.1a3.12,3.12,0,0,1,3.15-3.08h2.1V25H25.2Zm9.45-3.08A3.12,3.12,0,0,1,37.8,23V25H32.55V19.91Zm-2.1,7.18H37.8v2.05a3.12,3.12,0,0,1-3.15,3.08h-2.1ZM42,47.61l2.1-3.08,2.1,3.08v3.08h4.2V47.61l2.1-3.08,2.1,3.08V61H50.4V54.79H46.2V61H42V54.79H37.8V61H33.6V47.61l2.1-3.08,2.1,3.08v3.08H42ZM56.7,61V23.72L31.5,7,6.3,23.72v11a3.67,3.67,0,0,1,3.41,2.24c2.61,6.32,3.94,10.61,3.94,12.75,0,4.28-2.65,7.59-6.3,8.12V55.71c2.4-.52,4.2-2.82,4.2-6.05,0-2.4-2.24-8.23-3.79-12a1.59,1.59,0,0,0-2.92,0c-1.55,3.75-3.79,9.58-3.79,12,0,3.23,1.8,5.53,4.2,6.05V61H0v2H63V61Z" transform="translate(50 275)"/><g class="cls-4"><rect width="428" height="926"/><g class="cls-5"><rect x="45" y="277" width="73" height="66"/></g></g><polygon points="81.5 279.82 109.63 298 111.98 294.7 81.5 275 51.02 294.7 53.37 298 81.5 279.82"/><g class="cls-6"><rect width="428" height="926"/><g class="cls-7"><rect x="46.02" y="270" width="70.97" height="33"/></g></g></g></g></svg>