<svg xmlns="http://www.w3.org/2000/svg" viewBox="0 0 14.98 16.75"><defs><style>.cls-1{fill:#1d1d1b;}</style></defs><g id="Calque_2" data-name="Calque 2"><g id="Calque_2-2" data-name="Calque 2"><path class="cls-1" d="M12.93,7.33a11,11,0,0,1,.2,2.19c0,.29,0,.59,0,.9h0a6.38,6.38,0,0,1-.8,3,.58.58,0,1,0,1,.62,7.62,7.62,0,0,0,1-3.56h0q0-.5,0-1a12.79,12.79,0,0,0-.22-2.42.59.59,0,0,0-.68-.45.58.58,0,0,0-.46.68Z"/><path class="cls-1" d="M12,3.41a6.15,6.15,0,0,0-2.9-1.3h0l-.19,0L8.61,2a.58.58,0,1,0-.18,1.14l.3,0h0l.2,0L9,2.68l-.1.57a5,5,0,0,1,2.38,1A.58.58,0,0,0,12,3.41Z"/><path class="cls-1" d="M8.44,3.18h0l.5.06a.58.58,0,0,0,.13-1.15L8.59,2h0a.58.58,0,1,0-.14,1.15Z"/><path class="cls-1" d="M2.89,12.35a4.86,4.86,0,0,1-.23-1.57A8.71,8.71,0,0,1,2.8,9.24h0a8.71,8.71,0,0,1,2-4.72A4.47,4.47,0,0,1,8.14,3.2h0V2.62l0,.58h.33a1.58,1.58,0,0,1,.28,0H9a.58.58,0,0,0,.13-1.15H8.84l0,.57.06-.57c-.12,0-.25,0-.41,0H8.32l0,.57,0-.57H8.14A5.57,5.57,0,0,0,4,3.71,9.72,9.72,0,0,0,1.66,9.05h0a10.81,10.81,0,0,0-.16,1.73,6,6,0,0,0,.3,2,.58.58,0,0,0,.74.36.58.58,0,0,0,.35-.74Z"/><path class="cls-1" d="M9.75,1.8l-.57-.06a.77.77,0,0,1-.25.48l.33.47-.2-.54H9l.2.54.06-.57-.2,0-.6,0H8.36v.58l.36-.46a.56.56,0,0,1-.15-.42v-.1h0a.71.71,0,0,1,.17-.41l.17-.11h0l.14.1a.69.69,0,0,1,.1.38v.1h0l.57.06.58.07V1.64a1.81,1.81,0,0,0-.32-1A1.33,1.33,0,0,0,9.07,0H8.93a1.39,1.39,0,0,0-1,.49,1.9,1.9,0,0,0-.46,1.05h0v.24A1.68,1.68,0,0,0,8,3.11a.56.56,0,0,0,.37.11h.1l.47,0,.2,0,.26,0h0l.13-.06a1.79,1.79,0,0,0,.74-1.3h0Z"/><path class="cls-1" d="M12.73,14.31l.32,0a1.59,1.59,0,0,1,.66.22l.12.11h0l.1,0h-.1v0l.1,0h-.1l.57.06-.57-.06h.11l-.1-.05v0h.11l-.1-.05,0,0,0,0h0l0,0,0,0a.46.46,0,0,1-.17.09,1.39,1.39,0,0,1-.46.07H13L1.92,13.49a1.5,1.5,0,0,1-.65-.21l-.11-.11h0l-.08,0h.08v0l-.08,0H1l.15,0v0H1l.15,0h0l-.11,0,.11.05v0l-.11,0,.11.05,0,0,0,0h0l0,0,0,0a.37.37,0,0,1,.17-.1,1.37,1.37,0,0,1,.45-.07H2l.31,0A.58.58,0,1,0,2.41,12l-.31,0H1.76a2.3,2.3,0,0,0-1.09.24,1.21,1.21,0,0,0-.66.91l.57.06L0,13.06v.13a1.13,1.13,0,0,0,.19.61,2.15,2.15,0,0,0,1.6.84l11.08,1.27.34,0a2.42,2.42,0,0,0,1.09-.24,1.44,1.44,0,0,0,.43-.35,1.1,1.1,0,0,0,.25-.56h0v-.11a1.16,1.16,0,0,0-.19-.62,2.26,2.26,0,0,0-1.61-.84l-.32,0a.57.57,0,1,0-.13,1.14Z"/><path class="cls-1" d="M7.87,15.39a.93.93,0,0,1,.26.18v0h0l.11-.06H8.14v.06l.11-.06H8.14l.13,0-.1-.1,0,.08.13,0-.1-.1a.44.44,0,0,1-.2.1,1.67,1.67,0,0,1-.5.07l-.29,0a2.17,2.17,0,0,1-.79-.24l-.14-.12h0l-.15.06h.16v-.06l-.15.06H6l.24,0v0H6l.24,0h0l-.16,0,.13.09,0-.07-.16,0,.13.09h0a1,1,0,0,1,.32-.13A.57.57,0,0,0,7,14.55a.58.58,0,0,0-.69-.44,2.13,2.13,0,0,0-.74.32,1.09,1.09,0,0,0-.45.74l.57.06-.57-.07v.12a1.06,1.06,0,0,0,.23.64,1.85,1.85,0,0,0,.74.55,3.28,3.28,0,0,0,1,.26l.42,0a2.64,2.64,0,0,0,1.1-.22A1.25,1.25,0,0,0,9,16.21a1,1,0,0,0,.26-.57h0v-.11A1.09,1.09,0,0,0,9,14.79a2.22,2.22,0,0,0-.6-.44.59.59,0,0,0-.78.27.58.58,0,0,0,.27.77Z"/></g></g></svg>