<svg xmlns="http://www.w3.org/2000/svg" viewBox="0 0 19.01 16.75"><defs><style>.cls-1{fill:#1d1d1b;}</style></defs><g id="Calque_2" data-name="Calque 2"><g id="Calque_2-2" data-name="Calque 2"><path class="cls-1" d="M7.93,2.41V1.85a.75.75,0,0,1,.18-.5.45.45,0,0,1,.33-.17H11a.42.42,0,0,1,.33.17.71.71,0,0,1,.18.5v.59a.59.59,0,0,0,.59.59.58.58,0,0,0,.59-.59V1.85A1.92,1.92,0,0,0,12.25.57,1.61,1.61,0,0,0,11,0H8.44A1.63,1.63,0,0,0,7.22.57a2,2,0,0,0-.47,1.28v.56A.59.59,0,0,0,7.34,3a.58.58,0,0,0,.59-.59Z"/><path class="cls-1" d="M9.78,15.57H9.25v0c-3.17-.05-5.21-.58-6.38-1.52A3.85,3.85,0,0,1,1.6,12.31a7.43,7.43,0,0,1-.42-2.63V9.6A10.14,10.14,0,0,1,1.6,6.46a4.19,4.19,0,0,1,2-2.52,9.21,9.21,0,0,1,3.8-1,.58.58,0,0,0,.54-.63.58.58,0,0,0-.63-.54C5.07,2,3.23,2.46,1.93,3.7A5.69,5.69,0,0,0,.47,6.1,11.23,11.23,0,0,0,0,9.6v.08a8.52,8.52,0,0,0,.5,3.05,5.3,5.3,0,0,0,2.94,3,15.11,15.11,0,0,0,5.8,1h.54a.59.59,0,0,0,0-1.18Z"/><path class="cls-1" d="M9.25,16.75h.54c3.28-.06,5.56-.58,7.09-1.76a5.13,5.13,0,0,0,1.64-2.26A8.53,8.53,0,0,0,19,9.68V9.6c0-2.64-.57-4.51-1.78-5.76a7.87,7.87,0,0,0-5-2,.61.61,0,0,0-.65.53.6.6,0,0,0,.53.65,6.72,6.72,0,0,1,4.31,1.63c.91,1,1.45,2.45,1.45,4.94v.08a7.45,7.45,0,0,1-.41,2.63,4.15,4.15,0,0,1-2.32,2.37,14,14,0,0,1-5.33.89v0H9.25a.59.59,0,1,0,0,1.18Z"/><path class="cls-1" d="M13.9,9.5h-.59A3.57,3.57,0,1,1,9.74,5.93,3.58,3.58,0,0,1,13.31,9.5h1.18a4.75,4.75,0,1,0-4.75,4.75A4.75,4.75,0,0,0,14.49,9.5Z"/><path class="cls-1" d="M4,5.92H5.23a.59.59,0,0,0,.59-.59.58.58,0,0,0-.59-.59H4a.59.59,0,0,0-.6.59.6.6,0,0,0,.6.59"/></g></g></svg>