<svg xmlns="http://www.w3.org/2000/svg" viewBox="0 0 23.16 16.75"><g id="Calque_2" data-name="Calque 2"><g id="Calque_2-2" data-name="Calque 2"><path d="M19.77,6.71a3.48,3.48,0,0,1,1.56,1.52,5.32,5.32,0,0,1,.47,2.39A4.79,4.79,0,0,1,20.41,14l.48.48L20.41,14A4.79,4.79,0,0,1,17,15.39H6.13A4.77,4.77,0,0,1,2.76,7.24h0A4.87,4.87,0,0,1,4.54,6.13.68.68,0,0,0,5,5.26a.67.67,0,0,0-.86-.42,6.18,6.18,0,0,0-2.3,1.44h0A6.14,6.14,0,0,0,6.13,16.75H17A6.16,6.16,0,0,0,21.37,15h0a6.16,6.16,0,0,0,1.78-4.34,6.52,6.52,0,0,0-.62-3A4.9,4.9,0,0,0,20.4,5.5a.68.68,0,1,0-.63,1.21Z"/><path d="M5,5.43c0-.13,0-.26,0-.35a3.67,3.67,0,0,1,7-1.65.68.68,0,0,0,1.22-.6A5,5,0,0,0,3.61,5.08c0,.17,0,.33,0,.46a.68.68,0,0,0,.74.62A.67.67,0,0,0,5,5.43Z"/><path d="M12.92,3.7a2.4,2.4,0,0,1,1.3-.39,3.19,3.19,0,0,1,.75,0,1,1,0,0,1,.46.26.67.67,0,0,0,1-.08.68.68,0,0,0-.08-1,2.55,2.55,0,0,0-1-.55A4.74,4.74,0,0,0,14.22,2a3.71,3.71,0,0,0-2.05.61.68.68,0,1,0,.75,1.14Z"/><path d="M15.39,7.56,16.75,9a1.15,1.15,0,0,0,.82.36A1.11,1.11,0,0,0,18.39,9l1.37-1.48a.67.67,0,0,0,0-1,.68.68,0,0,0-1,0L17.39,8.11l.18.17V8l-.18.08.18.17v0l.18-.17L17.57,8v.25l.18-.17L16.39,6.63a.69.69,0,0,0-1,0,.68.68,0,0,0,0,1Z"/><path d="M18.25,8.63l-.07-8a.69.69,0,0,0-1.37,0l.08,8a.69.69,0,0,0,.69.68.67.67,0,0,0,.67-.69"/></g></g></svg>