<svg xmlns="http://www.w3.org/2000/svg" viewBox="0 0 15.27 16.75"><defs><style>.cls-1{fill:#1d1d1b;}</style></defs><g id="Calque_2" data-name="Calque 2"><g id="Calque_2-2" data-name="Calque 2"><path class="cls-1" d="M3.89,5.83h0a3.4,3.4,0,0,1-2.2-.52,1.28,1.28,0,0,1-.39-.6,3.26,3.26,0,0,1-.14-1v0a4.09,4.09,0,0,1,.19-1.39,1.33,1.33,0,0,1,.79-.87,5,5,0,0,1,1.76-.23A.58.58,0,0,0,4.47.58.58.58,0,0,0,3.89,0,4.5,4.5,0,0,0,1.08.67,2.57,2.57,0,0,0,.25,1.86,5.5,5.5,0,0,0,0,3.64v0a4.43,4.43,0,0,0,.2,1.4A2.48,2.48,0,0,0,1.5,6.55,5.34,5.34,0,0,0,3.88,7h0a.58.58,0,1,0,0-1.15Z"/><path class="cls-1" d="M3.7,7h0a4.38,4.38,0,0,0,3-.8,2.41,2.41,0,0,0,.72-1.1,4.44,4.44,0,0,0,.21-1.41h0v0a5.5,5.5,0,0,0-.25-1.78A2.53,2.53,0,0,0,5.9.32,5.89,5.89,0,0,0,3.7,0a.58.58,0,0,0-.58.58.58.58,0,0,0,.58.57,3.45,3.45,0,0,1,2.1.43,1.39,1.39,0,0,1,.45.67,4.09,4.09,0,0,1,.19,1.39v0h0a3.26,3.26,0,0,1-.14,1,1.33,1.33,0,0,1-.71.81,4.44,4.44,0,0,1-1.88.31h0A.58.58,0,1,0,3.7,7Z"/><path class="cls-1" d="M11.47,15.6h0a3.36,3.36,0,0,1-2.2-.52,1.3,1.3,0,0,1-.38-.6,3.53,3.53,0,0,1-.15-1v0A4.36,4.36,0,0,1,8.92,12a1.29,1.29,0,0,1,.79-.86,4.76,4.76,0,0,1,1.76-.24.57.57,0,0,0,.58-.57.58.58,0,0,0-.58-.58,4.54,4.54,0,0,0-2.8.67,2.48,2.48,0,0,0-.83,1.2,5.12,5.12,0,0,0-.26,1.77v0a4.42,4.42,0,0,0,.21,1.4,2.48,2.48,0,0,0,1.29,1.48,5.52,5.52,0,0,0,2.38.42h0a.58.58,0,1,0,0-1.15Z"/><path class="cls-1" d="M11.28,16.75h0a4.36,4.36,0,0,0,3-.8,2.43,2.43,0,0,0,.73-1.1,4.43,4.43,0,0,0,.2-1.4h0v0a5.39,5.39,0,0,0-.25-1.77,2.48,2.48,0,0,0-1.43-1.55,5.91,5.91,0,0,0-2.21-.32.57.57,0,0,0-.57.58.56.56,0,0,0,.57.57,3.51,3.51,0,0,1,2.1.43,1.4,1.4,0,0,1,.46.67A4.41,4.41,0,0,1,14,13.41v0h0a3.26,3.26,0,0,1-.14,1,1.27,1.27,0,0,1-.71.81,4.41,4.41,0,0,1-1.88.31h0a.58.58,0,0,0,0,1.15Z"/><path class="cls-1" d="M11.57,8.52h0a3.87,3.87,0,0,1-1.36-.2,1.68,1.68,0,0,1-1-1A5.61,5.61,0,0,1,8.83,5.1v0c0-1.87.31-2.85.72-3.3a1.55,1.55,0,0,1,.77-.47,4.44,4.44,0,0,1,1.25-.14.58.58,0,0,0,.58-.57A.58.58,0,0,0,11.57,0,5.8,5.8,0,0,0,10,.18,2.77,2.77,0,0,0,8.22,1.71a7.89,7.89,0,0,0-.54,3.35v.05a5.45,5.45,0,0,0,.85,3.38A2.92,2.92,0,0,0,9.8,9.4a5,5,0,0,0,1.76.27h0a.57.57,0,0,0,.58-.57.58.58,0,0,0-.58-.58Z"/><path class="cls-1" d="M11.38,9.67h0a5,5,0,0,0,1.76-.27,2.86,2.86,0,0,0,1.67-1.58,6.84,6.84,0,0,0,.45-2.71h0V5.06c0-2-.29-3.23-1-4.06A2.81,2.81,0,0,0,13,.18,5.8,5.8,0,0,0,11.38,0a.58.58,0,0,0-.58.58.58.58,0,0,0,.58.57,4.44,4.44,0,0,1,1.25.14,1.55,1.55,0,0,1,1,.91,6.82,6.82,0,0,1,.44,2.86v.05h0a4.36,4.36,0,0,1-.61,2.68,1.65,1.65,0,0,1-.76.54,3.87,3.87,0,0,1-1.36.2h0a.58.58,0,0,0-.58.58.57.57,0,0,0,.58.57Z"/><path class="cls-1" d="M3.89,15.6h0a3.87,3.87,0,0,1-1.36-.2,1.71,1.71,0,0,1-1-1,5.65,5.65,0,0,1-.35-2.25v0c0-1.86.31-2.85.72-3.3a1.47,1.47,0,0,1,.77-.46,4.44,4.44,0,0,1,1.25-.14.58.58,0,0,0,.58-.58.57.57,0,0,0-.58-.57,5.8,5.8,0,0,0-1.58.18A2.78,2.78,0,0,0,.54,8.78,7.92,7.92,0,0,0,0,12.13v.06a5.45,5.45,0,0,0,.85,3.38,2.86,2.86,0,0,0,1.27.91,5,5,0,0,0,1.76.27h0a.58.58,0,1,0,0-1.15Z"/><path class="cls-1" d="M3.7,16.75h0a5,5,0,0,0,1.76-.27,2.88,2.88,0,0,0,1.67-1.59,6.8,6.8,0,0,0,.45-2.71v0c0-2-.29-3.22-1-4.05a2.65,2.65,0,0,0-1.3-.82A5.8,5.8,0,0,0,3.7,7.08a.57.57,0,0,0-.58.57.58.58,0,0,0,.58.58A4.44,4.44,0,0,1,5,8.37a1.55,1.55,0,0,1,1,.91,6.77,6.77,0,0,1,.44,2.85v0h0a4.36,4.36,0,0,1-.61,2.68,1.73,1.73,0,0,1-.76.54,3.87,3.87,0,0,1-1.36.2h0a.58.58,0,1,0,0,1.15Z"/></g></g></svg>