<svg xmlns="http://www.w3.org/2000/svg" viewBox="0 0 15.4 16.75"><defs><style>.cls-1{fill:#1d1d1b;}</style></defs><g id="Calque_2" data-name="Calque 2"><g id="Calque_2-2" data-name="Calque 2"><path d="M9.76,8.72,7.91,10.57l-.21.09-.2-.09L5.64,8.72a.56.56,0,0,0-.81,0,.58.58,0,0,0,0,.81l1.85,1.85a1.45,1.45,0,0,0,2,0l1.85-1.85a.57.57,0,0,0-.81-.81Z"/><path d="M8.28,10.18V.57A.58.58,0,0,0,7.7,0a.57.57,0,0,0-.57.57v9.61a.57.57,0,0,0,.57.57.58.58,0,0,0,.58-.57"/><path class="cls-1" d="M10,4.64a7.08,7.08,0,0,1,2.24.68,3.3,3.3,0,0,1,1.61,1.83,8.72,8.72,0,0,1,.42,3.07.57.57,0,0,0,1.14,0,7.89,7.89,0,0,0-1-4.43,4.52,4.52,0,0,0-1.66-1.48,8,8,0,0,0-2.61-.8A.57.57,0,0,0,9.51,4a.56.56,0,0,0,.48.65Z"/><path class="cls-1" d="M1.15,10.22v0A6.83,6.83,0,0,1,2,6.33,4.06,4.06,0,0,1,4.72,4.7.57.57,0,0,0,5.16,4a.59.59,0,0,0-.69-.44,5.26,5.26,0,0,0-3.4,2.11A7.94,7.94,0,0,0,0,10.19v0a.57.57,0,0,0,.57.57.57.57,0,0,0,.58-.57Z"/><path class="cls-1" d="M0,9.85v0A10.07,10.07,0,0,0,.42,13a4.74,4.74,0,0,0,2.43,2.91,9.83,9.83,0,0,0,4.4.82h.09a15.1,15.1,0,0,0,4-.44,4.9,4.9,0,0,0,3.29-2.4,8.51,8.51,0,0,0,.75-4.06.57.57,0,0,0-1.14,0A10.14,10.14,0,0,1,14,12.41a3.36,3.36,0,0,1-1.75,2.33,10.58,10.58,0,0,1-4.91.86H7.25c-2.25,0-3.77-.4-4.68-1.24a3.75,3.75,0,0,1-1.06-1.69,9.09,9.09,0,0,1-.36-2.79v0A.58.58,0,0,0,0,9.85Z"/></g></g></svg>