<svg xmlns="http://www.w3.org/2000/svg" viewBox="0 0 16.75 16.75"><g id="Calque_2" data-name="Calque 2"><g id="Calque_2-2" data-name="Calque 2"><path d="M16.21,8.37h-.54a7.31,7.31,0,0,1-7.29,7.3A7.29,7.29,0,0,1,3.22,3.22,7.3,7.3,0,0,1,15.67,8.37h1.08a8.38,8.38,0,1,0-8.37,8.38,8.37,8.37,0,0,0,8.37-8.38Z"/><path d="M5.41,12.12l.2.5,4.56-1.86a1.12,1.12,0,0,0,.61-.62h0l1.81-4.57a1,1,0,0,0,.07-.41,1.11,1.11,0,0,0-1.1-1.11,1.2,1.2,0,0,0-.42.08L6.58,6h0A1.16,1.16,0,0,0,6,6.61L4.16,11.19a1.12,1.12,0,0,0-.07.4,1.11,1.11,0,0,0,1.1,1.11,1.2,1.2,0,0,0,.42-.08l-.2-.5-.2-.5h0v0h0L7,7V7H7l4.56-1.86h0v0h0L9.77,9.74h0v0L5.2,11.62Z"/><path d="M9.44,8.42H8.91A.59.59,0,0,1,8.33,9a.58.58,0,0,1-.57-.57.57.57,0,0,1,.57-.57.58.58,0,0,1,.58.57H10a1.65,1.65,0,1,0-1.65,1.65A1.64,1.64,0,0,0,10,8.42Z"/></g></g></svg>