<svg xmlns="http://www.w3.org/2000/svg" viewBox="0 0 17.35 16.75"><defs><style>.cls-1{fill:#1d1d1b;}</style></defs><g id="Calque_2" data-name="Calque 2"><g id="Calque_2-2" data-name="Calque 2"><path class="cls-1" d="M8,15.56H8c-2.71,0-4.39-.51-5.36-1.43a4,4,0,0,1-1.09-1.79,9.62,9.62,0,0,1-.36-2.78V9.48a12.13,12.13,0,0,1,.46-3.64A3.88,3.88,0,0,1,3.82,3.3,10.72,10.72,0,0,1,8,2.68.6.6,0,0,0,8,1.49C5.61,1.49,3.6,1.74,2.14,3A5.36,5.36,0,0,0,.52,5.47a13.06,13.06,0,0,0-.52,4v.09A10.7,10.7,0,0,0,.41,12.7,5.1,5.1,0,0,0,3,15.8,10.93,10.93,0,0,0,8,16.75H8a.59.59,0,0,0,.59-.6A.58.58,0,0,0,8,15.56Z"/><path class="cls-1" d="M11.22,1.85a14.5,14.5,0,0,0-3.63-.36.6.6,0,0,0,0,1.19A14,14,0,0,1,10.92,3a.61.61,0,0,0,.73-.43.59.59,0,0,0-.43-.72Z"/><path class="cls-1" d="M7.59,16.75h0c2.83,0,4.84-.51,6.18-1.75a5.22,5.22,0,0,0,1.41-2.3,11,11,0,0,0,.41-3.13V9.48a13.34,13.34,0,0,0-.44-3.73.59.59,0,0,0-.73-.41.6.6,0,0,0-.41.74,12.5,12.5,0,0,1,.39,3.4v.08a9.62,9.62,0,0,1-.36,2.78,3.88,3.88,0,0,1-2,2.4,9.77,9.77,0,0,1-4.49.82h0a.58.58,0,0,0-.59.59.59.59,0,0,0,.59.6Z"/><path d="M13.13,1.19h2.72a.3.3,0,0,1,.3.31V4.22a.6.6,0,1,0,1.2,0V1.5A1.5,1.5,0,0,0,15.85,0H13.13a.6.6,0,0,0-.6.6.59.59,0,0,0,.6.59Z"/><path d="M15.29,1.21,8.23,8.27a.6.6,0,0,0,.85.85l7-7.06a.6.6,0,0,0-.84-.85"/></g></g></svg>