<svg xmlns="http://www.w3.org/2000/svg" viewBox="0 0 16.75 16.75"><defs><style>.cls-1{fill:#1d1d1b;}</style></defs><g id="Calque_2" data-name="Calque 2"><g id="Calque_2-2" data-name="Calque 2"><path class="cls-1" d="M11.06.6V0H5.69A5.69,5.69,0,0,0,0,5.69v5.37a5.69,5.69,0,0,0,5.69,5.69h5.37a5.69,5.69,0,0,0,5.69-5.69V5.69A5.69,5.69,0,0,0,11.06,0V1.2a4.49,4.49,0,0,1,4.5,4.49v5.37a4.51,4.51,0,0,1-4.5,4.5H5.69a4.49,4.49,0,0,1-4.49-4.5V5.69A4.47,4.47,0,0,1,5.69,1.2h5.37Z"/><path class="cls-1" d="M8.38,3.91a.9.9,0,0,0-.56.19.62.62,0,0,0,0,1,.87.87,0,0,0,1.11,0,.62.62,0,0,0,.22-.48.6.6,0,0,0-.22-.47A.89.89,0,0,0,8.38,3.91Zm0,2A.57.57,0,0,0,8,6.06a.4.4,0,0,0-.16.32v6a.41.41,0,0,0,.16.33.59.59,0,0,0,.74,0,.43.43,0,0,0,.15-.33v-6a.4.4,0,0,0-.16-.32A.61.61,0,0,0,8.38,5.93Z"/><path class="cls-1" d="M8.38,3.91V3.76A1,1,0,0,0,7.73,4a.72.72,0,0,0-.28.58.75.75,0,0,0,.28.6,1,1,0,0,0,.65.23A.93.93,0,0,0,9,5.16.75.75,0,0,0,9,4a1,1,0,0,0-.64-.23v.3a.65.65,0,0,1,.45.16A.44.44,0,0,1,9,4.57a.46.46,0,0,1-.17.36.66.66,0,0,1-.45.17.71.71,0,0,1-.46-.16.46.46,0,0,1-.17-.37.44.44,0,0,1,.17-.35.66.66,0,0,1,.46-.16Zm0,2V5.78A.71.71,0,0,0,7.91,6a.56.56,0,0,0-.21.43v6a.58.58,0,0,0,.21.44.71.71,0,0,0,.47.17.68.68,0,0,0,.47-.17.57.57,0,0,0,.2-.44v-6A.53.53,0,0,0,8.83,6a.7.7,0,0,0-.45-.17v.3l.26.1.11.2v6l-.1.22a.38.38,0,0,1-.27.09.43.43,0,0,1-.28-.09L8,12.38v-6l.1-.2a.39.39,0,0,1,.28-.1Z"/></g></g></svg>