<svg xmlns="http://www.w3.org/2000/svg" viewBox="0 0 14.92 16.75"><g id="Calque_2" data-name="Calque 2"><g id="Calque_2-2" data-name="Calque 2"><path d="M11.8,2.05l.34-.43a7.55,7.55,0,0,0-10.09.67A7.27,7.27,0,0,0,0,7.4a8.16,8.16,0,0,0,2.91,6.21,34.76,34.76,0,0,0,4,2.92,1.37,1.37,0,0,0,.76.22,1.42,1.42,0,0,0,.72-.2,20.19,20.19,0,0,0,4.41-3.66,8,8,0,0,0,2.08-5.4,7.4,7.4,0,0,0-2.78-5.87l-.34.43-.34.43a6.31,6.31,0,0,1,2.37,5A7,7,0,0,1,12,12.15a19,19,0,0,1-4.16,3.46l-.16,0-.18-.05a35,35,0,0,1-3.91-2.83A7.05,7.05,0,0,1,1.1,7.4,6.17,6.17,0,0,1,2.83,3.05a6.48,6.48,0,0,1,8.63-.57Z"/><path d="M10.28,7.23H9.73A2.27,2.27,0,1,1,7.46,5,2.27,2.27,0,0,1,9.73,7.23h1.1a3.37,3.37,0,1,0-3.37,3.36,3.36,3.36,0,0,0,3.37-3.36Z"/></g></g></svg>