<svg xmlns="http://www.w3.org/2000/svg" viewBox="0 0 20.16 16.75"><defs><style>.cls-1{fill:#1d1d1b;}</style></defs><g id="Calque_2" data-name="Calque 2"><g id="Calque_2-2" data-name="Calque 2"><path class="cls-1" d="M10.36,15.62h0c-3.59,0-5.9-.57-7.25-1.64A4.44,4.44,0,0,1,1.6,12a8.91,8.91,0,0,1-.47-3.08V8.78a11.13,11.13,0,0,1,.61-4,4.72,4.72,0,0,1,3-2.89,16.63,16.63,0,0,1,5.66-.71.57.57,0,0,0,.57-.57A.57.57,0,0,0,10.36,0C7.19,0,4.63.28,2.78,1.58A5.83,5.83,0,0,0,.68,4.33,12.36,12.36,0,0,0,0,8.78v.09a10.34,10.34,0,0,0,.54,3.48,5.82,5.82,0,0,0,3.27,3.37,16.35,16.35,0,0,0,6.51,1h0a.57.57,0,0,0,.57-.56.58.58,0,0,0-.57-.57Z"/><path class="cls-1" d="M9.79,16.75h0c3.7,0,6.26-.56,8-1.88a5.66,5.66,0,0,0,1.82-2.52,10.09,10.09,0,0,0,.55-3.48V8.78a12.34,12.34,0,0,0-.69-4.45A5.9,5.9,0,0,0,15.86.78,17.66,17.66,0,0,0,9.79,0a.56.56,0,0,0-.56.56.56.56,0,0,0,.56.57c3.12,0,5.46.31,6.94,1.37a4.64,4.64,0,0,1,1.69,2.23,11.35,11.35,0,0,1,.61,4v.09A9.15,9.15,0,0,1,18.56,12a4.67,4.67,0,0,1-2.67,2.74,15.41,15.41,0,0,1-6.06.93h0a.57.57,0,0,0-.56.57.56.56,0,0,0,.56.56Z"/><path class="cls-1" d="M1.94,3.13,8.61,9.18a2.18,2.18,0,0,0,1.46.55,2.22,2.22,0,0,0,1.47-.55L18.2,3.12a.56.56,0,0,0,0-.79.57.57,0,0,0-.8,0L10.78,8.34a1.05,1.05,0,0,1-.71.26,1,1,0,0,1-.7-.26L2.7,2.3a.56.56,0,0,0-.76.83Z"/></g></g></svg>