<svg xmlns="http://www.w3.org/2000/svg" viewBox="0 0 19.13 16.75"><defs><style>.cls-1{fill:#1d1d1b;}</style></defs><g id="Calque_2" data-name="Calque 2"><g id="Calque_2-2" data-name="Calque 2"><path class="cls-1" d="M9.84,15.52h0C6.42,15.53,4.25,15,3,14.07a3.86,3.86,0,0,1-1.35-1.76,7.47,7.47,0,0,1-.43-2.69V9.54A9.41,9.41,0,0,1,1.79,6,4.32,4.32,0,0,1,4.52,3.46a16.46,16.46,0,0,1,5.32-.62.62.62,0,0,0,.61-.62.61.61,0,0,0-.61-.61c-3,0-5.41.24-7.18,1.41a5.4,5.4,0,0,0-2,2.5,10.64,10.64,0,0,0-.65,4v.08a8.72,8.72,0,0,0,.52,3.14,5.39,5.39,0,0,0,3.12,3.07,16.24,16.24,0,0,0,6.16.92h0a.61.61,0,0,0,.61-.61.62.62,0,0,0-.61-.62Z"/><path class="cls-1" d="M9.3,16.75h0c3.48,0,5.9-.49,7.52-1.69a5.15,5.15,0,0,0,1.75-2.3,8.31,8.31,0,0,0,.52-3.14V9.54a10.64,10.64,0,0,0-.65-4A5.5,5.5,0,0,0,15,2.31a17.35,17.35,0,0,0-5.72-.7.61.61,0,0,0-.62.61.62.62,0,0,0,.62.62c2.93,0,5.13.28,6.49,1.2a4.13,4.13,0,0,1,1.55,2,9.38,9.38,0,0,1,.57,3.55v.08a7.45,7.45,0,0,1-.44,2.69A4.16,4.16,0,0,1,15,14.7a15.22,15.22,0,0,1-5.68.82h0a.62.62,0,0,0-.62.62.61.61,0,0,0,.62.61Z"/><path class="cls-1" d="M1.22,7.12h16.7a.61.61,0,0,0,0-1.22H1.22a.61.61,0,1,0,0,1.22"/><path class="cls-1" d="M6.05,2.59l.13-1.3L13,2v.06a.61.61,0,0,0,.54.67.62.62,0,0,0,.68-.54l.07-.67a.61.61,0,0,0-.13-.45.57.57,0,0,0-.42-.22L5.7,0A.62.62,0,0,0,5,.55l-.2,1.91a.62.62,0,1,0,1.23.13Z"/></g></g></svg>