<svg xmlns="http://www.w3.org/2000/svg" viewBox="0 0 16.12 16.75"><defs><style>.cls-1{fill:#1d1d1b;}</style></defs><g id="Calque_2" data-name="Calque 2"><g id="Calque_2-2" data-name="Calque 2"><path class="cls-1" d="M5.14,4.31a6.75,6.75,0,0,0-3.57,1A3.19,3.19,0,0,0,.51,6.65,4.8,4.8,0,0,0,.17,8.54v.07l.67,0H.17a4,4,0,0,0,.29,1.53,3.2,3.2,0,0,0,1.66,1.64,8.63,8.63,0,0,0,3,.68.68.68,0,0,0,.73-.62.67.67,0,0,0-.62-.72,5.82,5.82,0,0,1-3-.83,1.56,1.56,0,0,1-.53-.68,2.57,2.57,0,0,1-.18-1h0v0a3.48,3.48,0,0,1,.23-1.36A1.94,1.94,0,0,1,2.86,6.12a7.3,7.3,0,0,1,2.37-.47.67.67,0,0,0,.63-.71.69.69,0,0,0-.72-.63Z"/><path class="cls-1" d="M4.57,12.06a8.33,8.33,0,0,0,7,4.69.67.67,0,0,0,.71-.63.66.66,0,0,0-.63-.71,7,7,0,0,1-5.84-3.93.67.67,0,0,0-.9-.32.68.68,0,0,0-.31.9Z"/><path class="cls-1" d="M5.79,5.27a7,7,0,0,1,5.83-3.92.67.67,0,0,0,.63-.72A.67.67,0,0,0,11.54,0a8.3,8.3,0,0,0-7,4.69.67.67,0,0,0,.32.9.66.66,0,0,0,.89-.32Z"/><path class="cls-1" d="M10.91.67V16.08a.67.67,0,0,0,.67.67.68.68,0,0,0,.68-.67V.67A.68.68,0,0,0,11.58,0a.67.67,0,0,0-.67.67Z"/><path class="cls-1" d="M15,.51.2,15.29a.66.66,0,0,0,0,.95.68.68,0,0,0,1,0L15.93,1.46a.68.68,0,0,0,0-.95.69.69,0,0,0-1,0"/></g></g></svg>