<svg xmlns="http://www.w3.org/2000/svg" viewBox="0 0 16.71 16.75"><g id="Calque_2" data-name="Calque 2"><g id="Calque_2-2" data-name="Calque 2"><path d="M4.64,1l-.29.58,9.92,5a2.05,2.05,0,0,1,0,3.67l-10,5a2.06,2.06,0,0,1-.93.23,2.05,2.05,0,0,1-1.44-.61A2,2,0,0,1,1.3,13.4a2.1,2.1,0,0,1,.13-.71l1-2.63a5.06,5.06,0,0,0,.29-1.67,5,5,0,0,0-.25-1.57L1.48,4a2.4,2.4,0,0,1-.11-.67A2,2,0,0,1,2,1.91,2,2,0,0,1,3.42,1.3a2.06,2.06,0,0,1,.93.23L4.64,1l.3-.58A3.4,3.4,0,0,0,3.42,0,3.38,3.38,0,0,0,.07,3.35,3.44,3.44,0,0,0,.25,4.43l.94,2.81a3.75,3.75,0,0,1,.19,1.15,3.75,3.75,0,0,1-.22,1.23L.21,12.24A3.43,3.43,0,0,0,0,13.4a3.38,3.38,0,0,0,3.36,3.35,3.4,3.4,0,0,0,1.52-.37l10-5a3.3,3.3,0,0,0,1.85-3,3.35,3.35,0,0,0-1.85-3L4.94.37Z"/><path d="M4.13,9.07H9.4a.67.67,0,0,0,.66-.66.66.66,0,0,0-.66-.65H4.13a.66.66,0,0,0-.66.65.67.67,0,0,0,.66.66"/></g></g></svg>