<svg xmlns="http://www.w3.org/2000/svg" viewBox="0 0 22.7 16.75"><g id="Calque_2" data-name="Calque 2"><g id="Calque_2-2" data-name="Calque 2"><path d="M10.28,9.78a10.92,10.92,0,0,1-2.83,2.51,6.41,6.41,0,0,1-3.08,1.15H.75a.7.7,0,0,0-.7.7.7.7,0,0,0,.7.71H4.37A7.63,7.63,0,0,0,8.2,13.48a12.34,12.34,0,0,0,3.2-2.85.71.71,0,0,0-.14-1,.7.7,0,0,0-1,.14Z"/><path d="M21,2.92H18.65a7.56,7.56,0,0,0-6,3.26A.7.7,0,1,0,13.78,7a6.16,6.16,0,0,1,4.87-2.7H21a.71.71,0,0,0,0-1.41Z"/><path d="M19.48,1.13,21.26,3.5l0,.12,0,.13L19.48,6.12a.7.7,0,0,0,.13,1,.71.71,0,0,0,1-.14L22.39,4.6a1.63,1.63,0,0,0,.31-1,1.62,1.62,0,0,0-.31-1L20.6.28a.71.71,0,0,0-1-.14.7.7,0,0,0-.13,1Z"/><path d="M21,12.42H18.6a6.15,6.15,0,0,1-4.86-2.7L10.31,5.17a7.57,7.57,0,0,0-6-3.27H.7a.7.7,0,0,0-.7.71.7.7,0,0,0,.7.7H4.33A6.19,6.19,0,0,1,9.19,6l3.42,4.55a7.56,7.56,0,0,0,6,3.27H21a.71.71,0,1,0,0-1.41Z"/><path d="M19.43,10.63,21.22,13l0,.12,0,.13-1.79,2.37a.71.71,0,0,0,.14,1,.7.7,0,0,0,1-.14l1.79-2.37a1.65,1.65,0,0,0,0-1.95L20.55,9.78a.7.7,0,0,0-1-.14.71.71,0,0,0-.14,1Z"/></g></g></svg>