<svg xmlns="http://www.w3.org/2000/svg" viewBox="0 0 17.42 16.75"><defs><style>.cls-1{fill:#1d1d1b;}</style></defs><g id="Calque_2" data-name="Calque 2"><g id="Calque_2-2" data-name="Calque 2"><path class="cls-1" d="M2.11,2.46c0,.79,0,1.41,0,2,0,1.16,0,2.26,0,4.45,0,2.54.37,4.46,1.41,5.82a4.51,4.51,0,0,0,2,1.51,8.26,8.26,0,0,0,3,.5H8.9a8.26,8.26,0,0,0,3-.5,4.72,4.72,0,0,0,2.7-2.63,11.84,11.84,0,0,0,.75-4.7c0-2.19,0-3.29,0-4.45,0-.6,0-1.22,0-2a.56.56,0,0,0-.58-.54.57.57,0,0,0-.54.59c0,.78.05,1.37.05,2,0,1.13,0,2.24-.05,4.45,0,2.44-.38,4.12-1.17,5.14a3.64,3.64,0,0,1-1.57,1.15,7.27,7.27,0,0,1-2.56.42v0H8.53v0A7.31,7.31,0,0,1,6,15.21a3.57,3.57,0,0,1-2.08-2,10.77,10.77,0,0,1-.66-4.25c0-2.21,0-3.32,0-4.45,0-.59,0-1.18,0-2a.57.57,0,0,0-.54-.59.56.56,0,0,0-.58.54Z"/><path class="cls-1" d="M16.86,1.46H.56a.56.56,0,0,0,0,1.12h16.3a.56.56,0,1,0,0-1.12Z"/><path class="cls-1" d="M6.09,6.62v5a.56.56,0,1,0,1.12,0v-5a.56.56,0,0,0-1.12,0"/><path class="cls-1" d="M10.21,6.62v5a.56.56,0,1,0,1.12,0v-5a.56.56,0,0,0-1.12,0"/><path d="M10.44,1.8l-.56-.06,0,.22.56.06V1.46H7V2L7.56,2l0-.22L7,1.8h.56a.69.69,0,0,1,.69-.68h1a.69.69,0,0,1,.69.68h.56l-.56-.06.56.06H11A1.81,1.81,0,0,0,9.19,0h-1A1.81,1.81,0,0,0,6.42,1.8v.06l0,.21A.56.56,0,0,0,7,2.58h3.42A.56.56,0,0,0,11,2.07l0-.21V1.8Z"/></g></g></svg>