<svg xmlns="http://www.w3.org/2000/svg" viewBox="0 0 14.25 16.75"><defs><style>.cls-1{fill:#1d1d1b;}</style></defs><g id="Calque_2" data-name="Calque 2"><g id="Calque_2-2" data-name="Calque 2"><path d="M9.78,2.11,8.07.39A1.33,1.33,0,0,0,7.13,0a1.35,1.35,0,0,0-1,.39L4.47,2.11a.53.53,0,0,0,0,.75.54.54,0,0,0,.75,0L6.94,1.14l.19-.08.19.08L9,2.86a.54.54,0,0,0,.75,0,.53.53,0,0,0,0-.75Z"/><path d="M6.6,1.51v8.88a.53.53,0,0,0,.53.53.53.53,0,0,0,.53-.53V1.51A.54.54,0,0,0,7.13,1a.53.53,0,0,0-.53.54"/><path class="cls-1" d="M9.24,5.55a6.33,6.33,0,0,1,2.08.63,3.07,3.07,0,0,1,1.49,1.69,8.2,8.2,0,0,1,.38,2.84.53.53,0,0,0,.53.53.53.53,0,0,0,.53-.53,7.26,7.26,0,0,0-.9-4.11,4.07,4.07,0,0,0-1.53-1.36A7.51,7.51,0,0,0,9.4,4.5a.52.52,0,0,0-.6.44.53.53,0,0,0,.44.61Z"/><path class="cls-1" d="M1.06,10.71v0a6.4,6.4,0,0,1,.81-3.57A3.79,3.79,0,0,1,4.37,5.6a.53.53,0,1,0-.23-1A4.82,4.82,0,0,0,1,6.52a7.35,7.35,0,0,0-1,4.16v0a.53.53,0,0,0,.53.53.53.53,0,0,0,.53-.53Z"/><path class="cls-1" d="M0,10.37v0A9.32,9.32,0,0,0,.39,13.3,4.4,4.4,0,0,0,2.64,16a9,9,0,0,0,4.07.76h.07a14.35,14.35,0,0,0,3.73-.4,4.59,4.59,0,0,0,3.05-2.23,7.89,7.89,0,0,0,.69-3.75.52.52,0,0,0-.53-.53.53.53,0,0,0-.53.53A9.62,9.62,0,0,1,13,12.73a3.15,3.15,0,0,1-1.63,2.16,9.77,9.77,0,0,1-4.55.8H6.71c-2.08,0-3.49-.38-4.34-1.15A3.48,3.48,0,0,1,1.4,13a8.4,8.4,0,0,1-.34-2.58v0a.53.53,0,0,0-.53-.53.53.53,0,0,0-.53.53Z"/></g></g></svg>