<svg xmlns="http://www.w3.org/2000/svg" viewBox="0 0 13.91 16.75"><defs><style>.cls-1{fill:#1d1d1b;}</style></defs><g id="Calque_2" data-name="Calque 2"><g id="Calque_2-2" data-name="Calque 2"><path class="cls-1" d="M10.53,3.86H9.92a2.46,2.46,0,0,1-.86,1.85,3.37,3.37,0,0,1-4.36,0,2.49,2.49,0,0,1-.86-1.85A2.47,2.47,0,0,1,4.7,2a3.27,3.27,0,0,1,2.18-.8A3.27,3.27,0,0,1,9.06,2a2.44,2.44,0,0,1,.86,1.84h1.23A3.68,3.68,0,0,0,9.87,1.11a4.58,4.58,0,0,0-6,0A3.71,3.71,0,0,0,2.62,3.86,3.71,3.71,0,0,0,3.89,6.62a4.58,4.58,0,0,0,6,0,3.69,3.69,0,0,0,1.28-2.76Z"/><path class="cls-1" d="M12.16,11.24a3.68,3.68,0,0,1,.51,1.59c0,.11,0,.22,0,.32a1.76,1.76,0,0,1-.28,1,3,3,0,0,1-1.75,1,16.29,16.29,0,0,1-4,.38.61.61,0,0,0,0,1.22A13.38,13.38,0,0,0,12,16a3.35,3.35,0,0,0,1.43-1.14,2.9,2.9,0,0,0,.49-1.68,3.4,3.4,0,0,0,0-.45,5,5,0,0,0-.67-2.1.61.61,0,0,0-.84-.2.61.61,0,0,0-.21.84Z"/><path class="cls-1" d="M7.23,15.53a12.34,12.34,0,0,1-4.8-.67,2.16,2.16,0,0,1-.94-.72,1.69,1.69,0,0,1-.27-1c0-.09,0-.2,0-.31A3.35,3.35,0,0,1,3,10.06a8.61,8.61,0,0,1,4.24-.87h0A.61.61,0,0,0,7.69,9a.67.67,0,0,0,.18-.44.64.64,0,0,0-.18-.43A.62.62,0,0,0,7.26,8H6.65a.62.62,0,0,0-.43.18A.6.6,0,0,0,6,8.58.62.62,0,0,0,6.22,9a.61.61,0,0,0,.43.17h0a10.46,10.46,0,0,1,3.38.48.61.61,0,0,0,.77-.38.59.59,0,0,0-.37-.77A11.39,11.39,0,0,0,6.68,8h0a.62.62,0,0,0-.43.18A.6.6,0,0,0,6,8.58.62.62,0,0,0,6.22,9a.61.61,0,0,0,.43.17h.61A.61.61,0,0,0,7.69,9a.67.67,0,0,0,.18-.44.64.64,0,0,0-.18-.43A.62.62,0,0,0,7.26,8h0A9.94,9.94,0,0,0,2.38,9,4.63,4.63,0,0,0,0,12.7c0,.15,0,.3,0,.44a2.91,2.91,0,0,0,.49,1.69,4.12,4.12,0,0,0,2.44,1.5,17.44,17.44,0,0,0,4.3.42.61.61,0,1,0,0-1.22Z"/></g></g></svg>