<svg xmlns="http://www.w3.org/2000/svg" viewBox="0 0 16.08 16.08"><defs><style>.cls-1{fill:#1d1d1b;}</style></defs><g id="Calque_2" data-name="Calque 2"><g id="Calque_2-2" data-name="Calque 2"><path class="cls-1" d="M15.58,8h-.5a7,7,0,1,1-2.06-5,7,7,0,0,1,2.06,5h1a8,8,0,1,0-8,8,8,8,0,0,0,8-8Z"/><path class="cls-1" d="M7.51,7.35,7.08,7.1s-.28.47-.54,1a1.09,1.09,0,0,0-.09.45,2.89,2.89,0,0,0,.2.93,2.68,2.68,0,0,1,.15.54H7L6.82,10l0,.05H7L6.82,10l.27.11-.17-.24-.1.13.27.11-.17-.24a1.81,1.81,0,0,0-.43.49c-.18.26-.37.57-.54.8a1.4,1.4,0,0,1-.21.24l0,0,.06.14v-.15H5.7l.06.14v0l0-.2h0v.2l0-.2H5.53l-.17.07-.15.15a.5.5,0,0,0-.07.27.59.59,0,0,0,.08.29.52.52,0,0,0,.15.14l.12.06a2,2,0,0,0,.34.1c.21.06.47.12.73.17a5,5,0,0,0,.71.08H7.4A1.35,1.35,0,0,0,8,12.48c.24-.18.47-.38.67-.54a1.25,1.25,0,0,1,.26-.17l.06,0H9l0-.12v.12H9l0-.12V11.5l-.11.21.11,0V11.5l-.11.21a.92.92,0,0,0,.5.12,1.21,1.21,0,0,0,.76-.28,1,1,0,0,0,.25-.26.9.9,0,0,0,.14-.42.63.63,0,0,0-.1-.33.52.52,0,0,0-.27-.22l-.08.19.19-.09-.11-.11-.08.2.19-.09-.09,0,.1,0v0l-.09,0,.1,0h0l.06-.23.1-.16a1.72,1.72,0,0,0,.36-.47A1.46,1.46,0,0,0,11,8.89a1.34,1.34,0,0,0-.52-1c-.26-.22-.5-.42-.72-.59A1.63,1.63,0,0,0,9.36,7a1.09,1.09,0,0,0-.45-.13A.63.63,0,0,0,8.59,7h0l.16.33L8.67,7,8.59,7l.16.33L8.67,7H8.6A5.43,5.43,0,0,1,8,6.9l-.4,0a.49.49,0,0,0-.49.24l.43.25-.06.5s.71.09,1.15.1h.18A.81.81,0,0,0,9,7.88H9l-.12-.24V7.9l.12,0-.12-.24v.13l-.05.14h.05V7.76l-.05.14a1,1,0,0,1,.31.21l.63.51a.33.33,0,0,1,.15.27l-.07.22-.12.16a1.4,1.4,0,0,0-.36.52,1.51,1.51,0,0,0-.15.64.9.9,0,0,0,.1.43.74.74,0,0,0,.39.37l.16-.36-.34.21.18.15.16-.36-.34.21.34-.21H9.5l.06.21.34-.21H9.73l-.2-.14s0,0,0,.14h.23l-.2-.14-.08.07-.1,0h0A.84.84,0,0,0,9,10.74a1.2,1.2,0,0,0-.65.23,6.27,6.27,0,0,0-.71.55l-.26.2-.08,0h0l0,.14,0-.15h0l0,.14,0-.15h0a4.51,4.51,0,0,1-.87-.14L6,11.5l-.11,0h0l-.14.32.19-.29,0,0-.14.32.19-.29-.25.39L6,11.57l-.09-.07-.25.39L6,11.57l-.36.34h.5A.46.46,0,0,0,6,11.57l-.36.34h0l.42.27a.57.57,0,0,0,.08-.27h-.5l.42.27-.42-.27.2.46a.62.62,0,0,0,.22-.19l-.42-.27.2.46-.19-.43,0,.46.14,0-.19-.43,0,.46,0-.35v.36h0l0-.35v.36h0v0h.1a.88.88,0,0,0,.45-.13,1.6,1.6,0,0,0,.48-.45c.2-.25.37-.53.52-.76l.2-.29.07-.08h0l0,0,0,0h0l0,0,0,0a.64.64,0,0,0,.25-.32.78.78,0,0,0,.06-.32,3.19,3.19,0,0,0-.2-.86,2.14,2.14,0,0,1-.15-.61v0h0l0,0,0,0h0l0,0,0,0c.11-.25.24-.49.33-.66l.12-.21,0-.07-.43-.26-.06.5Z"/><path class="cls-1" d="M10.65.63a2.1,2.1,0,0,0-.89,1.31h0a1.67,1.67,0,0,0-.06.44,1.19,1.19,0,0,0,.24.74,3.76,3.76,0,0,0,.56.54l.12.14,0,.11-.05.18c-.07.12-.21.29-.37.5a1.61,1.61,0,0,0-.33.9,1.74,1.74,0,0,0,.38,1h0a3.92,3.92,0,0,0,1.55,1.2,3.68,3.68,0,0,1,.44.25l0,0h0l0,0h0l0,0h0a2.14,2.14,0,0,0,.23,1c.16.29.36.53.66,1a7.58,7.58,0,0,0,.72.94,1.37,1.37,0,0,0,1,.45,1.33,1.33,0,0,0,.28,0,.5.5,0,0,0-.2-1h-.08c-.07,0-.1,0-.26-.15A9.56,9.56,0,0,1,14,9.38c-.31-.45-.51-.7-.6-.87A1,1,0,0,1,13.29,8a.94.94,0,0,0-.12-.47A1.25,1.25,0,0,0,12.66,7a4.38,4.38,0,0,1-1.59-1.11h0a.77.77,0,0,1-.18-.4L11,5.31a4.72,4.72,0,0,1,.36-.5,1.56,1.56,0,0,0,.33-.9,1.3,1.3,0,0,0-.24-.74,4.32,4.32,0,0,0-.56-.54l-.12-.14,0-.11,0-.16h0a1.14,1.14,0,0,1,.43-.71.5.5,0,0,0,.19-.68.52.52,0,0,0-.69-.19Z"/><path class="cls-1" d="M5.74,1.38h0a3.77,3.77,0,0,1,.2.34,1.45,1.45,0,0,1,.16.56l0,.19a2.55,2.55,0,0,0-.34.76A3.54,3.54,0,0,0,5.64,4v.85a1,1,0,0,1,0,.24v0h0l0,0h0l0,0,.06,0,0-.07,0,0,.06,0,0-.07h0a3.93,3.93,0,0,0-.6.2,1.77,1.77,0,0,0-.77.89,2.26,2.26,0,0,1-.52.82.56.56,0,0,1-.4.18A.65.65,0,0,1,3,7.14a7.44,7.44,0,0,0-.83-.4,1.7,1.7,0,0,0-.63-.15A.7.7,0,0,0,1,6.8a.68.68,0,0,0-.19.49,1.24,1.24,0,0,0,.09.45,1.93,1.93,0,0,1,0,.35A5,5,0,0,0,1.08,9a1.09,1.09,0,0,0,.3.51A.89.89,0,0,0,2,9.81h0A3.77,3.77,0,0,0,3,9.63a4.68,4.68,0,0,1,.49-.13V9.22l-.17.21a.25.25,0,0,0,.17.07V9.22l-.17.21.2-.25H3.16a.39.39,0,0,0,.14.25l.2-.25H3.24l-.08,0v0h.08l-.08,0v0h0a2,2,0,0,0-.06.51c0,.35.06.61.06.72v.05h0l.05,0,0,0h0l.05,0,0,0h0a1.44,1.44,0,0,0-.51,1.14,1.49,1.49,0,0,0,.1.55.92.92,0,0,0,.43.47l.13-.24-.26.13a.6.6,0,0,0,.13.11l.13-.24-.26.13,0,0,0,0h0l0,0,0,0A1.28,1.28,0,0,1,3.1,13c0,.23,0,.49,0,.69S3,14,3,14a.5.5,0,1,0,1,.13A10.19,10.19,0,0,0,4.1,13a3.18,3.18,0,0,0,0-.62,1.24,1.24,0,0,0-.1-.31.77.77,0,0,0-.32-.33l-.06.13.11-.1-.05,0-.06.13.11-.1h0l0-.16a.48.48,0,0,1,.12-.35,1,1,0,0,0,.31-.41,1.11,1.11,0,0,0,.08-.42c0-.3-.07-.52-.06-.72l0-.25h0a1.15,1.15,0,0,0,0-.26.67.67,0,0,0-.23-.53.82.82,0,0,0-.46-.15,3,3,0,0,0-.77.17A2.9,2.9,0,0,1,2,8.81H2v.08l0-.06,0,0v.08l0-.06,0,.06.06-.05h0l0,.06.06-.05h0A1.66,1.66,0,0,1,2,8.31a3.28,3.28,0,0,0-.12-.9l0-.1v0h-.3l.21.2a.29.29,0,0,0,.09-.2h-.3l.21.2-.2-.19v.29a.31.31,0,0,0,.2-.1l-.2-.19v.29h.07A4.7,4.7,0,0,1,2.52,8a1.7,1.7,0,0,0,.8.21A1.57,1.57,0,0,0,4.4,7.79a3.34,3.34,0,0,0,.76-1.17.71.71,0,0,1,.27-.36.6.6,0,0,1,.21-.09,1.45,1.45,0,0,0,.64-.28,1,1,0,0,0,.29-.44,2,2,0,0,0,.07-.56V4a2.66,2.66,0,0,1,0-.57A1.28,1.28,0,0,1,6.89,3a1.38,1.38,0,0,0,.21-.73,2.47,2.47,0,0,0-.28-1C6.68,1,6.56.8,6.55.78a.5.5,0,0,0-.81.6Z"/></g></g></svg>