<svg xmlns="http://www.w3.org/2000/svg" viewBox="0 0 16.75 16.75"><defs><style>.cls-1{fill:#1d1d1b;}</style></defs><g id="Calque_2" data-name="Calque 2"><g id="Calque_2-2" data-name="Calque 2"><path class="cls-1" d="M11.06,16.15v-.59H5.69a4.49,4.49,0,0,1-4.49-4.5V5.69A4.47,4.47,0,0,1,5.69,1.2h5.37a4.49,4.49,0,0,1,4.5,4.49v5.37a4.51,4.51,0,0,1-4.5,4.5v1.19a5.69,5.69,0,0,0,5.69-5.69V5.69A5.69,5.69,0,0,0,11.06,0H5.69A5.69,5.69,0,0,0,0,5.69v5.37a5.69,5.69,0,0,0,5.69,5.69h5.37Z"/><path class="cls-1" d="M3.82,9h9.11a.58.58,0,0,0,.59-.59.59.59,0,0,0-.59-.6H3.82a.59.59,0,0,0-.59.6A.58.58,0,0,0,3.82,9"/><path class="cls-1" d="M9,12.93V3.82a.58.58,0,0,0-.59-.59.59.59,0,0,0-.6.59v9.11a.59.59,0,0,0,.6.59A.58.58,0,0,0,9,12.93"/></g></g></svg>