<svg xmlns="http://www.w3.org/2000/svg" viewBox="0 0 14.89 16.75"><g id="Calque_2" data-name="Calque 2"><g id="Calque_2-2" data-name="Calque 2"><path d="M14.33,9.31h-.57a6.32,6.32,0,0,1-6.31,6.31A6.31,6.31,0,0,1,3,4.84a6.31,6.31,0,0,1,8.93,0,6.26,6.26,0,0,1,1.85,4.47h1.13a7.45,7.45,0,1,0-7.44,7.44,7.44,7.44,0,0,0,7.44-7.44Z"/><path d="M9.58,12.58,7.79,9.08V4.92a.56.56,0,1,0-1.12,0v4.3l.06.26,1.85,3.61a.56.56,0,1,0,1-.51Z"/><path d="M6.89.56V1.75A.56.56,0,1,0,8,1.75V.56a.56.56,0,0,0-1.12,0"/><path d="M2.24,3.1a.84.84,0,0,1,.83-.66l.19,0A.57.57,0,0,0,3.94,2a.56.56,0,0,0-.43-.67,1.72,1.72,0,0,0-.44-.06A2,2,0,0,0,1.14,2.84a.57.57,0,0,0,.43.68.56.56,0,0,0,.67-.42Z"/><path d="M13.8,3a2,2,0,0,0-1.92-1.52,1.73,1.73,0,0,0-.45.05.56.56,0,0,0-.42.67.57.57,0,0,0,.68.43l.19,0a.85.85,0,0,1,.83.66A.56.56,0,1,0,13.8,3Z"/><path d="M2.89,16.59l.75-.76a.56.56,0,0,0,0-.79.57.57,0,0,0-.8,0l-.75.75a.57.57,0,0,0,.8.8"/><path d="M13.3,15.79l-1.13-1.13a.56.56,0,0,0-.79,0,.57.57,0,0,0,0,.8l1.13,1.13a.56.56,0,0,0,.79,0,.57.57,0,0,0,0-.8"/></g></g></svg>