<svg xmlns="http://www.w3.org/2000/svg" viewBox="0 0 13.28 16.75"><defs><style>.cls-1{fill:#1d1d1b;}</style></defs><g id="Calque_2" data-name="Calque 2"><g id="Calque_2-2" data-name="Calque 2"><path class="cls-1" d="M0,8.92v.2H0a21.21,21.21,0,0,0,.52,5.11A4.9,4.9,0,0,0,1.31,16a1.88,1.88,0,0,0,1.5.78,1,1,0,0,0,.49-.14A2,2,0,0,0,3.91,16a9.26,9.26,0,0,0,.84-1.52c.41-.87.82-1.84,1.2-2.58a5,5,0,0,1,.51-.86l.16-.17h0l0-.07,0,.07h0l0-.07,0,.07-.05-.2v.21h.05l-.05-.2v.21a.55.55,0,0,0,0-1.09.91.91,0,0,0-.49.14,2.17,2.17,0,0,0-.58.59,10.46,10.46,0,0,0-.82,1.51c-.4.87-.81,1.84-1.19,2.58a5.38,5.38,0,0,1-.53.85l-.17.17h0l.05.12v-.13H2.76l.05.12v-.13a.8.8,0,0,1-.64-.37,5.29,5.29,0,0,1-.81-2.35,25.49,25.49,0,0,1-.27-3.82h0v-.2A.55.55,0,1,0,0,8.92Z"/><path class="cls-1" d="M1.09,9.36V9.12h0c0-2.31.07-4.4.78-5.79A3.51,3.51,0,0,1,3.46,1.72a7.12,7.12,0,0,1,3.26-.63A.55.55,0,1,0,6.72,0,8.2,8.2,0,0,0,3,.75,5,5,0,0,0,.39,4.24,21.61,21.61,0,0,0,0,9.12H0v.24a.55.55,0,1,0,1.09,0Z"/><path class="cls-1" d="M12.19,8.92v.2h0a20.26,20.26,0,0,1-.48,4.82,3.73,3.73,0,0,1-.6,1.35.8.8,0,0,1-.64.37v.15l0-.14h0v.15l0-.14v0l0,0h0v0l0,0a1,1,0,0,1-.24-.23,8.13,8.13,0,0,1-.79-1.32c-.42-.84-.86-1.84-1.3-2.65a7.22,7.22,0,0,0-.66-1.06A2.06,2.06,0,0,0,7.14,10a1,1,0,0,0-.58-.2.55.55,0,1,0,0,1.09v-.2l-.06.19h.06v-.2l-.06.19,0-.08,0,.08h0l0-.08,0,.08h0a3.68,3.68,0,0,1,.71,1c.45.83.94,2,1.43,2.9a9.22,9.22,0,0,0,.75,1.24,2.62,2.62,0,0,0,.44.44,1.1,1.1,0,0,0,.64.23A1.88,1.88,0,0,0,12,16a6.46,6.46,0,0,0,1-2.85,27,27,0,0,0,.28-4h0v-.2a.55.55,0,1,0-1.09,0Z"/><path class="cls-1" d="M13.28,9.36V9.12h0c0-2.32,0-4.52-.89-6.26A4.64,4.64,0,0,0,10.32.75,8.2,8.2,0,0,0,6.56,0a.55.55,0,1,0,0,1.09,7.12,7.12,0,0,1,3.26.63,3.92,3.92,0,0,1,2,2.79,20.72,20.72,0,0,1,.36,4.62h0v.24a.55.55,0,1,0,1.09,0Z"/></g></g></svg>