<svg xmlns="http://www.w3.org/2000/svg" viewBox="0 0 21.18 16.75"><defs><style>.cls-1{fill:#1d1d1b;}</style></defs><g id="Calque_2" data-name="Calque 2"><g id="Calque_2-2" data-name="Calque 2"><path class="cls-1" d="M10.89,15.43h-.05c-3.74,0-6.15-.56-7.54-1.61a4.41,4.41,0,0,1-1.5-2,8.16,8.16,0,0,1-.48-3V8.77a10.51,10.51,0,0,1,.62-3.94A4.74,4.74,0,0,1,5,2a18.25,18.25,0,0,1,5.9-.7.66.66,0,0,0,.65-.66A.65.65,0,0,0,10.89,0c-3.32,0-6,.27-8,1.57A5.9,5.9,0,0,0,.72,4.33,11.66,11.66,0,0,0,0,8.77v.1a9.6,9.6,0,0,0,.58,3.47A5.94,5.94,0,0,0,4,15.73a17.85,17.85,0,0,0,6.81,1h.05a.66.66,0,0,0,0-1.32Z"/><path class="cls-1" d="M10.29,16.75h0c3.87,0,6.54-.55,8.33-1.87a5.64,5.64,0,0,0,1.94-2.54,9.6,9.6,0,0,0,.58-3.47v-.1a11.64,11.64,0,0,0-.73-4.44A6.06,6.06,0,0,0,16.63.78,19.22,19.22,0,0,0,10.29,0a.66.66,0,1,0,0,1.32c3.25,0,5.69.31,7.21,1.34a4.57,4.57,0,0,1,1.73,2.17,10.22,10.22,0,0,1,.63,3.94v.09a8.15,8.15,0,0,1-.49,3,4.61,4.61,0,0,1-2.73,2.65,16.66,16.66,0,0,1-6.31.92h0a.66.66,0,0,0,0,1.32Z"/><path class="cls-1" d="M1.33,6.69H19.85a.66.66,0,0,0,0-1.32H1.33a.66.66,0,0,0,0,1.32"/><path class="cls-1" d="M3.58,11.68h1.6a.66.66,0,0,0,0-1.32H3.58a.66.66,0,0,0,0,1.32"/></g></g></svg>