<svg xmlns="http://www.w3.org/2000/svg" viewBox="0 0 18.39 16.75"><defs><style>.cls-1{fill:#1d1d1b;}</style></defs><g id="Calque_2" data-name="Calque 2"><g id="Calque_2-2" data-name="Calque 2"><path class="cls-1" d="M9.46,15.66h0c-3.26,0-5.34-.57-6.56-1.63a4.63,4.63,0,0,1-1.33-2,10,10,0,0,1-.44-3.11V8.78A12.43,12.43,0,0,1,1.65,4.7,4.55,4.55,0,0,1,4.33,1.8a13.71,13.71,0,0,1,5.13-.71A.54.54,0,0,0,10,.54.54.54,0,0,0,9.46,0C6.57,0,4.22.28,2.52,1.59A5.92,5.92,0,0,0,.62,4.34,13.6,13.6,0,0,0,0,8.78v.09a11,11,0,0,0,.5,3.46,5.54,5.54,0,0,0,3,3.38,13.66,13.66,0,0,0,5.95,1h0a.54.54,0,0,0,.54-.54.55.55,0,0,0-.54-.55Z"/><path class="cls-1" d="M8.94,16.75H9c3.36,0,5.71-.56,7.27-1.9a5.64,5.64,0,0,0,1.65-2.52,10.75,10.75,0,0,0,.49-3.46V8.78a13.33,13.33,0,0,0-.62-4.44A5.63,5.63,0,0,0,14.48.79,14.65,14.65,0,0,0,8.94,0a.55.55,0,1,0,0,1.09c2.83,0,4.94.31,6.26,1.36A4.77,4.77,0,0,1,16.75,4.7a12.46,12.46,0,0,1,.55,4.08v.09A9.69,9.69,0,0,1,16.87,12a4.48,4.48,0,0,1-2.42,2.75A12.67,12.67,0,0,1,9,15.66h0a.55.55,0,0,0-.55.55.55.55,0,0,0,.55.54Z"/><path class="cls-1" d="M5.81,15.78V.93A.55.55,0,0,0,5.27.38a.55.55,0,0,0-.55.55V15.78a.55.55,0,0,0,.55.55.55.55,0,0,0,.54-.55"/><path class="cls-1" d="M13.6,15.79V.91a.55.55,0,0,0-.54-.55.55.55,0,0,0-.55.55V15.79a.55.55,0,0,0,.55.55.55.55,0,0,0,.54-.55"/><path class="cls-1" d="M17.21,3.85l-4.15,0a.55.55,0,1,0,0,1.09l4.15,0a.55.55,0,0,0,0-1.09"/><path class="cls-1" d="M5.27,3.9H1.16a.55.55,0,0,0-.55.55A.55.55,0,0,0,1.16,5H5.27a.55.55,0,0,0,0-1.09"/><path class="cls-1" d="M17.84,8,13.06,8a.55.55,0,0,0-.55.55.55.55,0,0,0,.55.54l4.79,0a.55.55,0,0,0,0-1.09"/><path class="cls-1" d="M5.27,8.05l-4.73,0a.55.55,0,0,0,0,1.09l4.72,0a.55.55,0,0,0,0-1.09"/><path class="cls-1" d="M17.22,12h0l-4.15,0a.55.55,0,1,0,0,1.09l4.15,0h0a.54.54,0,0,0,.54-.54.55.55,0,0,0-.54-.55Z"/><path class="cls-1" d="M5.27,12.06l-4.08,0a.55.55,0,0,0,0,1.09l4.07,0a.55.55,0,0,0,0-1.09"/></g></g></svg>