<svg xmlns="http://www.w3.org/2000/svg" viewBox="0 0 18.05 16.75"><g id="Calque_2" data-name="Calque 2"><g id="Calque_2-2" data-name="Calque 2"><path d="M7.49,8,1.69,2.53a.53.53,0,0,1-.19-.41.67.67,0,0,1,.71-.62v0h0v0h0l6.8,0,6.82,0a.66.66,0,0,1,.71.63.53.53,0,0,1-.19.41l-5.53,5.1a.75.75,0,0,0,1,1.1l5.53-5.1a2,2,0,0,0,.67-1.51A2.17,2.17,0,0,0,15.85.07L9,0,2.23,0V.75l0-.75h0A2.25,2.25,0,0,0,.62.64,2.12,2.12,0,0,0,0,2.12a2.07,2.07,0,0,0,.66,1.5L6.46,9.1A.75.75,0,0,0,7.49,8Z"/><path d="M10.59,8.26v7.23H11l-.32-.21-.06.21H11l-.32-.21.18.12-.13-.17,0,0,.18.12-.13-.17h0l-.13,0-.11,0-2.4-.77a.82.82,0,0,1-.31-.17l0,0,0,0h0v0l0,0h0V8.47a.75.75,0,0,0-1.5,0v5.8a1.57,1.57,0,0,0,.44,1.05,2.27,2.27,0,0,0,.94.57l2.39.77a2,2,0,0,0,.58.09,1.76,1.76,0,0,0,.94-.26,1.21,1.21,0,0,0,.58-1V8.26a.75.75,0,0,0-1.5,0Z"/></g></g></svg>