<svg xmlns="http://www.w3.org/2000/svg" viewBox="0 0 13.9 16.75"><defs><style>.cls-1{fill:#1d1d1b;}</style></defs><g id="Calque_2" data-name="Calque 2"><g id="Calque_2-2" data-name="Calque 2"><path class="cls-1" d="M0,1.2V16a.72.72,0,0,0,.72.72A.73.73,0,0,0,1.46,16V1.2A.73.73,0,0,0,.73.48.72.72,0,0,0,0,1.2"/><path class="cls-1" d="M4.51,0H4.25A8.25,8.25,0,0,0,1.88.31,3.07,3.07,0,0,0,.12,1.59a.71.71,0,0,0,.21,1,.72.72,0,0,0,1-.21,1.66,1.66,0,0,1,1-.69,6.82,6.82,0,0,1,2-.24v0h.25A.73.73,0,0,0,5.23.72.72.72,0,0,0,4.51,0Z"/><path class="cls-1" d="M.14,6.75A3.43,3.43,0,0,0,1.78,7.89a8,8,0,0,0,2.47.35h.26a.72.72,0,0,0,0-1.44H4.26v0a7,7,0,0,1-2-.28,1.89,1.89,0,0,1-.94-.63.72.72,0,0,0-1-.15.72.72,0,0,0-.15,1Z"/><path class="cls-1" d="M4.26,8.24h0a6.11,6.11,0,0,0,3.79-.91A3,3,0,0,0,9,6,5,5,0,0,0,9.3,4.34h0v0A5.76,5.76,0,0,0,9,2.19,3.08,3.08,0,0,0,7.09.37,8.52,8.52,0,0,0,4.26,0a.73.73,0,0,0-.72.73.72.72,0,0,0,.72.72A5,5,0,0,1,7,2a1.52,1.52,0,0,1,.57.76A4.18,4.18,0,0,1,7.85,4.3v0h0a3.4,3.4,0,0,1-.18,1.18,1.54,1.54,0,0,1-.92.92,6.16,6.16,0,0,1-2.47.36h0a.73.73,0,0,0-.72.73.72.72,0,0,0,.72.72Z"/><path class="cls-1" d="M9.11,1.38H8.87c-.29,0-.55,0-.79,0a.72.72,0,0,0,.1,1.44l.69,0h.24a.73.73,0,0,0,.73-.73.73.73,0,0,0-.73-.72Z"/><path class="cls-1" d="M4.57,7.85A3.09,3.09,0,0,0,6.21,9.21a8,8,0,0,0,2.65.41h.25a.73.73,0,0,0,.73-.72.73.73,0,0,0-.73-.73H8.87v0a6.12,6.12,0,0,1-2.14-.32,1.67,1.67,0,0,1-.91-.71.71.71,0,0,0-1-.28.73.73,0,0,0-.28,1Z"/><path class="cls-1" d="M8.87,9.61h0a6.12,6.12,0,0,0,3.8-.91,3,3,0,0,0,1-1.31,4.56,4.56,0,0,0,.27-1.68h0v0a5.81,5.81,0,0,0-.33-2.11A3.11,3.11,0,0,0,11.7,1.74a8.56,8.56,0,0,0-2.83-.37.73.73,0,0,0-.73.73.73.73,0,0,0,.73.72,5.13,5.13,0,0,1,2.78.51,1.63,1.63,0,0,1,.57.76,4.25,4.25,0,0,1,.23,1.58v0h0a3.37,3.37,0,0,1-.17,1.17,1.6,1.6,0,0,1-.92.92,6.37,6.37,0,0,1-2.48.37h0a.72.72,0,1,0,0,1.44Z"/></g></g></svg>