<svg xmlns="http://www.w3.org/2000/svg" viewBox="0 0 16.96 16.75"><defs><style>.cls-1{fill:#1d1d1b;}</style></defs><g id="Calque_2" data-name="Calque 2"><g id="Calque_2-2" data-name="Calque 2"><path class="cls-1" d="M8.15,16.75h.39l0-.54v.54h.07c2.48,0,4.33-.51,5.59-1.56a4.63,4.63,0,0,0,1.4-2A7.35,7.35,0,0,0,16,10.55c0-.24,0-.49,0-.74h0a13.39,13.39,0,0,0-.65-3.52l-.51.17.51-.17,0-.1a.54.54,0,0,0-.68-.34.53.53,0,0,0-.34.68l0,.1h0a12.35,12.35,0,0,1,.59,3.26h0c0,.24,0,.46,0,.68a6.34,6.34,0,0,1-.36,2.28,3.68,3.68,0,0,1-1.92,2.06,9.65,9.65,0,0,1-4.08.77v0h-.4a.54.54,0,0,0,0,1.08Z"/><path class="cls-1" d="M8.82,15.67H8.49v0c-2.38,0-4-.48-5-1.29a3.67,3.67,0,0,1-1.09-1.52,6.34,6.34,0,0,1-.36-2.28c0-.23,0-.46,0-.7a12.56,12.56,0,0,1,.5-2.95.54.54,0,0,0-1-.31A14.4,14.4,0,0,0,1,9.81c0,.26,0,.51,0,.76a7.19,7.19,0,0,0,.44,2.67A4.75,4.75,0,0,0,3.9,15.88a10.87,10.87,0,0,0,4.58.86h.34a.54.54,0,1,0,0-1.08Z"/><path class="cls-1" d="M7,16v-1.9a3.24,3.24,0,0,1,.43-1.67,1,1,0,0,1,.8-.56h.56a1,1,0,0,1,.8.56A3.24,3.24,0,0,1,10,14.05V16a.54.54,0,1,0,1.08,0V14.05a4.23,4.23,0,0,0-.6-2.25,2.07,2.07,0,0,0-1.71-1.06H8.2A2.07,2.07,0,0,0,6.49,11.8a4.23,4.23,0,0,0-.6,2.25V16A.54.54,0,1,0,7,16Z"/><path class="cls-1" d="M2.13,6.23l-.3,0L7.31,1.43a1.44,1.44,0,0,1,.93-.35,1.46,1.46,0,0,1,.86.29L15,5.9h-.17A.54.54,0,0,0,14.85,7l1.6-.1a.51.51,0,0,0,.48-.38.54.54,0,0,0-.18-.59l-7-5.4A2.48,2.48,0,0,0,8.24,0,2.53,2.53,0,0,0,6.6.61L.19,6.2A.51.51,0,0,0,0,6.77a.53.53,0,0,0,.45.37L2,7.3a.54.54,0,0,0,.59-.48.53.53,0,0,0-.48-.59Z"/></g></g></svg>