<svg xmlns="http://www.w3.org/2000/svg" viewBox="0 0 16.94 16.75"><defs><style>.cls-1{fill:#1d1d1b;}</style></defs><g id="Calque_2" data-name="Calque 2"><g id="Calque_2-2" data-name="Calque 2"><path class="cls-1" d="M8.71,15.62h0c-3,0-4.89-.46-6-1.28A3.37,3.37,0,0,1,1.52,12.8a6.52,6.52,0,0,1-.39-2.37v-.07a8.21,8.21,0,0,1,.5-3.13A3.72,3.72,0,0,1,4,5a14.43,14.43,0,0,1,4.68-.56.57.57,0,1,0,0-1.13c-2.64,0-4.78.21-6.35,1.25A4.76,4.76,0,0,0,.58,6.8,9.44,9.44,0,0,0,0,10.36v.07a7.76,7.76,0,0,0,.46,2.78,4.82,4.82,0,0,0,2.77,2.72,14.27,14.27,0,0,0,5.45.82h0a.57.57,0,1,0,0-1.13Z"/><path class="cls-1" d="M8.24,16.75h0c3.08,0,5.21-.44,6.66-1.5a4.59,4.59,0,0,0,1.55-2,7.54,7.54,0,0,0,.46-2.78v-.07a9.25,9.25,0,0,0-.58-3.56A4.88,4.88,0,0,0,13.3,4a15.53,15.53,0,0,0-5.06-.62.57.57,0,1,0,0,1.13c2.58,0,4.52.25,5.71,1.06a3.69,3.69,0,0,1,1.37,1.71,8.43,8.43,0,0,1,.49,3.13v.07a6.54,6.54,0,0,1-.38,2.37,3.66,3.66,0,0,1-2.16,2.09,13.24,13.24,0,0,1-5,.73h0a.57.57,0,1,0,0,1.13Z"/><path d="M12.05,3.93A2.61,2.61,0,0,0,12.23,3,2.8,2.8,0,0,0,11.1.83,4.17,4.17,0,0,0,8.55,0,4.22,4.22,0,0,0,6,.83,2.75,2.75,0,0,0,4.86,3,2.6,2.6,0,0,0,5,3.93a.58.58,0,0,0,.74.32.57.57,0,0,0,.32-.73A1.37,1.37,0,0,1,6,3a1.62,1.62,0,0,1,.7-1.27,3,3,0,0,1,1.86-.6,3,3,0,0,1,1.85.6A1.62,1.62,0,0,1,11.1,3a1.6,1.6,0,0,1-.1.52.56.56,0,0,0,.32.73.57.57,0,0,0,.73-.32Z"/><path d="M9.68,9.31H9.11A.44.44,0,0,1,9,9.64a.76.76,0,0,1-1,0A.41.41,0,0,1,8,9,.76.76,0,0,1,9,9a.43.43,0,0,1,.16.32h1.14A1.54,1.54,0,0,0,9.7,8.14a1.91,1.91,0,0,0-2.46,0A1.56,1.56,0,0,0,6.7,9.31a1.59,1.59,0,0,0,.54,1.18,1.91,1.91,0,0,0,2.46,0,1.56,1.56,0,0,0,.55-1.18Z"/><path d="M7.92,11.55v.78a.57.57,0,0,0,1.13,0v-.78a.57.57,0,1,0-1.13,0"/></g></g></svg>