<svg xmlns="http://www.w3.org/2000/svg" viewBox="0 0 21.19 16.75"><defs><style>.cls-1{fill:#1d1d1b;}</style></defs><g id="Calque_2" data-name="Calque 2"><g id="Calque_2-2" data-name="Calque 2"><path d="M17.83,6l2,2,.1.23-.1.22-2,2a.62.62,0,0,0,.88.88l2-2a1.56,1.56,0,0,0,0-2.21l-2-2a.63.63,0,0,0-.88,0,.64.64,0,0,0,0,.89Z"/><path d="M19.42,7.61H9A.63.63,0,0,0,9,8.86H19.42a.63.63,0,0,0,0-1.25"/><path class="cls-1" d="M15.9,5.69a8.44,8.44,0,0,0-1-2.86A5.26,5.26,0,0,0,12,.52,13.09,13.09,0,0,0,7.84,0a.63.63,0,0,0,0,1.25,9.07,9.07,0,0,1,4.67.87,3.77,3.77,0,0,1,1.34,1.35,7.18,7.18,0,0,1,.82,2.43.62.62,0,0,0,1.23-.21Z"/><path class="cls-1" d="M7.84,16.75h0a10.38,10.38,0,0,0,5.39-1.15,5.64,5.64,0,0,0,2.55-3.7.62.62,0,0,0-.46-.75.61.61,0,0,0-.75.46,4.38,4.38,0,0,1-2,2.92,9.17,9.17,0,0,1-4.74,1h0a.63.63,0,0,0,0,1.25Z"/><path class="cls-1" d="M8.29,15.5h0c-2.78,0-4.49-.55-5.5-1.56a4.59,4.59,0,0,1-1.13-2,10.91,10.91,0,0,1-.37-3.08V8.78a14,14,0,0,1,.48-4A4.17,4.17,0,0,1,4,1.93a10.23,10.23,0,0,1,4.32-.68A.63.63,0,0,0,8.29,0,15.09,15.09,0,0,0,4.87.31a5.43,5.43,0,0,0-3.65,2.5A11.52,11.52,0,0,0,0,8.78v.09a12.6,12.6,0,0,0,.42,3.42A5.55,5.55,0,0,0,3,15.7a10.71,10.71,0,0,0,5.22,1.05h0a.63.63,0,0,0,0-1.25Z"/></g></g></svg>