<svg xmlns="http://www.w3.org/2000/svg" viewBox="0 0 16.75 16.75"><defs><style>.cls-1{fill:#1d1d1b;}</style></defs><g id="Calque_2" data-name="Calque 2"><g id="Calque_2-2" data-name="Calque 2"><path class="cls-1" d="M11.06.6V0H5.69A5.69,5.69,0,0,0,0,5.69v5.37a5.69,5.69,0,0,0,5.69,5.69h5.37a5.69,5.69,0,0,0,5.69-5.69V5.69A5.69,5.69,0,0,0,11.06,0V1.2a4.49,4.49,0,0,1,4.5,4.49v5.37a4.51,4.51,0,0,1-4.5,4.5H5.69a4.49,4.49,0,0,1-4.49-4.5V5.69A4.47,4.47,0,0,1,5.69,1.2h5.37Z"/><path class="cls-1" d="M8.38,10.47l-.27-.11a.36.36,0,0,1-.1-.27,2.13,2.13,0,0,1,.18-.81,2.2,2.2,0,0,1,.52-.75L9.26,8a2.26,2.26,0,0,0,.43-.56,1.68,1.68,0,0,0,.17-.79A1.29,1.29,0,0,0,9.68,6a1.27,1.27,0,0,0-.51-.49,1.53,1.53,0,0,0-.76-.18,1.62,1.62,0,0,0-.81.2A1.33,1.33,0,0,0,7.08,6a1.67,1.67,0,0,0-.19.78l-.1.26-.25.1-.27-.1-.1-.26a2.24,2.24,0,0,1,.28-1.14,2,2,0,0,1,.79-.78,2.36,2.36,0,0,1,1.17-.28,2.4,2.4,0,0,1,1.12.26,2.1,2.1,0,0,1,.77.74,2,2,0,0,1,.28,1.07,1.93,1.93,0,0,1-.19.9,2.62,2.62,0,0,1-.49.67l-.68.65a1.23,1.23,0,0,0-.38.59,2.35,2.35,0,0,0-.1.59.36.36,0,0,1-.1.27Zm0,1.66A.54.54,0,0,1,8,12a.52.52,0,0,1-.15-.38.54.54,0,0,1,.16-.4A.55.55,0,0,1,8.38,11a.57.57,0,0,1,.39.16.54.54,0,0,1,.16.4.49.49,0,0,1-.16.38A.53.53,0,0,1,8.38,12.13Z"/><path class="cls-1" d="M8.38,10.47l0-.14-.26-.11-.06.14.11-.1-.06-.17a1.91,1.91,0,0,1,.17-.76,1.87,1.87,0,0,1,.48-.69l.56-.53a2.36,2.36,0,0,0,.45-.6A1.76,1.76,0,0,0,10,6.65a1.5,1.5,0,0,0-.2-.75,1.56,1.56,0,0,0-.57-.54,1.73,1.73,0,0,0-.83-.2,1.69,1.69,0,0,0-.88.22A1.43,1.43,0,0,0,7,6a1.73,1.73,0,0,0-.21.85h.15l-.14-.05L6.68,7,6.54,7,6.39,7l-.08-.2-.14.05h.15a2.17,2.17,0,0,1,.26-1.07A1.94,1.94,0,0,1,7.31,5a2.16,2.16,0,0,1,1.1-.26,2.05,2.05,0,0,1,1,.25,1.75,1.75,0,0,1,.72.68,1.81,1.81,0,0,1,.26,1,1.83,1.83,0,0,1-.17.83,2.57,2.57,0,0,1-.47.64l-.67.64a1.49,1.49,0,0,0-.43.66,2.56,2.56,0,0,0-.1.63l-.06.17.11.1-.05-.14-.27.11.06.14,0-.14,0,.14,0,.13.26-.1h0l0,0a.53.53,0,0,0,.14-.38A2.08,2.08,0,0,1,9,9.54,1.15,1.15,0,0,1,9.33,9L10,8.37a3.2,3.2,0,0,0,.53-.71,2.13,2.13,0,0,0,.2-1,2.24,2.24,0,0,0-.3-1.15,2.18,2.18,0,0,0-.83-.79,2.46,2.46,0,0,0-1.19-.28,2.53,2.53,0,0,0-1.24.3,2.19,2.19,0,0,0-.85.83A2.48,2.48,0,0,0,6,6.82v0l.11.29,0,.06.32.12.06,0,.31-.12.06,0L7,6.88V6.82a1.46,1.46,0,0,1,.17-.71,1.12,1.12,0,0,1,.47-.47,1.39,1.39,0,0,1,.73-.18,1.46,1.46,0,0,1,.69.16,1.17,1.17,0,0,1,.45.43,1.25,1.25,0,0,1,.16.6,1.61,1.61,0,0,1-.15.72,2.24,2.24,0,0,1-.4.53l-.56.52a2.42,2.42,0,0,0-.74,1.67.54.54,0,0,0,.15.38l0,0,.29.11.06,0,0,0Zm0,1.66V12a.41.41,0,0,1-.29-.12A.37.37,0,0,1,8,11.59a.36.36,0,0,1,.11-.29.4.4,0,0,1,.29-.12.38.38,0,0,1,.28.12.35.35,0,0,1,.12.29.36.36,0,0,1-.12.28.42.42,0,0,1-.28.12v.29a.7.7,0,0,0,.7-.69.71.71,0,0,0-.21-.51.7.7,0,0,0-.49-.2.67.67,0,0,0-.5.21.71.71,0,0,0,0,1,.66.66,0,0,0,.5.2Z"/></g></g></svg>