<svg xmlns="http://www.w3.org/2000/svg" viewBox="0 0 12.55 16.75"><g id="Calque_2" data-name="Calque 2"><g id="Calque_2-2" data-name="Calque 2"><path d="M5.17,9h-.6A1.68,1.68,0,1,1,2.89,7.3,1.68,1.68,0,0,1,4.57,9H5.78a2.89,2.89,0,1,0-2.89,2.89A2.9,2.9,0,0,0,5.78,9Z"/><path d="M11.36,2.89h-.6A1.68,1.68,0,1,1,9.08,1.21a1.68,1.68,0,0,1,1.68,1.68H12A2.89,2.89,0,1,0,9.08,5.78,2.88,2.88,0,0,0,12,2.89Z"/><path d="M12,13.86h-.6a1.68,1.68,0,1,1-1.68-1.68,1.68,1.68,0,0,1,1.68,1.68h1.2a2.89,2.89,0,1,0-2.88,2.89,2.89,2.89,0,0,0,2.88-2.89Z"/><path d="M8.19,12,5.24,10a.6.6,0,0,0-.66,1l3,2a.6.6,0,0,0,.66-1"/><path d="M4.84,7.65,7.71,5a.6.6,0,1,0-.81-.89L4,6.76a.6.6,0,0,0,0,.85.61.61,0,0,0,.85,0"/></g></g></svg>