<svg xmlns="http://www.w3.org/2000/svg" viewBox="0 0 15.02 16.75"><defs><style>.cls-1{fill:#1d1d1b;}</style></defs><g id="Calque_2" data-name="Calque 2"><g id="Calque_2-2" data-name="Calque 2"><path d="M7.51,16.17l.22-.53c-4.05-1.7-6.57-5.23-6.57-9.06V2.89c0-.17.14-.39.46-.47L7.34,1.18l.17,0,.17,0,5.71,1.24a.55.55,0,0,1,.47.47V6.58c0,3.83-2.53,7.36-6.58,9.06l.23.53.22-.53-.22.53.22.54C12.15,14.87,15,10.94,15,6.58V2.89a1.69,1.69,0,0,0-1.38-1.6L7.93.05a1.79,1.79,0,0,0-.84,0L1.38,1.29A1.67,1.67,0,0,0,0,2.89V6.58c0,4.36,2.87,8.29,7.28,10.13a.58.58,0,0,0,.45,0Z"/><path class="cls-1" d="M7.51,12.13A.71.71,0,0,1,7,12a.49.49,0,0,1-.19-.39.53.53,0,0,1,.19-.4A.71.71,0,0,1,7.51,11a.68.68,0,0,1,.46.16.53.53,0,0,1,.19.4A.47.47,0,0,1,8,12,.69.69,0,0,1,7.51,12.13Zm0-1.7a.47.47,0,0,1-.31-.11l-.13-.26V5a.35.35,0,0,1,.13-.28.47.47,0,0,1,.31-.11.45.45,0,0,1,.31.11A.35.35,0,0,1,8,5v5.05l-.14.26A.48.48,0,0,1,7.51,10.43Z"/><path class="cls-1" d="M7.51,12.13V12a.55.55,0,0,1-.37-.12A.37.37,0,0,1,7,11.57a.35.35,0,0,1,.14-.29.51.51,0,0,1,.37-.13.5.5,0,0,1,.36.13.36.36,0,0,1,.15.29.34.34,0,0,1-.14.28.54.54,0,0,1-.37.13v.29a.78.78,0,0,0,.55-.2.62.62,0,0,0,.25-.5.7.7,0,0,0-.24-.51.87.87,0,0,0-.56-.2.85.85,0,0,0-.56.2.64.64,0,0,0-.24.51.67.67,0,0,0,.24.51.85.85,0,0,0,.56.19Zm0-1.7v-.15l-.22-.07-.09.11.13-.06L7.21,10V5l.08-.17.22-.07.22.07L7.8,5v5l-.12.23.13.07-.09-.11-.21.07v.29a.57.57,0,0,0,.39-.14l0,0,.15-.29V5a.52.52,0,0,0-.17-.39.6.6,0,0,0-.41-.14.66.66,0,0,0-.41.14A.53.53,0,0,0,6.92,5v5.08l.15.29v0l0,0a.6.6,0,0,0,.41.14Z"/></g></g></svg>