<svg xmlns="http://www.w3.org/2000/svg" viewBox="0 0 16.75 16.75"><defs><style>.cls-1{fill:#1d1d1b;}</style></defs><g id="Calque_2" data-name="Calque 2"><g id="Calque_2-2" data-name="Calque 2"><path class="cls-1" d="M11.06,16.15v-.59H5.69a4.49,4.49,0,0,1-4.49-4.5V5.69A4.47,4.47,0,0,1,5.69,1.2h5.37a4.49,4.49,0,0,1,4.5,4.49v5.37a4.51,4.51,0,0,1-4.5,4.5v1.19a5.69,5.69,0,0,0,5.69-5.69V5.69A5.69,5.69,0,0,0,11.06,0H5.69A5.69,5.69,0,0,0,0,5.69v5.37a5.69,5.69,0,0,0,5.69,5.69h5.37Z"/><path class="cls-1" d="M12,5.22l-5,5L4.78,8a.6.6,0,1,0-.87.83L6.5,11.52a.59.59,0,0,0,.43.19.6.6,0,0,0,.43-.18l5.47-5.47A.6.6,0,1,0,12,5.22Z"/></g></g></svg>