<svg xmlns="http://www.w3.org/2000/svg" viewBox="0 0 15.86 16.75"><defs><style>.cls-1{fill:#1d1d1b;}</style></defs><g id="Calque_2" data-name="Calque 2"><g id="Calque_2-2" data-name="Calque 2"><path class="cls-1" d="M8.15,15.69h0c-2.79,0-4.57-.42-5.6-1.19a3.29,3.29,0,0,1-1.1-1.45,6.17,6.17,0,0,1-.36-2.22v-.06a7.91,7.91,0,0,1,.46-2.93A3.54,3.54,0,0,1,3.77,5.77a13.65,13.65,0,0,1,4.38-.52.53.53,0,0,0,.53-.53.52.52,0,0,0-.53-.53c-2.47,0-4.47.2-5.94,1.17A4.51,4.51,0,0,0,.54,7.44,8.7,8.7,0,0,0,0,10.77v.07a7.06,7.06,0,0,0,.43,2.6A4.53,4.53,0,0,0,3,16a13.41,13.41,0,0,0,5.09.76h0a.53.53,0,0,0,0-1.06Z"/><path class="cls-1" d="M7.71,16.75h0c2.88,0,4.88-.41,6.23-1.4a4.35,4.35,0,0,0,1.46-1.91,7.08,7.08,0,0,0,.43-2.61v-.06a8.7,8.7,0,0,0-.54-3.33,4.6,4.6,0,0,0-2.87-2.67,14.5,14.5,0,0,0-4.74-.58.53.53,0,0,0-.53.53.53.53,0,0,0,.53.53c2.42,0,4.23.23,5.35,1a3.44,3.44,0,0,1,1.28,1.6,7.91,7.91,0,0,1,.46,2.93v.06a6,6,0,0,1-.36,2.22,3.4,3.4,0,0,1-2,2,12.6,12.6,0,0,1-4.68.68h0a.53.53,0,1,0,0,1.06Z"/><path d="M10.83,2.38a2.39,2.39,0,0,0-1.27-2A3.31,3.31,0,0,0,8,0,4.1,4.1,0,0,0,6.34.36a3.5,3.5,0,0,0-2.22,3,2.35,2.35,0,0,0,.21,1,2.32,2.32,0,0,0,.5.72.53.53,0,0,0,.75-.75,1.5,1.5,0,0,1-.29-.4,1.41,1.41,0,0,1-.11-.54,2.48,2.48,0,0,1,1.59-2A3.1,3.1,0,0,1,8,1.06a2.19,2.19,0,0,1,1.06.25A1.37,1.37,0,0,1,9.66,2a1.21,1.21,0,0,1,.11.48.53.53,0,0,0,1.06-.06Z"/><path d="M9.06,9.79H8.53a.4.4,0,0,1-.15.3.63.63,0,0,1-.45.16.67.67,0,0,1-.45-.16.38.38,0,0,1,0-.6.67.67,0,0,1,.45-.16.63.63,0,0,1,.45.16.4.4,0,0,1,.15.3H9.59a1.44,1.44,0,0,0-.51-1.1,1.77,1.77,0,0,0-1.15-.43,1.79,1.79,0,0,0-1.15.43,1.47,1.47,0,0,0-.51,1.1,1.49,1.49,0,0,0,.51,1.1,1.73,1.73,0,0,0,1.15.42,1.71,1.71,0,0,0,1.15-.42,1.46,1.46,0,0,0,.51-1.1Z"/><path d="M7.41,11.88v.73a.54.54,0,0,0,1.07,0v-.73a.54.54,0,0,0-1.07,0"/></g></g></svg>