<svg xmlns="http://www.w3.org/2000/svg" viewBox="0 0 16.75 16.75"><defs><style>.cls-1{fill:#1d1d1b;}</style></defs><g id="Calque_2" data-name="Calque 2"><g id="Calque_2-2" data-name="Calque 2"><path class="cls-1" d="M11.06,16.15v-.59H5.69a4.49,4.49,0,0,1-4.49-4.5V5.69A4.47,4.47,0,0,1,5.69,1.2h5.37a4.49,4.49,0,0,1,4.5,4.49v5.37a4.51,4.51,0,0,1-4.5,4.5v1.19a5.69,5.69,0,0,0,5.69-5.69V5.69A5.69,5.69,0,0,0,11.06,0H5.69A5.69,5.69,0,0,0,0,5.69v5.37a5.69,5.69,0,0,0,5.69,5.69h5.37Z"/><path class="cls-1" d="M8.38,12.84a.85.85,0,0,1-.56-.19.62.62,0,0,1,0-1,.85.85,0,0,1,.56-.2.81.81,0,0,1,.55.21.61.61,0,0,1,0,.94A.84.84,0,0,1,8.38,12.84Zm0-2A.52.52,0,0,1,8,10.69a.39.39,0,0,1-.16-.32v-6A.41.41,0,0,1,8,4a.59.59,0,0,1,.74,0,.43.43,0,0,1,.15.33v6a.39.39,0,0,1-.16.32A.55.55,0,0,1,8.38,10.82Z"/><path class="cls-1" d="M8.38,12.84v-.15a.66.66,0,0,1-.46-.16.44.44,0,0,1-.17-.35.46.46,0,0,1,.17-.37.71.71,0,0,1,.46-.16.66.66,0,0,1,.45.17.5.5,0,0,1,.18.36.48.48,0,0,1-.18.35.65.65,0,0,1-.45.16V13A1,1,0,0,0,9,12.76a.72.72,0,0,0,.28-.58A.74.74,0,0,0,9,11.59a.93.93,0,0,0-.64-.24,1,1,0,0,0-.65.23.76.76,0,0,0-.28.6.72.72,0,0,0,.28.58,1,1,0,0,0,.65.23Zm0-2v-.15a.39.39,0,0,1-.28-.1l-.1-.2v-6l.1-.21a.45.45,0,0,1,.55,0l.1.22v6l-.11.2h0l-.26.1V11a.7.7,0,0,0,.45-.17l-.09-.11.09.11a.53.53,0,0,0,.22-.43v-6a.57.57,0,0,0-.2-.44.73.73,0,0,0-.94,0,.58.58,0,0,0-.21.44v6a.56.56,0,0,0,.21.43.71.71,0,0,0,.47.17Z"/></g></g></svg>